{"glyphs":{"0":{"ha":838,"x_min":64,"x_max":775,"o":"m 667 63 q 614 25 667 63 q 419 -14 560 -14 q 172 63 279 -14 q 64 283 64 140 l 64 699 q 119 867 64 797 q 253 967 175 938 q 419 997 331 997 q 521 986 471 997 q 617 951 571 975 q 699 894 664 928 q 754 809 733 860 q 775 699 775 758 l 775 283 q 667 63 775 140 m 260 699 l 260 283 q 313 203 264 232 q 419 175 363 175 q 526 203 476 175 q 579 283 575 232 l 579 699 q 543 769 576 740 q 465 803 510 797 q 374 803 419 810 q 296 769 329 797 q 260 699 263 740 z "},"1":{"ha":493,"x_min":3,"x_max":415,"o":"m 415 0 l 224 0 l 224 693 l 131 613 l 3 721 l 254 986 l 415 986 l 415 0 z "},"2":{"ha":767,"x_min":31,"x_max":719,"o":"m 190 706 l 44 804 q 190 947 99 896 q 379 997 282 997 q 556 960 481 997 q 668 860 632 922 q 712 725 704 799 q 688 574 719 651 q 592 433 656 496 l 340 188 l 342 182 l 478 194 l 713 196 l 713 0 l 76 0 l 31 119 l 453 575 q 511 681 501 626 q 485 774 521 736 q 376 811 450 811 q 270 783 322 811 q 190 706 218 754 z "},"3":{"ha":788,"x_min":25,"x_max":742,"o":"m 182 714 l 61 826 q 202 953 114 907 q 388 997 290 999 q 611 910 522 996 q 700 708 700 825 q 604 528 700 604 q 707 425 672 492 q 742 289 742 358 q 642 77 742 167 q 396 -12 543 -12 q 25 197 138 -12 l 176 308 q 263 222 210 253 q 371 190 317 190 q 517 247 474 190 q 525 363 561 304 q 394 426 489 421 l 257 426 l 257 600 l 394 600 q 467 628 438 600 q 497 700 497 657 q 460 769 497 743 q 374 796 424 796 q 182 714 249 796 z "},"4":{"ha":788,"x_min":6,"x_max":739,"o":"m 739 400 l 739 221 l 656 221 l 656 0 l 460 0 l 460 221 l 99 221 l 6 358 l 481 985 l 656 985 l 656 400 l 739 400 m 439 656 l 243 386 l 464 386 l 468 593 l 490 731 l 482 732 l 439 656 z "},"5":{"ha":783,"x_min":60,"x_max":757,"o":"m 60 186 l 210 286 q 288 210 240 238 q 382 183 335 183 q 462 200 426 183 q 516 244 497 217 q 544 304 535 271 q 544 370 553 338 q 519 431 536 403 q 467 476 501 458 q 388 493 432 493 q 294 481 335 494 q 182 429 253 468 l 68 426 l 68 983 l 682 983 l 682 790 l 257 790 l 257 650 q 428 676 349 682 q 576 638 508 671 q 691 539 647 603 q 746 403 735 475 q 739 256 757 331 q 678 121 721 181 q 561 23 635 61 q 396 -14 488 -15 q 60 186 161 -14 z "},"6":{"ha":828,"x_min":64,"x_max":786,"o":"m 765 797 l 593 724 q 512 799 568 776 q 401 815 456 822 q 303 776 346 808 q 261 697 261 744 l 261 556 q 413 631 322 618 q 586 614 504 644 q 727 510 668 583 q 786 343 786 438 l 786 285 q 681 65 786 143 q 428 -14 575 -14 q 172 64 279 -15 q 64 285 64 143 l 64 699 q 172 919 64 840 q 428 997 279 999 q 765 797 654 997 m 590 286 l 590 342 q 539 420 590 392 q 426 449 488 449 q 313 420 364 449 q 261 342 261 392 l 261 286 q 313 208 261 236 q 426 179 364 179 q 539 208 488 179 q 590 286 590 236 z "},"7":{"ha":742,"x_min":42,"x_max":738,"o":"m 42 985 l 681 985 l 738 871 l 267 0 l 46 0 l 474 794 l 42 794 l 42 985 z "},"8":{"ha":858,"x_min":47,"x_max":811,"o":"m 439 -14 l 418 -14 q 152 74 256 -14 q 47 318 49 163 q 79 437 47 376 q 178 540 111 497 q 103 628 126 572 q 85 738 81 685 q 111 833 89 792 q 234 955 150 913 q 418 997 318 997 l 439 997 q 674 926 578 997 q 769 713 769 854 q 746 619 769 667 q 676 544 722 572 q 778 449 746 510 q 811 318 811 388 q 704 74 808 163 q 439 -14 600 -14 m 440 828 l 418 828 q 322 799 363 828 q 282 722 282 771 q 323 642 282 668 q 422 615 364 615 q 528 642 482 615 q 575 722 575 668 q 535 799 575 771 q 440 828 496 828 m 418 179 l 439 179 q 555 214 503 179 q 607 308 607 249 q 560 410 607 376 q 439 443 513 443 l 418 443 q 297 410 344 443 q 250 308 250 376 q 302 214 250 249 q 418 179 354 179 z "},"9":{"ha":828,"x_min":43,"x_max":765,"o":"m 64 186 l 236 260 q 317 184 261 207 q 428 168 374 161 q 526 207 483 175 q 568 286 568 239 l 568 428 q 414 353 506 367 q 241 370 322 340 q 101 473 160 400 q 43 640 43 546 l 43 699 q 149 919 43 840 q 401 997 254 997 q 656 919 549 999 q 765 699 764 840 l 765 285 q 658 64 765 143 q 401 -14 550 -15 q 64 186 175 -14 m 239 697 l 239 642 q 290 563 239 592 q 403 535 342 535 q 517 563 465 535 q 568 642 568 592 l 568 697 q 517 776 568 747 q 403 804 465 804 q 290 776 342 804 q 239 697 239 747 z "}," ":{"ha":267,"x_min":0,"x_max":0,"o":""},"!":{"ha":356,"x_min":58,"x_max":297,"o":"m 79 267 l 79 988 l 275 988 l 275 267 l 79 267 m 92 21 q 75 38 92 21 q 58 106 58 56 q 92 191 58 156 q 176 226 126 226 q 263 191 228 226 q 297 106 297 156 q 263 21 297 56 q 176 -14 228 -14 q 92 21 126 -14 z "},"\"":{"ha":575,"x_min":72,"x_max":517,"o":"m 269 982 l 242 606 l 72 606 l 72 982 l 269 982 m 517 982 l 490 606 l 319 606 l 319 982 l 517 982 z "},"#":{"ha":900,"x_min":36,"x_max":867,"o":"m 813 439 l 774 254 l 622 254 q 549 -1 569 72 l 358 -1 l 431 254 l 331 254 l 257 -1 l 65 -1 l 140 254 l 36 254 l 72 439 l 194 439 q 215 506 203 461 l 82 506 l 122 693 l 271 693 q 342 935 285 736 l 533 935 l 463 693 l 563 693 l 633 935 l 828 935 l 754 693 l 867 693 l 814 506 l 696 506 l 678 439 l 813 439 m 367 426 l 500 426 l 525 518 l 390 518 l 367 426 z "},"$":{"ha":786,"x_min":35,"x_max":756,"o":"m 331 -97 l 331 -11 q 167 46 244 -1 q 35 174 89 93 l 189 292 q 331 193 235 219 l 331 407 q 44 715 42 463 q 132 901 51 829 q 331 993 213 974 l 331 1078 l 463 1078 l 463 994 q 735 825 638 971 l 567 713 q 463 796 525 775 l 463 589 q 678 488 600 558 q 750 271 756 417 q 660 88 740 160 q 463 -6 579 15 l 463 -97 l 331 -97 m 253 708 l 253 707 q 331 618 253 644 l 331 794 q 253 708 257 771 m 544 285 q 463 381 549 351 l 463 192 q 544 285 540 215 z "},"%":{"ha":1015,"x_min":36,"x_max":981,"o":"m 108 22 l 750 1014 l 881 935 l 238 -51 l 108 22 m 449 746 q 390 564 449 632 q 242 496 332 496 q 90 560 143 496 q 36 749 36 625 q 94 928 36 861 q 242 996 151 996 q 394 931 340 996 q 449 746 449 865 m 304 746 q 239 851 304 851 q 172 747 172 851 q 239 642 172 642 q 304 746 304 642 m 981 244 q 922 63 981 131 q 774 -6 864 -6 q 622 59 675 -6 q 568 247 568 124 q 626 427 568 360 q 774 494 683 494 q 926 429 872 494 q 981 244 981 364 m 836 244 q 771 350 836 350 q 704 246 704 350 q 771 140 704 140 q 836 244 836 140 z "},"&":{"ha":926,"x_min":44,"x_max":926,"o":"m 708 492 l 832 372 l 733 257 l 926 21 l 689 21 l 619 106 q 363 -6 515 -6 q 135 78 226 -6 q 44 300 44 163 q 197 558 44 453 q 131 738 131 653 q 212 923 131 854 q 406 992 293 992 q 584 924 508 992 q 660 751 660 857 q 515 517 660 606 l 624 390 l 708 492 m 400 817 q 346 795 368 817 q 324 742 324 774 q 376 633 324 696 q 442 685 415 654 q 469 749 469 717 q 450 798 469 779 q 400 817 431 817 m 481 240 l 326 415 q 238 300 238 356 q 278 208 238 242 q 378 181 319 174 q 481 240 436 189 z "},"'":{"ha":328,"x_min":72,"x_max":267,"o":"m 267 982 l 247 606 l 72 606 l 72 982 l 267 982 z "},"(":{"ha":426,"x_min":46,"x_max":406,"o":"m 265 1101 l 406 1007 q 226 483 226 778 q 403 -65 225 189 l 258 -164 q 47 496 46 135 q 265 1101 49 857 z "},")":{"ha":426,"x_min":19,"x_max":379,"o":"m 19 1007 l 160 1101 q 378 496 376 857 q 167 -164 379 135 l 22 -65 q 199 483 200 189 q 19 1007 199 778 z "},"*":{"ha":639,"x_min":36,"x_max":604,"o":"m 553 883 l 604 708 l 443 678 l 554 549 l 411 440 l 319 590 l 233 440 l 85 547 l 193 676 l 36 711 l 86 886 l 244 821 l 231 985 l 411 985 l 394 822 l 553 883 z "},"+":{"ha":792,"x_min":40,"x_max":751,"o":"m 304 551 l 304 807 l 499 807 l 499 551 l 751 551 l 751 356 l 499 356 l 499 97 l 304 97 l 304 356 l 40 356 l 40 551 l 304 551 z "},",":{"ha":369,"x_min":-11,"x_max":313,"o":"m 313 154 l 185 -169 l -11 -169 l 96 154 l 313 154 z "},"-":{"ha":549,"x_min":69,"x_max":479,"o":"m 479 504 l 479 308 l 69 308 l 69 504 l 479 504 z "},".":{"ha":335,"x_min":49,"x_max":286,"o":"m 49 113 q 83 197 49 163 q 167 232 117 232 q 251 197 217 232 q 286 113 286 163 q 251 26 286 61 q 167 -8 217 -8 q 83 26 117 -8 q 49 113 49 61 z "},"/":{"ha":661,"x_min":28,"x_max":633,"o":"m 633 994 l 213 -75 l 28 -8 l 451 1058 l 633 994 z "},":":{"ha":369,"x_min":65,"x_max":304,"o":"m 100 476 q 83 493 100 476 q 65 561 65 511 q 100 645 65 611 q 185 679 135 679 q 269 645 235 679 q 304 561 304 611 q 269 476 304 511 q 185 440 235 440 q 100 476 135 440 m 65 129 q 100 215 65 181 q 185 249 135 249 q 269 215 235 249 q 304 129 304 181 q 269 44 304 79 q 185 10 235 10 q 100 44 135 10 q 65 129 65 79 z "},";":{"ha":382,"x_min":25,"x_max":315,"o":"m 74 544 q 108 628 74 594 q 194 663 142 663 q 278 628 244 663 q 311 544 311 594 q 278 458 311 493 q 194 424 244 424 q 108 458 142 424 q 74 544 74 493 m 315 190 l 199 -132 l 25 -132 l 103 190 l 315 190 z "},"<":{"ha":590,"x_min":32,"x_max":524,"o":"m 250 410 l 524 260 l 524 35 l 32 346 l 32 474 l 524 789 l 524 565 l 250 410 z "},"=":{"ha":735,"x_min":71,"x_max":664,"o":"m 664 628 l 664 438 l 71 438 l 71 628 l 664 628 m 664 372 l 664 183 l 71 183 l 71 372 l 664 372 z "},">":{"ha":592,"x_min":67,"x_max":558,"o":"m 558 474 l 558 346 l 67 35 l 67 260 l 340 410 l 67 565 l 67 789 l 558 474 z "},"?":{"ha":668,"x_min":31,"x_max":636,"o":"m 156 744 l 31 850 q 308 997 143 997 q 470 959 399 997 q 579 862 542 921 q 626 733 617 803 q 615 599 636 663 q 533 488 593 536 q 386 428 474 440 l 372 271 l 204 271 l 192 558 q 278 549 231 549 q 409 619 369 549 q 409 756 449 689 q 274 814 369 822 q 156 744 200 807 m 185 96 q 217 174 185 143 q 294 206 249 206 q 372 174 340 206 q 404 96 404 143 q 372 18 404 50 q 294 -14 340 -14 q 217 18 249 -14 q 185 96 185 50 z "},"@":{"ha":1069,"x_min":44,"x_max":1056,"o":"m 828 719 l 753 315 q 882 476 851 369 q 869 683 913 582 q 682 842 822 804 q 329 756 468 897 q 208 481 222 647 q 282 211 193 314 q 624 143 397 78 l 656 13 q 471 -12 561 -14 q 301 28 381 -11 q 164 127 222 67 q 75 279 106 188 q 51 478 44 371 q 107 694 58 590 q 241 876 156 799 q 444 983 326 953 q 708 976 563 1013 q 878 896 804 953 q 993 760 951 839 q 1028 487 1056 640 q 900 243 1001 333 q 815 192 865 211 q 708 174 765 172 q 610 208 651 176 q 476 179 549 168 q 351 239 404 190 q 271 488 250 331 q 381 710 289 621 q 604 764 485 808 q 688 711 647 747 l 718 746 l 828 719 m 613 356 l 656 561 q 556 626 613 629 q 460 565 499 624 q 428 455 429 519 q 460 350 428 390 q 539 320 492 317 q 613 356 586 324 z "},"A":{"ha":881,"x_min":-4,"x_max":889,"o":"m 536 983 l 889 0 l 675 0 l 589 225 l 296 225 l 214 0 l -4 0 l 340 983 l 536 983 m 403 625 l 347 413 l 536 413 l 474 626 l 443 767 l 433 767 l 403 625 z "},"B":{"ha":867,"x_min":86,"x_max":835,"o":"m 783 696 q 760 599 783 649 q 690 524 736 550 q 805 408 775 482 q 822 250 835 335 q 724 70 807 140 q 482 0 640 0 l 86 0 l 86 985 l 475 985 q 696 909 608 985 q 783 696 783 833 m 290 599 l 475 599 q 572 645 542 599 q 575 738 601 692 q 475 785 549 785 l 290 785 l 290 599 m 290 199 l 475 199 q 582 234 543 199 q 621 311 621 269 q 583 388 621 353 q 475 424 544 424 l 290 424 l 290 199 z "},"C":{"ha":811,"x_min":61,"x_max":797,"o":"m 621 290 l 797 192 q 642 39 736 92 q 447 -14 549 -14 q 176 73 292 -14 q 61 313 61 160 l 61 671 q 176 910 61 824 q 447 997 290 997 q 647 943 551 997 q 789 786 742 889 l 625 697 q 544 777 597 750 q 432 803 492 804 q 313 765 363 801 q 264 671 264 729 l 264 313 q 312 219 264 254 q 428 183 360 185 q 540 209 486 182 q 621 290 593 236 z "},"D":{"ha":883,"x_min":86,"x_max":822,"o":"m 86 983 l 447 983 q 714 902 606 983 q 822 664 822 821 l 822 314 q 715 79 822 158 q 447 0 607 0 l 86 0 l 86 983 m 290 206 l 447 206 q 569 232 521 206 q 617 314 617 258 l 617 664 q 568 749 617 721 q 447 778 519 778 l 290 778 l 290 206 z "},"E":{"ha":810,"x_min":86,"x_max":753,"o":"m 292 785 l 292 592 l 715 592 l 715 393 l 292 393 l 292 199 l 753 199 l 753 0 l 86 0 l 86 985 l 753 985 l 753 785 l 292 785 z "},"F":{"ha":790,"x_min":86,"x_max":751,"o":"m 292 785 l 292 568 l 694 568 l 694 367 l 292 367 l 292 0 l 86 0 l 86 983 l 751 983 l 751 785 l 292 785 z "},"G":{"ha":872,"x_min":61,"x_max":831,"o":"m 790 789 l 625 701 q 551 783 603 756 q 439 810 500 810 q 316 773 368 810 q 264 674 264 736 l 264 315 q 317 219 264 253 q 446 185 371 185 q 576 219 521 185 q 631 315 631 253 l 631 363 l 407 363 l 407 561 l 831 561 l 831 315 q 717 74 831 161 q 447 -14 603 -12 q 261 20 347 -15 q 118 133 175 56 q 61 315 61 210 l 61 674 q 175 912 61 826 q 444 997 289 997 q 646 947 554 997 q 790 789 738 897 z "},"H":{"ha":943,"x_min":86,"x_max":857,"o":"m 290 403 l 290 0 l 86 0 l 86 983 l 290 983 l 290 593 l 653 593 l 653 983 l 857 983 l 857 0 l 653 0 l 653 403 l 290 403 z "},"I":{"ha":376,"x_min":86,"x_max":290,"o":"m 290 983 l 290 0 l 86 0 l 86 983 l 290 983 z "},"J":{"ha":831,"x_min":10,"x_max":751,"o":"m 314 983 l 751 983 l 751 308 q 640 72 751 157 q 378 -14 528 -14 q 136 71 243 -14 q 10 313 29 156 l 207 351 q 271 230 221 274 q 382 186 321 186 q 497 219 447 186 q 546 308 546 251 l 546 790 l 314 790 l 314 983 z "},"K":{"ha":879,"x_min":86,"x_max":889,"o":"m 290 574 l 640 983 l 889 983 l 467 501 l 889 0 l 636 0 l 329 365 l 290 328 l 290 0 l 86 0 l 86 983 l 290 983 l 290 574 z "},"L":{"ha":736,"x_min":86,"x_max":715,"o":"m 86 0 l 86 983 l 290 983 l 290 206 l 715 206 l 715 0 l 86 0 z "},"M":{"ha":1081,"x_min":86,"x_max":994,"o":"m 753 444 l 618 129 l 465 129 l 329 446 l 282 581 l 268 581 l 290 390 l 290 0 l 86 0 l 86 983 l 300 983 l 539 418 l 781 983 l 994 983 l 994 0 l 790 0 l 790 392 l 815 582 l 800 582 l 753 444 z "},"N":{"ha":943,"x_min":86,"x_max":857,"o":"m 668 269 l 682 272 q 653 481 657 415 l 653 983 l 857 983 l 857 0 l 639 0 l 339 517 l 279 650 l 265 647 l 292 479 l 292 0 l 86 0 l 86 983 l 288 983 l 599 447 l 668 269 z "},"O":{"ha":925,"x_min":60,"x_max":865,"o":"m 60 313 l 60 669 q 119 851 60 775 q 269 963 179 928 q 463 997 358 999 q 746 910 626 997 q 865 669 865 824 l 865 313 q 746 72 865 158 q 463 -15 626 -15 q 269 19 358 -15 q 119 131 179 54 q 60 313 60 208 m 263 669 l 263 313 q 322 222 263 254 q 463 189 381 189 q 603 222 544 190 q 661 313 661 254 l 661 669 q 601 763 661 729 q 461 794 542 796 q 322 761 382 794 q 263 669 263 728 z "},"P":{"ha":857,"x_min":86,"x_max":826,"o":"m 86 0 l 86 983 l 474 983 q 613 960 550 983 q 717 897 676 936 q 787 807 758 858 q 821 699 815 756 q 820 587 826 643 q 785 480 814 531 q 716 390 757 429 q 613 327 675 350 q 475 304 550 304 l 289 304 l 289 0 l 86 0 m 289 496 l 474 496 q 585 540 544 496 q 625 637 625 583 q 585 734 625 690 q 474 778 544 778 l 289 778 l 289 496 z "},"Q":{"ha":925,"x_min":60,"x_max":897,"o":"m 796 -46 l 710 47 q 463 -15 601 -15 q 269 19 358 -15 q 119 131 179 54 q 60 313 60 208 l 60 669 q 119 851 60 775 q 269 963 179 928 q 463 997 358 999 q 746 910 626 997 q 865 669 865 824 l 865 313 q 808 135 865 211 l 897 40 l 796 -46 m 463 189 q 571 196 525 189 l 483 290 l 585 376 l 661 294 l 661 313 l 661 669 q 601 763 661 729 q 461 794 542 796 q 322 761 382 794 q 263 669 263 728 l 263 313 q 322 220 263 253 q 463 189 382 188 z "},"R":{"ha":878,"x_min":86,"x_max":894,"o":"m 643 0 l 364 360 l 292 360 l 292 0 l 86 0 l 86 983 l 474 983 q 726 906 631 983 q 825 669 821 829 q 601 374 825 418 l 894 0 l 643 0 m 292 546 l 474 546 q 621 668 621 546 q 474 778 621 782 l 292 778 l 292 546 z "},"S":{"ha":789,"x_min":36,"x_max":756,"o":"m 36 174 l 190 292 q 282 212 222 240 q 399 183 342 183 q 499 208 456 182 q 546 285 543 235 q 500 366 549 342 q 357 403 451 390 q 46 715 43 451 q 158 924 54 849 q 404 999 263 999 q 736 825 621 999 l 568 713 q 404 806 507 806 q 299 781 342 806 q 254 708 257 757 l 254 707 q 281 649 254 672 q 328 620 307 626 q 407 601 349 614 q 424 597 418 599 q 550 565 497 583 q 653 510 603 546 q 730 415 704 475 q 751 271 756 354 q 630 63 739 139 q 378 -14 521 -14 q 188 34 279 -14 q 36 174 97 82 z "},"T":{"ha":811,"x_min":21,"x_max":790,"o":"m 790 779 l 508 779 l 508 0 l 303 0 l 303 779 l 21 779 l 21 985 l 790 985 l 790 779 z "},"U":{"ha":928,"x_min":78,"x_max":850,"o":"m 283 983 l 283 324 q 336 222 283 258 q 463 186 389 186 q 592 222 539 186 q 644 324 644 258 l 644 983 l 850 983 l 850 324 q 736 75 850 164 q 463 -14 622 -14 q 192 75 306 -14 q 78 324 78 164 l 78 983 l 283 983 z "},"V":{"ha":892,"x_min":-8,"x_max":900,"o":"m 489 439 l 682 985 l 900 985 l 544 0 l 347 0 l -8 985 l 210 985 l 396 439 l 436 236 l 451 236 l 489 439 z "},"W":{"ha":1278,"x_min":4,"x_max":1274,"o":"m 289 0 l 4 983 l 215 983 l 356 469 l 386 240 l 399 240 l 432 471 q 497 667 461 567 q 557 847 532 767 l 722 847 l 842 468 l 882 231 l 894 231 l 921 468 l 1064 983 l 1274 983 l 990 0 l 790 0 l 664 379 l 642 497 l 631 497 q 626 477 629 489 q 618 439 624 465 q 608 394 613 413 l 604 378 l 489 0 l 289 0 z "},"X":{"ha":876,"x_min":-1,"x_max":879,"o":"m 879 0 l 629 0 l 432 347 l 250 0 l -1 0 l 289 490 l 1 983 l 250 983 l 432 633 l 631 983 l 879 983 l 568 489 l 879 0 z "},"Y":{"ha":872,"x_min":-8,"x_max":881,"o":"m 538 0 l 333 0 l 333 376 l -8 983 l 226 983 l 435 572 l 643 983 l 881 983 l 538 376 l 538 0 z "},"Z":{"ha":829,"x_min":25,"x_max":801,"o":"m 51 983 l 744 983 l 801 890 l 311 183 l 782 183 l 782 0 l 74 0 l 25 93 l 515 794 l 51 794 l 51 983 z "},"[":{"ha":426,"x_min":75,"x_max":376,"o":"m 272 801 l 272 36 l 376 36 l 376 -151 l 75 -151 l 75 990 l 376 990 l 376 801 l 272 801 z "},"\\":{"ha":663,"x_min":26,"x_max":635,"o":"m 450 -79 l 26 993 l 211 1058 l 635 -17 l 450 -79 z "},"]":{"ha":426,"x_min":51,"x_max":351,"o":"m 153 33 l 153 807 l 51 807 l 51 992 l 351 992 l 351 -150 l 51 -150 l 51 33 l 153 33 z "},"^":{"ha":856,"x_min":40,"x_max":817,"o":"m 483 963 l 817 547 l 585 547 l 422 747 l 264 547 l 40 547 l 365 963 l 483 963 z "},"_":{"ha":836,"x_min":68,"x_max":767,"o":"m 767 11 l 767 -182 l 68 -182 l 68 11 l 767 11 z "},"`":{"ha":357,"x_min":-118,"x_max":225,"o":"m 225 1050 l 44 1050 l -118 1247 l 110 1247 l 225 1050 z "},"a":{"ha":672,"x_min":38,"x_max":607,"o":"m 38 214 q 112 390 38 331 q 293 449 186 449 q 421 426 357 449 l 421 478 q 310 578 421 578 q 228 558 271 578 q 158 511 185 539 l 64 613 q 324 733 167 731 q 524 667 442 733 q 607 478 607 601 l 607 39 q 336 -14 467 -14 q 113 47 188 -14 q 38 214 38 107 m 415 144 l 415 290 q 328 307 371 307 q 248 283 275 307 q 221 219 221 260 q 333 135 221 135 q 415 144 378 135 z "},"b":{"ha":707,"x_min":72,"x_max":651,"o":"m 267 982 l 267 708 q 386 733 322 733 q 572 665 492 732 q 651 489 651 599 l 651 235 q 560 45 642 104 q 353 -14 478 -14 q 72 40 214 -14 l 72 982 l 267 982 m 267 561 l 267 144 q 346 129 303 131 q 424 152 389 128 q 458 217 458 176 l 458 499 q 419 559 454 538 q 341 580 383 581 q 267 561 299 579 z "},"c":{"ha":650,"x_min":56,"x_max":625,"o":"m 456 238 l 625 182 q 512 33 590 81 q 344 -14 433 -14 q 142 53 228 -14 q 56 240 56 119 l 56 478 q 142 666 56 599 q 344 733 228 733 q 513 687 435 733 q 617 539 590 640 l 451 488 q 410 542 440 524 q 344 560 381 560 q 277 538 306 560 q 249 479 249 515 l 249 242 q 277 182 249 204 q 344 160 306 160 q 412 179 381 160 q 456 238 443 199 z "},"d":{"ha":707,"x_min":56,"x_max":635,"o":"m 635 982 l 635 40 q 354 -14 493 -14 q 147 45 229 -14 q 56 235 65 104 l 56 489 q 135 665 56 599 q 322 733 215 732 q 440 708 386 733 l 440 982 l 635 982 m 440 144 l 440 561 q 366 580 408 579 q 288 559 324 581 q 249 499 253 538 l 249 217 q 285 152 250 176 q 362 129 319 128 q 440 144 404 131 z "},"e":{"ha":672,"x_min":56,"x_max":626,"o":"m 471 214 l 597 122 q 489 19 558 51 q 346 -14 419 -14 q 142 53 228 -14 q 56 242 56 121 l 56 479 q 142 667 56 601 q 349 733 229 733 q 546 672 465 733 q 626 488 626 610 l 626 276 l 250 276 l 250 244 q 282 182 250 204 q 358 160 314 160 q 471 214 438 160 m 444 419 l 444 485 q 417 540 444 521 q 350 560 389 560 q 280 540 310 560 q 250 483 250 519 l 250 419 l 444 419 z "},"f":{"ha":424,"x_min":75,"x_max":404,"o":"m 404 986 l 404 806 q 305 792 342 818 q 268 721 268 767 l 268 686 l 396 686 l 396 510 l 268 510 l 268 0 l 75 0 l 75 732 q 165 931 75 861 q 404 986 256 1000 z "},"g":{"ha":703,"x_min":58,"x_max":631,"o":"m 85 -186 l 174 -71 q 319 -122 228 -122 q 439 17 439 -122 q 322 -14 388 -14 q 135 48 213 -14 q 58 219 58 110 l 58 492 q 142 674 58 615 q 353 733 225 733 q 631 672 506 733 l 631 1 q 547 -210 631 -136 q 333 -283 463 -283 q 85 -186 185 -283 m 436 160 l 436 567 q 354 585 400 585 q 276 561 308 585 q 244 496 244 538 l 244 222 q 283 163 250 183 q 360 142 315 142 q 436 160 403 142 z "},"h":{"ha":719,"x_min":75,"x_max":650,"o":"m 268 983 l 268 711 q 385 733 322 733 q 572 665 494 733 q 650 475 650 597 l 650 0 l 458 0 l 458 476 q 423 540 458 518 q 343 559 388 561 q 268 539 299 557 l 268 0 l 75 0 l 75 983 l 268 983 z "},"i":{"ha":343,"x_min":54,"x_max":285,"o":"m 88 812 q 71 829 88 812 q 54 894 54 846 q 87 976 54 943 q 168 1010 119 1010 q 252 977 219 1010 q 285 894 285 944 q 252 811 285 844 q 168 778 219 778 q 88 812 121 778 m 75 721 l 268 721 l 268 0 l 75 0 l 75 721 z "},"j":{"ha":343,"x_min":-22,"x_max":286,"o":"m 54 893 q 88 976 54 943 q 169 1010 121 1010 q 252 976 218 1010 q 286 893 286 943 q 252 811 286 844 q 169 778 218 778 q 88 811 122 778 q 54 893 54 844 m -22 -106 l -22 -254 q 194 -212 121 -283 q 268 -12 268 -140 l 268 721 l 75 721 l 75 -12 q -22 -106 75 -115 z "},"k":{"ha":708,"x_min":75,"x_max":703,"o":"m 268 447 l 476 719 l 701 719 l 415 372 q 558 188 458 315 q 703 0 657 61 l 479 0 l 281 263 l 268 251 l 268 0 l 75 0 l 75 982 l 268 982 l 268 447 z "},"l":{"ha":386,"x_min":68,"x_max":376,"o":"m 376 154 l 376 -11 q 336 -14 349 -14 q 135 60 203 -14 q 68 253 68 135 l 68 983 l 261 983 l 261 253 q 290 182 261 210 q 376 154 319 154 z "},"m":{"ha":1046,"x_min":72,"x_max":976,"o":"m 72 0 l 72 644 q 190 710 119 686 q 329 733 260 735 q 522 644 469 731 q 708 733 594 733 q 897 669 817 733 q 976 489 976 604 l 976 0 l 785 0 l 785 496 q 760 543 785 526 q 700 560 735 560 q 640 543 665 560 q 614 497 614 526 l 614 0 l 429 0 l 429 492 q 399 541 429 522 q 331 560 369 560 q 261 532 285 557 l 261 0 l 72 0 z "},"n":{"ha":715,"x_min":74,"x_max":647,"o":"m 74 0 l 74 671 q 333 733 201 733 q 488 708 419 733 q 601 622 556 683 q 647 471 647 561 l 647 0 l 456 0 l 456 464 q 424 535 456 511 q 346 560 392 560 q 267 540 301 560 l 267 0 l 74 0 z "},"o":{"ha":686,"x_min":56,"x_max":632,"o":"m 56 242 l 56 476 q 141 665 56 597 q 344 733 226 732 q 547 665 461 732 q 632 476 632 597 l 632 242 q 547 53 632 119 q 344 -14 463 -12 q 141 53 226 -12 q 56 242 56 119 m 344 560 q 278 540 307 560 q 249 489 249 521 l 249 238 q 278 182 249 204 q 344 160 308 160 q 409 182 379 160 q 439 238 439 204 l 439 489 q 410 540 439 521 q 344 560 381 560 z "},"p":{"ha":708,"x_min":72,"x_max":651,"o":"m 72 -264 l 72 679 q 353 733 214 733 q 651 493 651 733 l 651 231 q 573 49 651 111 q 383 -14 494 -12 q 267 11 321 -14 l 267 -264 l 72 -264 m 267 569 l 267 151 q 342 135 296 135 q 425 159 392 135 q 458 231 458 183 l 458 503 q 426 565 458 544 q 344 586 394 586 q 267 569 300 586 z "},"q":{"ha":708,"x_min":57,"x_max":636,"o":"m 442 -264 l 442 11 q 328 -14 388 -14 q 132 51 207 -14 q 57 231 57 117 l 57 468 q 144 666 57 599 q 356 733 231 733 q 636 679 494 733 l 636 -264 l 442 -264 m 442 151 l 442 565 q 367 585 410 585 q 285 556 321 585 q 250 485 250 528 l 250 235 q 287 160 250 185 q 372 135 324 135 q 442 151 413 135 z "},"r":{"ha":472,"x_min":68,"x_max":451,"o":"m 350 733 q 451 719 390 733 l 451 564 q 323 558 385 582 q 261 475 261 533 l 261 0 l 68 0 l 68 478 q 154 666 68 599 q 350 733 240 733 z "},"s":{"ha":589,"x_min":35,"x_max":553,"o":"m 35 108 l 126 233 q 300 153 211 153 q 358 185 343 153 q 354 243 372 217 q 289 276 336 269 q 115 362 175 296 q 53 511 54 428 q 118 667 51 601 q 299 733 185 733 q 528 658 435 733 l 432 526 q 380 558 414 544 q 315 571 346 571 q 272 556 290 571 q 250 513 253 542 q 281 461 247 483 q 346 433 315 439 q 553 222 553 381 q 477 48 553 110 q 293 -14 401 -14 q 35 108 126 -14 z "},"t":{"ha":443,"x_min":69,"x_max":411,"o":"m 411 168 l 411 10 q 167 25 264 -39 q 71 253 69 89 l 71 879 l 249 879 l 263 719 l 390 719 l 390 543 l 263 543 l 263 254 q 298 173 263 193 q 411 168 333 153 z "},"u":{"ha":717,"x_min":69,"x_max":644,"o":"m 644 719 l 644 39 q 372 -14 497 -14 q 154 49 239 -14 q 69 253 69 111 l 69 719 l 263 719 l 263 264 q 297 175 263 204 q 383 146 331 146 q 453 158 419 146 l 453 719 l 644 719 z "},"v":{"ha":700,"x_min":3,"x_max":697,"o":"m 382 357 l 490 719 l 697 719 l 440 0 l 258 0 l 3 719 l 208 719 l 317 357 l 347 171 l 351 171 l 382 357 z "},"w":{"ha":974,"x_min":8,"x_max":963,"o":"m 464 260 l 407 0 l 226 0 l 8 719 l 199 719 l 279 429 l 301 242 l 304 242 l 325 417 l 417 719 l 557 719 l 646 418 l 667 242 l 669 242 l 694 431 l 769 719 l 963 719 l 750 0 l 569 0 l 510 260 l 488 456 l 485 456 l 464 260 z "},"x":{"ha":721,"x_min":10,"x_max":713,"o":"m 710 719 l 471 361 q 592 180 506 311 q 713 0 678 49 l 483 0 l 390 150 l 363 224 l 353 224 l 321 147 q 228 0 238 15 l 10 0 l 243 360 q 205 422 232 376 q 130 540 178 467 q 10 719 82 614 l 228 719 l 328 556 l 354 488 l 363 488 l 388 556 q 428 625 397 569 q 483 719 460 681 l 710 719 z "},"y":{"ha":718,"x_min":71,"x_max":643,"o":"m 643 719 l 643 6 q 560 -208 643 -133 q 344 -283 478 -283 q 93 -187 189 -283 l 185 -67 q 322 -119 240 -119 q 423 -89 388 -119 q 457 10 458 -58 q 335 -14 386 -14 q 142 48 214 -14 q 71 224 71 110 l 71 719 l 257 719 l 257 226 q 368 142 257 142 q 449 164 410 142 l 449 719 l 643 719 z "},"z":{"ha":629,"x_min":29,"x_max":593,"o":"m 56 719 l 551 719 l 593 651 l 293 165 l 583 165 l 583 0 l 71 0 l 29 69 l 328 554 l 56 554 l 56 719 z "},"{":{"ha":461,"x_min":43,"x_max":410,"o":"m 321 807 l 321 782 l 321 599 q 293 491 321 543 q 224 419 265 439 q 321 242 321 379 l 321 54 q 315 33 321 36 l 410 33 l 410 -150 l 304 -150 q 163 -99 203 -150 q 124 51 124 -49 l 124 218 q 43 328 124 328 l 43 513 q 124 622 124 513 l 124 789 q 167 940 124 888 q 317 992 211 992 l 410 992 l 410 807 l 321 807 z "},"|":{"ha":343,"x_min":75,"x_max":268,"o":"m 268 -203 l 75 -203 l 75 989 l 268 989 l 268 -203 z "},"}":{"ha":453,"x_min":56,"x_max":410,"o":"m 56 992 l 129 992 q 235 978 194 992 q 296 935 276 965 q 322 874 315 906 q 328 789 328 842 l 328 622 q 410 513 328 513 l 410 328 q 328 218 328 328 l 328 51 q 285 -100 328 -50 q 126 -150 243 -150 l 56 -150 l 56 33 l 125 33 q 132 54 132 33 l 132 242 q 156 350 131 301 q 232 421 181 399 q 160 497 189 449 q 132 599 131 546 l 132 782 q 128 807 132 807 l 56 807 l 56 992 z "},"~":{"ha":676,"x_min":47,"x_max":629,"o":"m 519 515 l 629 424 q 426 276 546 276 q 294 332 357 276 q 234 357 265 361 q 168 308 203 353 l 47 410 q 242 544 140 544 q 392 481 308 544 q 458 463 429 454 q 519 515 486 471 z "}," ":{"ha":267,"x_min":0,"x_max":0,"o":""},"¡":{"ha":346,"x_min":54,"x_max":292,"o":"m 292 615 q 258 530 292 564 q 172 496 224 496 q 88 529 121 496 q 54 615 54 563 q 88 699 54 665 q 172 733 121 733 q 258 699 224 733 q 292 615 292 665 m 271 454 l 271 -235 l 75 -235 l 75 454 l 271 454 z "},"¢":{"ha":658,"x_min":54,"x_max":624,"o":"m 417 790 l 417 719 q 615 533 576 683 l 450 482 q 417 531 439 514 l 417 188 q 454 243 442 208 l 624 188 q 417 0 571 36 l 417 -74 l 292 -74 l 292 -4 q 122 74 190 10 q 54 246 54 139 l 54 472 q 122 644 54 579 q 292 724 190 708 l 292 790 l 417 790 m 247 474 l 247 247 q 292 176 247 200 l 292 542 q 247 474 247 518 z "},"£":{"ha":729,"x_min":53,"x_max":686,"o":"m 171 188 l 171 421 l 53 421 l 53 604 l 171 604 l 171 697 q 185 800 171 750 q 232 896 200 850 q 324 969 264 942 q 464 997 383 997 q 686 875 597 997 l 574 771 q 445 812 517 836 q 367 704 374 788 l 367 604 l 553 604 l 553 421 l 367 421 l 367 188 l 678 188 l 678 0 l 53 0 l 53 188 l 171 188 z "},"¤":{"ha":851,"x_min":54,"x_max":797,"o":"m 56 228 l 122 296 q 78 468 78 371 q 124 640 78 560 l 121 643 l 54 707 l 182 846 l 257 771 q 425 814 329 814 q 596 769 518 814 l 671 844 l 797 707 l 728 639 q 774 468 774 565 q 728 294 774 369 l 731 292 l 731 293 l 797 229 l 671 92 l 596 167 q 425 122 522 122 q 256 165 332 122 l 250 158 l 182 93 l 56 228 m 268 467 q 315 356 268 403 q 425 310 361 310 q 535 356 489 310 q 581 467 581 403 q 535 580 581 533 q 425 626 489 626 q 314 580 360 626 q 268 467 268 533 z "},"¥":{"ha":942,"x_min":26,"x_max":915,"o":"m 26 983 l 261 983 l 469 572 l 678 983 l 915 983 l 651 517 l 749 517 l 721 378 l 572 376 l 572 325 l 749 325 l 722 189 l 572 189 l 572 0 l 368 0 l 368 189 l 193 189 l 221 325 l 368 325 l 367 378 l 193 378 l 221 517 l 289 517 l 26 983 z "},"¦":{"ha":350,"x_min":78,"x_max":272,"o":"m 272 450 l 78 450 l 78 933 l 272 933 l 272 450 m 272 -165 l 78 -165 l 78 364 l 272 364 l 272 -165 z "},"§":{"ha":663,"x_min":42,"x_max":617,"o":"m 42 42 l 190 124 q 329 33 236 33 q 383 51 360 33 q 407 99 407 69 q 385 140 407 119 q 340 174 364 161 q 274 207 317 186 q 194 245 221 231 q 129 288 167 260 q 74 354 92 317 q 57 440 57 392 q 157 594 57 553 q 85 731 85 642 q 165 911 85 843 q 353 979 244 979 q 583 832 497 979 l 443 757 q 380 806 419 799 q 311 789 340 813 q 282 731 282 765 q 314 681 282 704 q 407 631 346 658 q 483 592 456 607 q 546 548 510 576 q 599 483 582 519 q 617 400 617 446 q 594 317 617 357 q 529 256 571 278 q 595 145 579 204 q 594 34 611 86 q 541 -60 578 -18 q 448 -128 504 -103 q 329 -153 392 -153 q 163 -102 242 -153 q 42 42 83 -51 m 290 385 l 401 332 q 443 380 440 354 q 426 425 446 406 q 369 461 406 444 l 369 463 l 296 504 q 232 447 232 475 q 290 385 232 415 z "},"¨":{"ha":546,"x_min":-19,"x_max":497,"o":"m -19 1153 q 12 1229 -19 1199 q 88 1260 43 1260 q 163 1228 131 1260 q 194 1153 194 1197 q 163 1079 194 1110 q 88 1049 131 1049 q 12 1079 43 1049 q -19 1153 -19 1110 m 282 1153 q 313 1229 282 1199 q 389 1260 343 1260 q 466 1229 435 1260 q 497 1153 497 1199 q 466 1078 497 1108 q 389 1049 435 1049 q 313 1078 343 1049 q 282 1153 282 1108 z "},"©":{"ha":1090,"x_min":46,"x_max":1043,"o":"m 192 135 q 119 209 192 135 q 46 488 46 282 q 193 840 46 693 q 546 986 340 986 q 897 840 751 986 q 1043 488 1043 693 q 897 135 1043 282 q 546 -11 751 -11 q 192 135 339 -11 m 293 740 q 241 688 293 740 q 189 488 189 636 q 293 235 189 339 q 546 131 397 131 q 797 235 693 131 q 900 488 900 339 q 797 740 900 636 q 546 843 693 843 q 293 740 397 843 m 279 561 l 279 407 q 358 236 279 296 q 546 176 438 176 q 710 219 635 176 q 811 353 786 263 l 678 403 q 640 344 668 367 q 576 317 611 321 q 508 321 542 314 q 451 351 475 328 q 424 406 428 374 l 424 563 q 451 617 428 594 q 508 647 475 640 q 576 651 542 654 q 640 624 611 647 q 678 565 668 601 l 808 615 q 709 749 783 706 q 546 792 635 792 q 358 732 438 792 q 279 561 279 672 z "},"ª":{"ha":531,"x_min":49,"x_max":464,"o":"m 136 797 l 58 869 q 209 972 111 951 q 385 941 307 992 q 464 788 464 890 l 464 464 q 322 438 389 443 q 190 442 256 432 q 87 498 125 453 q 49 619 49 543 q 76 717 49 678 q 145 771 104 757 q 232 788 186 785 q 314 776 278 792 q 245 835 311 831 q 136 797 179 839 m 304 563 l 304 654 q 238 658 275 669 q 199 615 200 647 q 233 565 199 576 q 304 563 267 553 z "},"«":{"ha":776,"x_min":33,"x_max":733,"o":"m 247 719 l 414 619 l 265 401 q 311 333 281 379 q 367 248 342 286 q 414 181 393 210 l 246 82 l 33 401 l 247 719 m 564 719 l 732 619 l 582 399 l 592 386 q 618 349 599 376 q 670 275 638 321 q 733 183 703 229 l 564 82 l 351 401 l 564 719 z "},"¬":{"ha":811,"x_min":63,"x_max":736,"o":"m 63 392 l 63 585 l 736 585 l 736 193 l 543 193 l 543 392 l 63 392 z "},"­":{"ha":557,"x_min":74,"x_max":483,"o":"m 483 439 l 483 243 l 74 243 l 74 439 l 483 439 z "},"®":{"ha":1090,"x_min":46,"x_max":1043,"o":"m 192 135 q 119 209 192 135 q 46 488 46 282 q 193 840 46 693 q 546 986 340 986 q 897 840 751 986 q 1043 488 1043 693 q 897 135 1043 282 q 546 -11 751 -11 q 192 135 339 -11 m 194 488 q 298 238 194 342 q 549 133 401 133 q 797 238 693 133 q 900 488 900 342 q 797 737 900 633 q 549 840 694 840 q 298 738 401 840 q 194 488 194 635 m 343 235 l 343 732 l 568 732 q 697 690 647 732 q 757 593 747 647 q 741 484 767 539 q 658 407 715 429 l 778 235 l 617 235 l 508 397 l 479 397 l 479 235 l 343 235 m 479 508 l 564 508 q 613 535 599 508 q 612 588 626 561 q 563 614 597 614 l 479 614 l 479 508 z "},"¯":{"ha":446,"x_min":13,"x_max":386,"o":"m 13 1078 l 13 1221 l 386 1221 l 386 1078 l 13 1078 z "},"°":{"ha":515,"x_min":40,"x_max":475,"o":"m 258 553 q 104 617 168 553 q 40 771 40 681 q 103 925 40 863 q 258 988 167 988 q 412 925 349 988 q 475 771 475 863 q 411 617 475 682 q 258 553 347 553 m 211 723 q 221 714 211 723 q 258 704 231 704 q 306 723 286 704 q 325 769 325 742 q 306 817 325 797 q 258 838 286 838 q 211 817 231 838 q 192 769 192 797 q 211 723 192 742 z "},"±":{"ha":747,"x_min":65,"x_max":683,"o":"m 275 668 l 275 867 l 469 867 l 469 668 l 682 668 l 682 474 l 469 474 l 469 276 l 275 276 l 275 474 l 67 474 l 67 668 l 275 668 m 683 204 l 683 11 l 65 11 l 65 204 l 683 204 z "},"²":{"ha":554,"x_min":47,"x_max":490,"o":"m 182 739 l 54 849 q 268 969 131 969 q 429 910 374 969 q 485 763 485 851 q 324 524 485 661 l 490 524 l 490 342 l 86 342 l 47 447 l 265 692 q 286 778 314 747 q 224 782 263 803 q 182 739 199 768 z "},"³":{"ha":532,"x_min":33,"x_max":489,"o":"m 189 739 l 258 739 q 289 768 285 739 q 263 814 293 803 l 242 817 q 171 782 196 814 l 65 871 q 149 942 111 919 q 238 968 186 965 q 347 944 296 971 q 424 876 397 918 q 445 781 451 835 q 392 682 439 728 q 467 610 446 657 q 477 514 489 563 q 431 426 465 465 q 297 353 378 368 q 142 372 217 338 q 33 478 68 406 l 160 557 q 208 520 175 529 q 269 524 242 511 q 296 565 296 538 q 285 590 296 578 q 260 600 275 601 l 189 600 l 189 739 z "},"´":{"ha":364,"x_min":76,"x_max":444,"o":"m 444 1247 l 265 1050 l 76 1050 l 208 1247 l 444 1247 z "},"µ":{"ha":724,"x_min":72,"x_max":654,"o":"m 482 -1 l 467 46 q 367 -13 435 -11 q 268 49 300 -15 l 268 -260 l 72 -260 l 72 717 l 269 717 l 269 281 q 316 190 269 215 q 408 192 363 165 q 454 278 454 218 l 454 717 l 651 717 l 654 -3 l 482 -1 z "},"¶":{"ha":901,"x_min":33,"x_max":818,"o":"m 342 -125 l 342 326 q 115 431 197 335 q 33 654 33 528 q 123 886 33 789 q 372 983 213 983 l 818 983 l 818 -125 l 622 -125 l 622 800 l 539 800 l 539 -125 l 342 -125 z "},"·":{"ha":346,"x_min":54,"x_max":292,"o":"m 54 426 q 88 513 54 478 q 175 547 122 547 q 258 513 225 547 q 292 426 292 478 q 258 342 292 376 q 175 308 225 308 q 88 342 122 308 q 54 426 54 376 z "},"¸":{"ha":349,"x_min":-33,"x_max":317,"o":"m -33 -281 l 6 -192 q 90 -219 53 -222 q 136 -185 126 -215 q 120 -137 144 -158 q 33 -117 96 -117 l 97 10 l 236 10 l 200 -68 q 291 -126 265 -74 q 293 -240 317 -178 q 168 -336 264 -318 q -33 -281 72 -354 z "},"¹":{"ha":417,"x_min":17,"x_max":340,"o":"m 86 694 l 17 792 l 192 982 l 340 982 l 340 369 l 154 369 l 154 733 l 86 694 z "},"º":{"ha":583,"x_min":53,"x_max":531,"o":"m 459 469 q 423 441 459 469 q 292 414 388 414 q 124 469 196 414 q 53 621 53 524 l 53 788 q 124 940 53 885 q 292 994 196 994 q 459 940 388 994 q 531 788 531 885 l 531 621 q 459 469 531 524 m 240 788 l 240 621 q 266 579 240 592 q 317 578 292 567 q 343 621 343 590 l 343 786 q 317 830 343 817 q 266 831 292 843 q 240 788 240 818 z "},"»":{"ha":771,"x_min":42,"x_max":738,"o":"m 211 83 l 42 181 l 193 400 l 44 619 l 210 719 l 424 401 l 211 83 m 524 82 l 357 183 l 506 401 q 357 621 374 597 l 525 719 l 738 401 l 524 82 z "},"¼":{"ha":1154,"x_min":29,"x_max":1107,"o":"m 915 901 l 329 -62 l 167 35 l 753 999 l 915 901 m 353 378 l 353 990 l 204 990 l 29 800 l 99 703 l 167 742 l 167 378 l 353 378 m 1057 650 l 900 650 l 567 246 l 647 121 l 871 121 l 871 0 l 1057 0 l 1057 121 l 1107 121 l 1107 283 l 1057 283 l 1057 650 m 888 278 l 771 278 l 885 408 l 890 407 l 888 278 z "},"½":{"ha":1193,"x_min":29,"x_max":1140,"o":"m 925 901 l 338 -62 l 178 36 l 764 999 l 925 901 m 353 378 l 353 990 l 204 990 l 29 800 l 99 703 l 167 742 l 167 378 l 353 378 m 704 490 l 831 385 q 906 433 861 438 q 939 401 938 431 q 910 339 940 374 l 697 103 l 736 0 l 1140 0 l 1140 176 l 985 176 l 1067 251 q 1138 403 1138 311 q 1076 547 1138 488 q 915 607 1014 607 q 704 490 779 607 z "},"¾":{"ha":1194,"x_min":32,"x_max":1153,"o":"m 996 901 l 410 -62 l 253 36 l 839 999 l 996 901 m 194 608 l 269 608 q 297 598 286 610 q 307 572 307 586 q 278 530 307 543 q 215 526 250 517 q 164 564 179 535 l 32 483 q 146 374 68 408 q 308 354 224 339 q 449 431 393 369 q 497 521 485 471 q 486 619 508 571 q 407 693 464 667 q 464 794 457 739 q 442 892 471 850 q 360 963 414 935 q 246 988 307 990 q 152 961 192 985 q 65 888 113 938 l 176 796 q 250 832 203 829 q 299 797 292 833 q 281 754 304 767 q 268 751 275 751 l 194 751 l 194 608 m 958 628 l 636 238 l 714 117 l 940 117 l 940 0 l 1104 0 l 1104 117 l 1153 117 l 1153 274 l 1104 274 l 1104 628 l 958 628 m 833 268 l 943 394 l 949 393 l 946 268 l 833 268 z "},"¿":{"ha":658,"x_min":28,"x_max":633,"o":"m 479 624 q 447 545 479 576 q 369 514 415 514 q 292 545 324 514 q 260 624 260 576 q 292 701 260 669 q 369 733 324 733 q 447 701 415 733 q 479 624 479 669 m 508 -25 l 633 -131 q 356 -278 521 -278 q 194 -240 265 -278 q 85 -142 122 -201 q 38 -13 47 -83 q 49 120 28 57 q 131 231 71 183 q 278 292 190 279 l 292 449 l 460 449 l 472 161 q 386 171 433 171 q 255 101 294 171 q 255 -36 215 31 q 390 -94 294 -103 q 508 -25 464 -87 z "},"À":{"ha":881,"x_min":-4,"x_max":889,"o":"m 565 1050 l 385 1050 l 222 1247 l 450 1247 l 565 1050 m 536 983 l 889 0 l 675 0 l 589 225 l 296 225 l 214 0 l -4 0 l 340 983 l 536 983 m 403 625 l 347 413 l 536 413 l 474 626 l 443 767 l 433 767 l 403 625 z "},"Á":{"ha":881,"x_min":-4,"x_max":889,"o":"m 686 1247 l 507 1050 l 318 1050 l 450 1247 l 686 1247 m 536 983 l 889 0 l 675 0 l 589 225 l 296 225 l 214 0 l -4 0 l 340 983 l 536 983 m 403 625 l 347 413 l 536 413 l 474 626 l 443 767 l 433 767 l 403 625 z "},"Â":{"ha":881,"x_min":-4,"x_max":889,"o":"m 711 1050 l 488 1050 l 438 1107 l 388 1050 l 169 1050 l 358 1247 l 519 1247 l 711 1050 m 536 983 l 889 0 l 675 0 l 589 225 l 296 225 l 214 0 l -4 0 l 340 983 l 536 983 m 403 625 l 347 413 l 536 413 l 474 626 l 443 767 l 433 767 l 403 625 z "},"Ã":{"ha":881,"x_min":-4,"x_max":889,"o":"m 308 1060 l 207 1111 q 263 1220 219 1179 q 356 1261 307 1261 q 408 1251 379 1261 q 457 1230 436 1240 q 498 1213 478 1219 q 535 1214 518 1206 q 563 1249 551 1222 l 663 1199 q 603 1088 638 1122 q 519 1054 569 1054 q 459 1069 493 1054 q 402 1097 425 1085 q 353 1103 379 1110 q 308 1060 328 1097 m 536 983 l 889 0 l 675 0 l 589 225 l 296 225 l 214 0 l -4 0 l 340 983 l 536 983 m 403 625 l 347 413 l 536 413 l 474 626 l 443 767 l 433 767 l 403 625 z "},"Ä":{"ha":881,"x_min":-4,"x_max":889,"o":"m 181 1153 q 212 1229 181 1199 q 288 1260 243 1260 q 363 1228 331 1260 q 394 1153 394 1197 q 363 1079 394 1110 q 288 1049 331 1049 q 212 1079 243 1049 q 181 1153 181 1110 m 482 1153 q 513 1229 482 1199 q 589 1260 543 1260 q 666 1229 635 1260 q 697 1153 697 1199 q 666 1078 697 1108 q 589 1049 635 1049 q 513 1078 543 1049 q 482 1153 482 1108 m 536 983 l 889 0 l 675 0 l 589 225 l 296 225 l 214 0 l -4 0 l 340 983 l 536 983 m 403 625 l 347 413 l 536 413 l 474 626 l 443 767 l 433 767 l 403 625 z "},"Å":{"ha":881,"x_min":-4,"x_max":889,"o":"m 675 0 l 589 225 l 296 225 l 214 0 l -4 0 l 332 960 q 267 1093 267 1011 q 318 1215 267 1164 q 440 1265 369 1265 q 560 1213 511 1265 q 608 1092 608 1160 q 544 960 608 1013 l 889 0 l 675 0 m 440 1163 q 388 1142 408 1163 q 367 1092 367 1122 q 389 1045 367 1067 q 440 1024 411 1024 q 488 1043 468 1024 q 508 1092 508 1063 q 488 1142 508 1122 q 440 1163 468 1163 m 474 626 l 443 767 l 433 767 l 403 625 l 347 413 l 536 413 l 474 626 z "},"Æ":{"ha":1147,"x_min":-19,"x_max":1090,"o":"m 1090 778 l 729 778 l 729 593 l 1054 593 l 1054 389 l 729 389 l 729 203 l 1090 203 l 1090 0 l 539 0 l 539 283 l 356 283 l 225 0 l -19 0 l 485 983 l 1090 983 l 1090 778 m 440 479 l 550 479 l 551 721 l 536 722 l 440 479 z "},"Ç":{"ha":811,"x_min":61,"x_max":797,"o":"m 621 290 l 797 192 q 510 -8 693 22 l 481 -71 q 572 -128 546 -76 q 574 -243 597 -181 q 449 -339 544 -321 q 247 -283 353 -357 l 286 -194 q 370 -222 333 -225 q 417 -187 407 -218 q 401 -140 425 -161 q 314 -119 376 -119 l 371 -8 q 150 96 239 13 q 61 313 61 179 l 61 671 q 176 910 61 824 q 447 997 290 997 q 647 943 551 997 q 789 786 742 889 l 625 697 q 544 777 597 750 q 432 803 492 804 q 313 765 363 801 q 264 671 264 729 l 264 313 q 312 219 264 254 q 428 183 360 185 q 540 209 486 182 q 621 290 593 236 z "},"È":{"ha":810,"x_min":86,"x_max":753,"o":"m 546 1050 l 365 1050 l 203 1247 l 431 1247 l 546 1050 m 292 785 l 292 592 l 715 592 l 715 393 l 292 393 l 292 199 l 753 199 l 753 0 l 86 0 l 86 985 l 753 985 l 753 785 l 292 785 z "},"É":{"ha":810,"x_min":86,"x_max":753,"o":"m 667 1247 l 488 1050 l 299 1050 l 431 1247 l 667 1247 m 292 785 l 292 592 l 715 592 l 715 393 l 292 393 l 292 199 l 753 199 l 753 0 l 86 0 l 86 985 l 753 985 l 753 785 l 292 785 z "},"Ê":{"ha":810,"x_min":86,"x_max":753,"o":"m 692 1050 l 468 1050 l 418 1107 l 368 1050 l 150 1050 l 339 1247 l 500 1247 l 692 1050 m 292 785 l 292 592 l 715 592 l 715 393 l 292 393 l 292 199 l 753 199 l 753 0 l 86 0 l 86 985 l 753 985 l 753 785 l 292 785 z "},"Ë":{"ha":810,"x_min":86,"x_max":753,"o":"m 161 1153 q 192 1229 161 1199 q 268 1260 224 1260 q 343 1228 311 1260 q 375 1153 375 1197 q 343 1079 375 1110 q 268 1049 311 1049 q 192 1079 224 1049 q 161 1153 161 1110 m 463 1153 q 493 1229 463 1199 q 569 1260 524 1260 q 647 1229 615 1260 q 678 1153 678 1199 q 647 1078 678 1108 q 569 1049 615 1049 q 493 1078 524 1049 q 463 1153 463 1108 m 292 785 l 292 592 l 715 592 l 715 393 l 292 393 l 292 199 l 753 199 l 753 0 l 86 0 l 86 985 l 753 985 l 753 785 l 292 785 z "},"Ì":{"ha":376,"x_min":-28,"x_max":315,"o":"m 315 1050 l 135 1050 l -28 1247 l 200 1247 l 315 1050 m 290 983 l 290 0 l 86 0 l 86 983 l 290 983 z "},"Í":{"ha":376,"x_min":68,"x_max":436,"o":"m 436 1247 l 257 1050 l 68 1050 l 200 1247 l 436 1247 m 290 983 l 290 0 l 86 0 l 86 983 l 290 983 z "},"Î":{"ha":376,"x_min":-81,"x_max":461,"o":"m 461 1050 l 238 1050 l 188 1107 l 138 1050 l -81 1050 l 108 1247 l 269 1247 l 461 1050 m 290 983 l 290 0 l 86 0 l 86 983 l 290 983 z "},"Ï":{"ha":376,"x_min":-69,"x_max":447,"o":"m -69 1153 q -38 1229 -69 1199 q 38 1260 -7 1260 q 113 1228 81 1260 q 144 1153 144 1197 q 113 1079 144 1110 q 38 1049 81 1049 q -38 1079 -7 1049 q -69 1153 -69 1110 m 232 1153 q 263 1229 232 1199 q 339 1260 293 1260 q 416 1229 385 1260 q 447 1153 447 1199 q 416 1078 447 1108 q 339 1049 385 1049 q 263 1078 293 1049 q 232 1153 232 1108 m 290 983 l 290 0 l 86 0 l 86 983 l 290 983 z "},"Ð":{"ha":894,"x_min":19,"x_max":832,"o":"m 97 575 l 97 983 l 489 983 q 738 905 643 983 q 832 668 832 826 l 832 314 q 738 78 832 156 q 489 0 643 0 l 97 0 l 97 397 l 19 397 l 19 575 l 97 575 m 303 206 l 489 206 q 628 314 628 206 l 628 668 q 489 778 628 778 l 303 778 l 303 575 l 467 575 l 467 397 l 303 397 l 303 206 z "},"Ñ":{"ha":943,"x_min":86,"x_max":857,"o":"m 342 1060 l 240 1111 q 297 1220 253 1179 q 389 1261 340 1261 q 441 1251 413 1261 q 490 1230 469 1240 q 531 1213 511 1219 q 568 1214 551 1206 q 596 1249 585 1222 l 696 1199 q 637 1088 671 1122 q 553 1054 603 1054 q 492 1069 526 1054 q 435 1097 458 1085 q 387 1103 413 1110 q 342 1060 361 1097 m 668 269 l 682 272 q 653 481 657 415 l 653 983 l 857 983 l 857 0 l 639 0 l 339 517 l 279 650 l 265 647 l 292 479 l 292 0 l 86 0 l 86 983 l 288 983 l 599 447 l 668 269 z "},"Ò":{"ha":925,"x_min":60,"x_max":865,"o":"m 589 1064 l 408 1064 l 246 1261 l 474 1261 l 589 1064 m 60 313 l 60 669 q 119 851 60 775 q 269 963 179 928 q 463 997 358 999 q 746 910 626 997 q 865 669 865 824 l 865 313 q 746 72 865 158 q 463 -15 626 -15 q 269 19 358 -15 q 119 131 179 54 q 60 313 60 208 m 263 669 l 263 313 q 322 222 263 254 q 463 189 381 189 q 603 222 544 190 q 661 313 661 254 l 661 669 q 601 763 661 729 q 461 794 542 796 q 322 761 382 794 q 263 669 263 728 z "},"Ó":{"ha":925,"x_min":60,"x_max":865,"o":"m 710 1261 l 531 1064 l 342 1064 l 474 1261 l 710 1261 m 60 313 l 60 669 q 119 851 60 775 q 269 963 179 928 q 463 997 358 999 q 746 910 626 997 q 865 669 865 824 l 865 313 q 746 72 865 158 q 463 -15 626 -15 q 269 19 358 -15 q 119 131 179 54 q 60 313 60 208 m 263 669 l 263 313 q 322 222 263 254 q 463 189 381 189 q 603 222 544 190 q 661 313 661 254 l 661 669 q 601 763 661 729 q 461 794 542 796 q 322 761 382 794 q 263 669 263 728 z "},"Ô":{"ha":925,"x_min":60,"x_max":865,"o":"m 735 1064 l 511 1064 l 461 1121 l 411 1064 l 193 1064 l 382 1261 l 543 1261 l 735 1064 m 60 313 l 60 669 q 119 851 60 775 q 269 963 179 928 q 463 997 358 999 q 746 910 626 997 q 865 669 865 824 l 865 313 q 746 72 865 158 q 463 -15 626 -15 q 269 19 358 -15 q 119 131 179 54 q 60 313 60 208 m 263 669 l 263 313 q 322 222 263 254 q 463 189 381 189 q 603 222 544 190 q 661 313 661 254 l 661 669 q 601 763 661 729 q 461 794 542 796 q 322 761 382 794 q 263 669 263 728 z "},"Õ":{"ha":925,"x_min":60,"x_max":865,"o":"m 332 1074 l 231 1125 q 287 1234 243 1193 q 379 1275 331 1275 q 431 1265 403 1275 q 481 1244 460 1254 q 522 1226 501 1233 q 558 1228 542 1219 q 586 1263 575 1236 l 686 1213 q 627 1102 661 1136 q 543 1068 593 1068 q 483 1083 517 1068 q 426 1111 449 1099 q 377 1117 403 1124 q 332 1074 351 1111 m 60 313 l 60 669 q 119 851 60 775 q 269 963 179 928 q 463 997 358 999 q 746 910 626 997 q 865 669 865 824 l 865 313 q 746 72 865 158 q 463 -15 626 -15 q 269 19 358 -15 q 119 131 179 54 q 60 313 60 208 m 263 669 l 263 313 q 322 222 263 254 q 463 189 381 189 q 603 222 544 190 q 661 313 661 254 l 661 669 q 601 763 661 729 q 461 794 542 796 q 322 761 382 794 q 263 669 263 728 z "},"Ö":{"ha":925,"x_min":60,"x_max":865,"o":"m 204 1167 q 235 1243 204 1213 q 311 1274 267 1274 q 386 1242 354 1274 q 418 1167 418 1211 q 386 1093 418 1124 q 311 1063 354 1063 q 235 1093 267 1063 q 204 1167 204 1124 m 506 1167 q 536 1243 506 1213 q 613 1274 567 1274 q 690 1243 658 1274 q 721 1167 721 1213 q 690 1092 721 1122 q 613 1063 658 1063 q 536 1092 567 1063 q 506 1167 506 1122 m 60 313 l 60 669 q 119 851 60 775 q 269 963 179 928 q 463 997 358 999 q 746 910 626 997 q 865 669 865 824 l 865 313 q 746 72 865 158 q 463 -15 626 -15 q 269 19 358 -15 q 119 131 179 54 q 60 313 60 208 m 263 669 l 263 313 q 322 222 263 254 q 463 189 381 189 q 603 222 544 190 q 661 313 661 254 l 661 669 q 601 763 661 729 q 461 794 542 796 q 322 761 382 794 q 263 669 263 728 z "},"×":{"ha":733,"x_min":44,"x_max":686,"o":"m 367 546 l 550 729 l 686 592 l 506 411 l 685 231 l 549 94 l 368 275 l 182 88 l 49 226 l 232 408 l 44 596 l 181 731 l 367 546 z "},"Ø":{"ha":925,"x_min":60,"x_max":865,"o":"m 761 1064 l 710 935 q 865 669 865 843 l 865 313 q 746 72 865 158 q 463 -15 626 -15 q 332 0 400 -15 l 285 -118 l 176 -75 l 224 42 q 60 313 60 135 l 60 669 q 119 851 60 775 q 269 963 179 928 q 463 997 358 999 q 600 979 536 997 l 650 1103 l 761 1064 m 263 669 l 263 313 q 301 235 263 267 l 524 789 q 461 794 497 794 q 322 761 382 794 q 263 669 263 728 m 661 313 l 661 669 q 631 740 661 713 l 410 193 q 463 189 435 189 q 603 222 544 190 q 661 313 661 254 z "},"Ù":{"ha":928,"x_min":78,"x_max":850,"o":"m 593 1050 l 413 1050 l 250 1247 l 478 1247 l 593 1050 m 283 983 l 283 324 q 336 222 283 258 q 463 186 389 186 q 592 222 539 186 q 644 324 644 258 l 644 983 l 850 983 l 850 324 q 736 75 850 164 q 463 -14 622 -14 q 192 75 306 -14 q 78 324 78 164 l 78 983 l 283 983 z "},"Ú":{"ha":928,"x_min":78,"x_max":850,"o":"m 714 1247 l 535 1050 l 346 1050 l 478 1247 l 714 1247 m 283 983 l 283 324 q 336 222 283 258 q 463 186 389 186 q 592 222 539 186 q 644 324 644 258 l 644 983 l 850 983 l 850 324 q 736 75 850 164 q 463 -14 622 -14 q 192 75 306 -14 q 78 324 78 164 l 78 983 l 283 983 z "},"Û":{"ha":928,"x_min":78,"x_max":850,"o":"m 739 1050 l 515 1050 l 465 1107 l 415 1050 l 197 1050 l 386 1247 l 547 1247 l 739 1050 m 283 983 l 283 324 q 336 222 283 258 q 463 186 389 186 q 592 222 539 186 q 644 324 644 258 l 644 983 l 850 983 l 850 324 q 736 75 850 164 q 463 -14 622 -14 q 192 75 306 -14 q 78 324 78 164 l 78 983 l 283 983 z "},"Ü":{"ha":928,"x_min":78,"x_max":850,"o":"m 208 1153 q 240 1229 208 1199 q 315 1260 271 1260 q 390 1228 358 1260 q 422 1153 422 1197 q 390 1079 422 1110 q 315 1049 358 1049 q 240 1079 271 1049 q 208 1153 208 1110 m 510 1153 q 540 1229 510 1199 q 617 1260 571 1260 q 694 1229 663 1260 q 725 1153 725 1199 q 694 1078 725 1108 q 617 1049 663 1049 q 540 1078 571 1049 q 510 1153 510 1108 m 283 983 l 283 324 q 336 222 283 258 q 463 186 389 186 q 592 222 539 186 q 644 324 644 258 l 644 983 l 850 983 l 850 324 q 736 75 850 164 q 463 -14 622 -14 q 192 75 306 -14 q 78 324 78 164 l 78 983 l 283 983 z "},"Ý":{"ha":872,"x_min":-8,"x_max":881,"o":"m 683 1247 l 504 1050 l 315 1050 l 447 1247 l 683 1247 m 538 0 l 333 0 l 333 376 l -8 983 l 226 983 l 435 572 l 643 983 l 881 983 l 538 376 l 538 0 z "},"Þ":{"ha":853,"x_min":86,"x_max":826,"o":"m 86 1 l 86 985 l 289 985 l 289 844 l 474 844 q 613 821 550 844 q 717 758 676 797 q 787 668 758 719 q 821 560 815 617 q 820 448 826 504 q 785 341 814 392 q 716 251 757 290 q 613 188 675 211 q 475 165 550 165 l 289 165 l 289 1 l 86 1 m 289 357 l 474 357 q 585 401 544 357 q 625 498 625 444 q 585 595 625 551 q 474 639 544 639 l 289 639 l 289 357 z "},"ß":{"ha":803,"x_min":74,"x_max":765,"o":"m 322 25 l 322 221 q 469 197 383 167 q 554 304 554 226 q 516 388 554 361 q 415 415 478 415 l 318 415 l 318 603 l 415 603 q 487 640 456 603 q 518 724 518 678 q 492 791 518 764 q 428 823 465 818 q 355 820 392 828 q 293 784 318 813 q 269 715 268 756 l 269 0 l 75 0 l 75 715 q 109 854 74 793 q 201 948 144 915 q 325 996 257 981 q 462 998 393 1011 q 588 954 531 985 q 680 863 644 924 q 715 724 715 801 q 614 518 715 592 q 728 411 692 479 q 760 272 765 343 q 717 136 756 200 q 547 12 660 43 q 322 25 435 -19 z "},"à":{"ha":672,"x_min":38,"x_max":607,"o":"m 475 800 l 294 800 l 132 997 l 360 997 l 475 800 m 38 214 q 112 390 38 331 q 293 449 186 449 q 421 426 357 449 l 421 478 q 310 578 421 578 q 228 558 271 578 q 158 511 185 539 l 64 613 q 324 733 167 731 q 524 667 442 733 q 607 478 607 601 l 607 39 q 336 -14 467 -14 q 113 47 188 -14 q 38 214 38 107 m 415 144 l 415 290 q 328 307 371 307 q 248 283 275 307 q 221 219 221 260 q 333 135 221 135 q 415 144 378 135 z "},"á":{"ha":672,"x_min":38,"x_max":607,"o":"m 596 997 l 417 800 l 228 800 l 360 997 l 596 997 m 38 214 q 112 390 38 331 q 293 449 186 449 q 421 426 357 449 l 421 478 q 310 578 421 578 q 228 558 271 578 q 158 511 185 539 l 64 613 q 324 733 167 731 q 524 667 442 733 q 607 478 607 601 l 607 39 q 336 -14 467 -14 q 113 47 188 -14 q 38 214 38 107 m 415 144 l 415 290 q 328 307 371 307 q 248 283 275 307 q 221 219 221 260 q 333 135 221 135 q 415 144 378 135 z "},"â":{"ha":672,"x_min":38,"x_max":607,"o":"m 607 800 l 383 800 l 333 857 l 283 800 l 65 800 l 254 997 l 415 997 l 607 800 m 38 214 q 112 390 38 331 q 293 449 186 449 q 421 426 357 449 l 421 478 q 310 578 421 578 q 228 558 271 578 q 158 511 185 539 l 64 613 q 324 733 167 731 q 524 667 442 733 q 607 478 607 601 l 607 39 q 336 -14 467 -14 q 113 47 188 -14 q 38 214 38 107 m 415 144 l 415 290 q 328 307 371 307 q 248 283 275 307 q 221 219 221 260 q 333 135 221 135 q 415 144 378 135 z "},"ã":{"ha":672,"x_min":38,"x_max":607,"o":"m 204 810 l 103 861 q 159 970 115 929 q 251 1011 203 1011 q 303 1001 275 1011 q 353 980 332 990 q 394 963 374 969 q 431 964 414 956 q 458 999 447 972 l 558 949 q 499 838 533 872 q 415 804 465 804 q 355 819 389 804 q 298 847 321 835 q 249 853 275 860 q 204 810 224 847 m 38 214 q 112 390 38 331 q 293 449 186 449 q 421 426 357 449 l 421 478 q 310 578 421 578 q 228 558 271 578 q 158 511 185 539 l 64 613 q 324 733 167 731 q 524 667 442 733 q 607 478 607 601 l 607 39 q 336 -14 467 -14 q 113 47 188 -14 q 38 214 38 107 m 415 144 l 415 290 q 328 307 371 307 q 248 283 275 307 q 221 219 221 260 q 333 135 221 135 q 415 144 378 135 z "},"ä":{"ha":672,"x_min":38,"x_max":607,"o":"m 85 903 q 116 979 85 949 q 192 1010 147 1010 q 267 978 235 1010 q 299 903 299 947 q 267 829 299 860 q 192 799 235 799 q 116 829 147 799 q 85 903 85 860 m 386 903 q 417 979 386 949 q 493 1010 447 1010 q 570 979 539 1010 q 601 903 601 949 q 570 828 601 858 q 493 799 539 799 q 417 828 447 799 q 386 903 386 858 m 38 214 q 112 390 38 331 q 293 449 186 449 q 421 426 357 449 l 421 478 q 310 578 421 578 q 228 558 271 578 q 158 511 185 539 l 64 613 q 324 733 167 731 q 524 667 442 733 q 607 478 607 601 l 607 39 q 336 -14 467 -14 q 113 47 188 -14 q 38 214 38 107 m 415 144 l 415 290 q 328 307 371 307 q 248 283 275 307 q 221 219 221 260 q 333 135 221 135 q 415 144 378 135 z "},"å":{"ha":672,"x_min":38,"x_max":607,"o":"m 333 1100 q 453 1051 410 1100 q 497 942 497 1001 q 453 833 497 882 q 333 783 410 783 q 209 833 254 783 q 164 942 164 882 q 209 1051 164 1001 q 333 1100 254 1100 m 333 1008 q 272 975 289 1008 q 273 908 254 942 q 333 875 292 875 q 392 908 375 875 q 392 975 408 942 q 333 1008 375 1008 m 38 214 q 112 390 38 331 q 293 449 186 449 q 421 426 357 449 l 421 478 q 310 578 421 578 q 228 558 271 578 q 158 511 185 539 l 64 613 q 324 733 167 731 q 524 667 442 733 q 607 478 607 601 l 607 39 q 336 -14 467 -14 q 113 47 188 -14 q 38 214 38 107 m 415 144 l 415 290 q 328 307 371 307 q 248 283 275 307 q 221 219 221 260 q 333 135 221 135 q 415 144 378 135 z "},"æ":{"ha":1008,"x_min":43,"x_max":963,"o":"m 814 199 l 933 115 q 700 -14 847 -14 q 507 74 574 -14 q 297 -14 415 -14 q 116 49 189 -12 q 43 225 43 111 q 106 399 43 331 q 292 467 168 467 q 421 444 378 467 q 390 547 425 514 q 297 579 356 579 q 147 518 204 579 l 53 606 q 168 700 97 667 q 317 733 239 733 q 514 668 431 733 q 694 733 582 733 q 885 667 807 733 q 963 476 963 600 l 963 279 l 588 279 l 588 242 q 623 168 588 193 q 707 143 658 143 q 814 199 779 143 m 794 419 l 794 485 q 763 544 794 522 q 690 567 732 567 q 618 544 649 567 q 588 483 588 521 l 588 419 l 794 419 m 418 306 q 315 318 381 321 q 235 290 264 317 q 207 228 207 264 q 237 160 207 185 q 322 135 267 135 q 428 163 399 135 q 418 306 415 218 z "},"ç":{"ha":650,"x_min":56,"x_max":625,"o":"m 456 238 l 625 182 q 415 -6 572 28 l 385 -71 q 473 -126 449 -76 q 475 -236 497 -176 q 355 -328 447 -311 q 161 -275 263 -346 l 199 -190 q 280 -216 244 -219 q 324 -183 315 -212 q 308 -138 332 -158 q 225 -118 285 -118 l 281 -8 q 119 74 183 10 q 56 240 56 138 l 56 478 q 142 666 56 599 q 344 733 228 733 q 513 687 435 733 q 617 539 590 640 l 451 488 q 410 542 440 524 q 344 560 381 560 q 277 538 306 560 q 249 479 249 515 l 249 242 q 277 182 249 204 q 344 160 306 160 q 412 179 381 160 q 456 238 443 199 z "},"è":{"ha":672,"x_min":56,"x_max":626,"o":"m 472 800 l 292 800 l 129 997 l 357 997 l 472 800 m 471 214 l 597 122 q 489 19 558 51 q 346 -14 419 -14 q 142 53 228 -14 q 56 242 56 121 l 56 479 q 142 667 56 601 q 349 733 229 733 q 546 672 465 733 q 626 488 626 610 l 626 276 l 250 276 l 250 244 q 282 182 250 204 q 358 160 314 160 q 471 214 438 160 m 444 419 l 444 485 q 417 540 444 521 q 350 560 389 560 q 280 540 310 560 q 250 483 250 519 l 250 419 l 444 419 z "},"é":{"ha":672,"x_min":56,"x_max":626,"o":"m 593 997 l 414 800 l 225 800 l 357 997 l 593 997 m 471 214 l 597 122 q 489 19 558 51 q 346 -14 419 -14 q 142 53 228 -14 q 56 242 56 121 l 56 479 q 142 667 56 601 q 349 733 229 733 q 546 672 465 733 q 626 488 626 610 l 626 276 l 250 276 l 250 244 q 282 182 250 204 q 358 160 314 160 q 471 214 438 160 m 444 419 l 444 485 q 417 540 444 521 q 350 560 389 560 q 280 540 310 560 q 250 483 250 519 l 250 419 l 444 419 z "},"ê":{"ha":672,"x_min":56,"x_max":626,"o":"m 618 800 l 394 800 l 344 857 l 294 800 l 76 800 l 265 997 l 426 997 l 618 800 m 471 214 l 597 122 q 489 19 558 51 q 346 -14 419 -14 q 142 53 228 -14 q 56 242 56 121 l 56 479 q 142 667 56 601 q 349 733 229 733 q 546 672 465 733 q 626 488 626 610 l 626 276 l 250 276 l 250 244 q 282 182 250 204 q 358 160 314 160 q 471 214 438 160 m 444 419 l 444 485 q 417 540 444 521 q 350 560 389 560 q 280 540 310 560 q 250 483 250 519 l 250 419 l 444 419 z "},"ë":{"ha":672,"x_min":56,"x_max":626,"o":"m 88 903 q 119 979 88 949 q 194 1010 150 1010 q 269 978 238 1010 q 301 903 301 947 q 269 829 301 860 q 194 799 238 799 q 119 829 150 799 q 88 903 88 860 m 389 903 q 419 979 389 949 q 496 1010 450 1010 q 573 979 542 1010 q 604 903 604 949 q 573 828 604 858 q 496 799 542 799 q 419 828 450 799 q 389 903 389 858 m 471 214 l 597 122 q 489 19 558 51 q 346 -14 419 -14 q 142 53 228 -14 q 56 242 56 121 l 56 479 q 142 667 56 601 q 349 733 229 733 q 546 672 465 733 q 626 488 626 610 l 626 276 l 250 276 l 250 244 q 282 182 250 204 q 358 160 314 160 q 471 214 438 160 m 444 419 l 444 485 q 417 540 444 521 q 350 560 389 560 q 280 540 310 560 q 250 483 250 519 l 250 419 l 444 419 z "},"ì":{"ha":346,"x_min":-43,"x_max":300,"o":"m 300 786 l 119 786 l -43 983 l 185 983 l 300 786 m 272 718 l 272 0 l 75 0 l 75 718 l 272 718 z "},"í":{"ha":347,"x_min":53,"x_max":421,"o":"m 421 983 l 242 786 l 53 786 l 185 983 l 421 983 m 272 718 l 272 0 l 75 0 l 75 718 l 272 718 z "},"î":{"ha":347,"x_min":-68,"x_max":418,"o":"m 418 786 l 221 786 l 172 849 l 125 786 l -68 786 l 93 983 l 254 983 l 418 786 m 272 718 l 272 0 l 75 0 l 75 718 l 272 718 z "},"ï":{"ha":347,"x_min":-71,"x_max":418,"o":"m -71 876 q -40 953 -71 922 q 36 983 -8 983 q 111 952 79 983 q 143 876 143 921 q 111 803 143 833 q 36 772 79 772 q -40 803 -8 772 q -71 876 -71 833 m 203 876 q 233 953 203 922 q 310 983 264 983 q 387 953 356 983 q 418 876 418 922 q 387 802 418 832 q 310 772 356 772 q 233 802 264 772 q 203 876 203 832 m 272 718 l 272 0 l 75 0 l 75 718 l 272 718 z "},"ð":{"ha":701,"x_min":57,"x_max":629,"o":"m 468 1046 l 444 974 q 577 872 525 943 q 629 700 629 800 l 629 51 q 364 -14 499 -14 q 144 46 232 -14 q 57 232 57 106 l 57 503 q 92 628 57 575 q 183 706 128 682 q 305 736 238 731 q 438 717 372 742 q 390 813 438 779 l 375 767 l 293 786 l 308 835 q 176 782 224 835 l 83 881 q 206 967 132 938 q 356 990 279 997 l 360 990 l 385 1067 l 468 1046 m 435 154 l 435 563 q 350 583 401 583 q 274 562 306 583 q 243 500 243 540 l 243 233 q 276 163 243 186 q 358 139 310 139 q 435 154 397 139 z "},"ñ":{"ha":715,"x_min":74,"x_max":647,"o":"m 231 810 l 129 861 q 185 970 142 929 q 278 1011 229 1011 q 330 1001 301 1011 q 379 980 358 990 q 420 963 400 969 q 457 964 440 956 q 485 999 474 972 l 585 949 q 526 838 560 872 q 442 804 492 804 q 381 819 415 804 q 324 847 347 835 q 276 853 301 860 q 231 810 250 847 m 74 0 l 74 671 q 333 733 201 733 q 488 708 419 733 q 601 622 556 683 q 647 471 647 561 l 647 0 l 456 0 l 456 464 q 424 535 456 511 q 346 560 392 560 q 267 540 301 560 l 267 0 l 74 0 z "},"ò":{"ha":686,"x_min":56,"x_max":632,"o":"m 471 786 l 290 786 l 128 983 l 356 983 l 471 786 m 56 242 l 56 476 q 141 665 56 597 q 344 733 226 732 q 547 665 461 732 q 632 476 632 597 l 632 242 q 547 53 632 119 q 344 -14 463 -12 q 141 53 226 -12 q 56 242 56 119 m 344 560 q 278 540 307 560 q 249 489 249 521 l 249 238 q 278 182 249 204 q 344 160 308 160 q 409 182 379 160 q 439 238 439 204 l 439 489 q 410 540 439 521 q 344 560 381 560 z "},"ó":{"ha":686,"x_min":56,"x_max":632,"o":"m 592 983 l 413 786 l 224 786 l 356 983 l 592 983 m 56 242 l 56 476 q 141 665 56 597 q 344 733 226 732 q 547 665 461 732 q 632 476 632 597 l 632 242 q 547 53 632 119 q 344 -14 463 -12 q 141 53 226 -12 q 56 242 56 119 m 344 560 q 278 540 307 560 q 249 489 249 521 l 249 238 q 278 182 249 204 q 344 160 308 160 q 409 182 379 160 q 439 238 439 204 l 439 489 q 410 540 439 521 q 344 560 381 560 z "},"ô":{"ha":686,"x_min":56,"x_max":632,"o":"m 617 786 l 393 786 l 343 843 l 293 786 l 75 786 l 264 983 l 425 983 l 617 786 m 56 242 l 56 476 q 141 665 56 597 q 344 733 226 732 q 547 665 461 732 q 632 476 632 597 l 632 242 q 547 53 632 119 q 344 -14 463 -12 q 141 53 226 -12 q 56 242 56 119 m 344 560 q 278 540 307 560 q 249 489 249 521 l 249 238 q 278 182 249 204 q 344 160 308 160 q 409 182 379 160 q 439 238 439 204 l 439 489 q 410 540 439 521 q 344 560 381 560 z "},"õ":{"ha":686,"x_min":56,"x_max":632,"o":"m 214 796 l 113 847 q 169 956 125 915 q 261 997 213 997 q 313 987 285 997 q 363 966 342 976 q 403 949 383 956 q 440 950 424 942 q 468 985 457 958 l 568 935 q 509 824 543 858 q 425 790 475 790 q 365 806 399 790 q 308 833 331 821 q 259 840 285 846 q 214 796 233 833 m 56 242 l 56 476 q 141 665 56 597 q 344 733 226 732 q 547 665 461 732 q 632 476 632 597 l 632 242 q 547 53 632 119 q 344 -14 463 -12 q 141 53 226 -12 q 56 242 56 119 m 344 560 q 278 540 307 560 q 249 489 249 521 l 249 238 q 278 182 249 204 q 344 160 308 160 q 409 182 379 160 q 439 238 439 204 l 439 489 q 410 540 439 521 q 344 560 381 560 z "},"ö":{"ha":686,"x_min":56,"x_max":632,"o":"m 86 889 q 117 965 86 935 q 193 996 149 996 q 268 965 236 996 q 300 889 300 933 q 268 815 300 846 q 193 785 236 785 q 117 815 149 785 q 86 889 86 846 m 388 889 q 418 965 388 935 q 494 996 449 996 q 572 965 540 996 q 603 889 603 935 q 572 815 603 844 q 494 785 540 785 q 418 815 449 785 q 388 889 388 844 m 56 242 l 56 476 q 141 665 56 597 q 344 733 226 732 q 547 665 461 732 q 632 476 632 597 l 632 242 q 547 53 632 119 q 344 -14 463 -12 q 141 53 226 -12 q 56 242 56 119 m 344 560 q 278 540 307 560 q 249 489 249 521 l 249 238 q 278 182 249 204 q 344 160 308 160 q 409 182 379 160 q 439 238 439 204 l 439 489 q 410 540 439 521 q 344 560 381 560 z "},"÷":{"ha":708,"x_min":43,"x_max":667,"o":"m 232 694 q 268 780 232 744 q 354 815 304 815 q 441 780 404 815 q 478 694 478 744 q 441 606 478 643 q 354 569 404 569 q 268 606 304 569 q 232 694 232 643 m 667 528 l 667 343 l 43 343 l 43 528 l 667 528 m 236 178 q 272 264 236 231 q 360 299 307 297 q 447 264 411 299 q 483 178 483 229 q 447 90 483 126 q 361 54 411 54 q 273 90 310 54 q 236 178 236 126 z "},"ø":{"ha":686,"x_min":56,"x_max":632,"o":"m 561 771 l 525 681 q 632 476 632 608 l 632 242 q 547 53 632 119 q 344 -14 463 -12 q 256 -3 303 -14 l 218 -97 l 124 -58 l 163 38 q 56 242 56 107 l 56 476 q 141 665 56 597 q 344 733 226 732 q 433 721 392 733 l 468 807 l 561 771 m 249 256 l 368 557 q 344 560 354 560 q 278 540 307 560 q 249 489 249 521 l 249 256 m 344 160 q 409 182 379 160 q 439 238 439 204 l 439 461 l 321 163 q 344 160 338 160 z "},"ù":{"ha":717,"x_min":69,"x_max":644,"o":"m 483 786 l 303 786 l 140 983 l 368 983 l 483 786 m 644 719 l 644 39 q 372 -14 497 -14 q 154 49 239 -14 q 69 253 69 111 l 69 719 l 263 719 l 263 264 q 297 175 263 204 q 383 146 331 146 q 453 158 419 146 l 453 719 l 644 719 z "},"ú":{"ha":717,"x_min":69,"x_max":644,"o":"m 604 983 l 425 786 l 236 786 l 368 983 l 604 983 m 644 719 l 644 39 q 372 -14 497 -14 q 154 49 239 -14 q 69 253 69 111 l 69 719 l 263 719 l 263 264 q 297 175 263 204 q 383 146 331 146 q 453 158 419 146 l 453 719 l 644 719 z "},"û":{"ha":717,"x_min":69,"x_max":644,"o":"m 629 786 l 406 786 l 356 843 l 306 786 l 88 786 l 276 983 l 438 983 l 629 786 m 644 719 l 644 39 q 372 -14 497 -14 q 154 49 239 -14 q 69 253 69 111 l 69 719 l 263 719 l 263 264 q 297 175 263 204 q 383 146 331 146 q 453 158 419 146 l 453 719 l 644 719 z "},"ü":{"ha":717,"x_min":69,"x_max":644,"o":"m 99 889 q 130 965 99 935 q 206 996 161 996 q 281 965 249 996 q 313 889 313 933 q 281 815 313 846 q 206 785 249 785 q 130 815 161 785 q 99 889 99 846 m 400 889 q 431 965 400 935 q 507 996 461 996 q 584 965 553 996 q 615 889 615 935 q 584 815 615 844 q 507 785 553 785 q 431 815 461 785 q 400 889 400 844 m 644 719 l 644 39 q 372 -14 497 -14 q 154 49 239 -14 q 69 253 69 111 l 69 719 l 263 719 l 263 264 q 297 175 263 204 q 383 146 331 146 q 453 158 419 146 l 453 719 l 644 719 z "},"ý":{"ha":718,"x_min":71,"x_max":643,"o":"m 604 983 l 425 786 l 236 786 l 368 983 l 604 983 m 643 719 l 643 6 q 560 -208 643 -133 q 344 -283 478 -283 q 93 -187 189 -283 l 185 -67 q 322 -119 240 -119 q 423 -89 388 -119 q 457 10 458 -58 q 335 -14 386 -14 q 142 48 214 -14 q 71 224 71 110 l 71 719 l 257 719 l 257 226 q 368 142 257 142 q 449 164 410 142 l 449 719 l 643 719 z "},"þ":{"ha":710,"x_min":75,"x_max":653,"o":"m 268 983 l 268 710 q 374 733 311 733 q 653 489 653 733 l 653 240 q 569 51 653 117 q 368 -14 485 -14 q 268 11 314 -14 l 268 -237 l 75 -237 l 75 983 l 268 983 m 268 557 l 268 167 q 350 146 300 146 q 428 170 396 146 q 460 242 460 194 l 460 483 q 429 553 460 528 q 356 578 399 578 q 268 557 306 578 z "},"ÿ":{"ha":718,"x_min":71,"x_max":643,"o":"m 99 889 q 130 965 99 935 q 206 996 161 996 q 281 965 249 996 q 313 889 313 933 q 281 815 313 846 q 206 785 249 785 q 130 815 161 785 q 99 889 99 846 m 400 889 q 431 965 400 935 q 507 996 461 996 q 584 965 553 996 q 615 889 615 935 q 584 815 615 844 q 507 785 553 785 q 431 815 461 785 q 400 889 400 844 m 643 719 l 643 6 q 560 -208 643 -133 q 344 -283 478 -283 q 93 -187 189 -283 l 185 -67 q 322 -119 240 -119 q 423 -89 388 -119 q 457 10 458 -58 q 335 -14 386 -14 q 142 48 214 -14 q 71 224 71 110 l 71 719 l 257 719 l 257 226 q 368 142 257 142 q 449 164 410 142 l 449 719 l 643 719 z "},"Ā":{"ha":881,"x_min":-4,"x_max":889,"o":"m 251 1078 l 251 1221 l 625 1221 l 625 1078 l 251 1078 m 536 983 l 889 0 l 675 0 l 589 225 l 296 225 l 214 0 l -4 0 l 340 983 l 536 983 m 403 625 l 347 413 l 536 413 l 474 626 l 443 767 l 433 767 l 403 625 z "},"ā":{"ha":672,"x_min":38,"x_max":607,"o":"m 161 828 l 161 971 l 535 971 l 535 828 l 161 828 m 38 214 q 112 390 38 331 q 293 449 186 449 q 421 426 357 449 l 421 478 q 310 578 421 578 q 228 558 271 578 q 158 511 185 539 l 64 613 q 324 733 167 731 q 524 667 442 733 q 607 478 607 601 l 607 39 q 336 -14 467 -14 q 113 47 188 -14 q 38 214 38 107 m 415 144 l 415 290 q 328 307 371 307 q 248 283 275 307 q 221 219 221 260 q 333 135 221 135 q 415 144 378 135 z "},"Ă":{"ha":881,"x_min":-4,"x_max":889,"o":"m 499 1247 l 660 1247 q 635 1146 660 1190 q 572 1078 611 1101 q 486 1045 533 1056 q 391 1045 439 1035 q 304 1078 343 1056 q 241 1146 265 1101 q 217 1247 217 1190 l 385 1247 q 413 1199 385 1213 q 470 1199 442 1185 q 499 1247 499 1213 m 536 983 l 889 0 l 675 0 l 589 225 l 296 225 l 214 0 l -4 0 l 340 983 l 536 983 m 403 625 l 347 413 l 536 413 l 474 626 l 443 767 l 433 767 l 403 625 z "},"ă":{"ha":672,"x_min":38,"x_max":607,"o":"m 392 997 l 553 997 q 528 896 553 940 q 465 828 504 851 q 378 795 426 806 q 283 795 331 785 q 197 828 236 806 q 134 896 158 851 q 110 997 110 940 l 278 997 q 306 949 278 963 q 363 949 335 935 q 392 997 392 963 m 38 214 q 112 390 38 331 q 293 449 186 449 q 421 426 357 449 l 421 478 q 310 578 421 578 q 228 558 271 578 q 158 511 185 539 l 64 613 q 324 733 167 731 q 524 667 442 733 q 607 478 607 601 l 607 39 q 336 -14 467 -14 q 113 47 188 -14 q 38 214 38 107 m 415 144 l 415 290 q 328 307 371 307 q 248 283 275 307 q 221 219 221 260 q 333 135 221 135 q 415 144 378 135 z "},"Ą":{"ha":881,"x_min":-4,"x_max":982,"o":"m 924 -156 l 982 -244 q 814 -328 903 -328 q 681 -273 721 -328 q 663 -141 642 -218 q 754 0 685 -64 l 675 0 l 589 225 l 296 225 l 214 0 l -4 0 l 340 983 l 536 983 l 889 0 q 826 -151 800 -101 q 874 -174 840 -174 q 924 -156 901 -174 m 474 626 l 443 767 l 433 767 l 403 625 l 347 413 l 536 413 l 474 626 z "},"ą":{"ha":675,"x_min":38,"x_max":676,"o":"m 38 214 q 112 390 38 331 q 293 449 186 449 q 421 426 357 449 l 421 478 q 310 578 421 578 q 228 558 271 578 q 158 511 185 539 l 64 613 q 324 733 167 731 q 524 667 442 733 q 607 478 607 601 l 607 17 q 525 -146 511 -90 q 568 -174 532 -174 q 618 -156 596 -174 l 676 -244 q 508 -328 597 -328 q 378 -276 418 -328 q 356 -150 339 -224 q 435 -12 372 -76 l 432 -7 q 336 -14 376 -14 q 113 47 188 -14 q 38 214 38 107 m 415 144 l 415 290 q 328 307 371 307 q 248 283 275 307 q 221 219 221 260 q 333 135 221 135 q 415 144 378 135 z "},"Ć":{"ha":811,"x_min":61,"x_max":797,"o":"m 682 1247 l 503 1050 l 314 1050 l 446 1247 l 682 1247 m 621 290 l 797 192 q 642 39 736 92 q 447 -14 549 -14 q 176 73 292 -14 q 61 313 61 160 l 61 671 q 176 910 61 824 q 447 997 290 997 q 647 943 551 997 q 789 786 742 889 l 625 697 q 544 777 597 750 q 432 803 492 804 q 313 765 363 801 q 264 671 264 729 l 264 313 q 312 219 264 254 q 428 183 360 185 q 540 209 486 182 q 621 290 593 236 z "},"ć":{"ha":650,"x_min":56,"x_max":625,"o":"m 592 983 l 413 786 l 224 786 l 356 983 l 592 983 m 456 238 l 625 182 q 512 33 590 81 q 344 -14 433 -14 q 142 53 228 -14 q 56 240 56 119 l 56 478 q 142 666 56 599 q 344 733 228 733 q 513 687 435 733 q 617 539 590 640 l 451 488 q 410 542 440 524 q 344 560 381 560 q 277 538 306 560 q 249 479 249 515 l 249 242 q 277 182 249 204 q 344 160 306 160 q 412 179 381 160 q 456 238 443 199 z "},"Ċ":{"ha":811,"x_min":61,"x_max":797,"o":"m 315 1163 q 350 1244 315 1211 q 435 1278 385 1278 q 518 1244 485 1278 q 551 1163 551 1211 q 518 1081 551 1113 q 435 1049 485 1049 q 350 1081 385 1049 q 315 1163 315 1113 m 621 290 l 797 192 q 642 39 736 92 q 447 -14 549 -14 q 176 73 292 -14 q 61 313 61 160 l 61 671 q 176 910 61 824 q 447 997 290 997 q 647 943 551 997 q 789 786 742 889 l 625 697 q 544 777 597 750 q 432 803 492 804 q 313 765 363 801 q 264 671 264 729 l 264 313 q 312 219 264 254 q 428 183 360 185 q 540 209 486 182 q 621 290 593 236 z "},"ċ":{"ha":650,"x_min":56,"x_max":625,"o":"m 256 821 q 239 838 256 821 q 221 906 221 854 q 256 991 221 957 q 344 1025 292 1025 q 432 991 397 1025 q 467 906 467 957 q 432 821 467 854 q 344 788 397 788 q 256 821 292 788 m 456 238 l 625 182 q 512 33 590 81 q 344 -14 433 -14 q 142 53 228 -14 q 56 240 56 119 l 56 478 q 142 666 56 599 q 344 733 228 733 q 513 687 435 733 q 617 539 590 640 l 451 488 q 410 542 440 524 q 344 560 381 560 q 277 538 306 560 q 249 479 249 515 l 249 242 q 277 182 249 204 q 344 160 306 160 q 412 179 381 160 q 456 238 443 199 z "},"Č":{"ha":811,"x_min":61,"x_max":797,"o":"m 358 1050 l 169 1247 l 388 1247 l 438 1190 l 488 1247 l 711 1247 l 519 1050 l 358 1050 m 621 290 l 797 192 q 642 39 736 92 q 447 -14 549 -14 q 176 73 292 -14 q 61 313 61 160 l 61 671 q 176 910 61 824 q 447 997 290 997 q 647 943 551 997 q 789 786 742 889 l 625 697 q 544 777 597 750 q 432 803 492 804 q 313 765 363 801 q 264 671 264 729 l 264 313 q 312 219 264 254 q 428 183 360 185 q 540 209 486 182 q 621 290 593 236 z "},"č":{"ha":650,"x_min":56,"x_max":625,"o":"m 268 786 l 79 983 l 297 983 l 347 926 l 397 983 l 621 983 l 429 786 l 268 786 m 456 238 l 625 182 q 512 33 590 81 q 344 -14 433 -14 q 142 53 228 -14 q 56 240 56 119 l 56 478 q 142 666 56 599 q 344 733 228 733 q 513 687 435 733 q 617 539 590 640 l 451 488 q 410 542 440 524 q 344 560 381 560 q 277 538 306 560 q 249 479 249 515 l 249 242 q 277 182 249 204 q 344 160 306 160 q 412 179 381 160 q 456 238 443 199 z "},"Ď":{"ha":883,"x_min":86,"x_max":822,"o":"m 346 1050 l 157 1247 l 375 1247 l 425 1190 l 475 1247 l 699 1247 l 507 1050 l 346 1050 m 86 983 l 447 983 q 714 902 606 983 q 822 664 822 821 l 822 314 q 715 79 822 158 q 447 0 607 0 l 86 0 l 86 983 m 290 206 l 447 206 q 569 232 521 206 q 617 314 617 258 l 617 664 q 568 749 617 721 q 447 778 519 778 l 290 778 l 290 206 z "},"ď":{"ha":713,"x_min":56,"x_max":874,"o":"m 874 983 l 808 740 l 674 740 l 704 983 l 874 983 m 635 982 l 635 40 q 354 -14 493 -14 q 147 45 229 -14 q 56 235 65 104 l 56 489 q 135 665 56 599 q 322 733 215 732 q 440 708 386 733 l 440 982 l 635 982 m 440 144 l 440 561 q 366 580 408 579 q 288 559 324 581 q 249 499 253 538 l 249 217 q 285 152 250 176 q 362 129 319 128 q 440 144 404 131 z "},"Đ":{"ha":894,"x_min":19,"x_max":832,"o":"m 97 575 l 97 983 l 489 983 q 738 905 643 983 q 832 668 832 826 l 832 314 q 738 78 832 156 q 489 0 643 0 l 97 0 l 97 397 l 19 397 l 19 575 l 97 575 m 303 206 l 489 206 q 628 314 628 206 l 628 668 q 489 778 628 778 l 303 778 l 303 575 l 467 575 l 467 397 l 303 397 l 303 206 z "},"đ":{"ha":707,"x_min":56,"x_max":708,"o":"m 708 808 l 635 808 l 635 40 q 354 -14 493 -14 q 147 45 229 -14 q 56 235 65 104 l 56 489 q 135 665 56 599 q 322 733 215 732 q 440 708 386 733 l 440 808 l 303 808 l 303 919 l 440 919 l 440 982 l 635 982 l 635 919 l 708 919 l 708 808 m 440 144 l 440 561 q 366 580 408 579 q 288 559 324 581 q 249 499 253 538 l 249 217 q 285 152 250 176 q 362 129 319 128 q 440 144 404 131 z "},"Ē":{"ha":810,"x_min":86,"x_max":753,"o":"m 232 1078 l 232 1221 l 606 1221 l 606 1078 l 232 1078 m 292 785 l 292 592 l 715 592 l 715 393 l 292 393 l 292 199 l 753 199 l 753 0 l 86 0 l 86 985 l 753 985 l 753 785 l 292 785 z "},"ē":{"ha":672,"x_min":56,"x_max":626,"o":"m 158 828 l 158 971 l 532 971 l 532 828 l 158 828 m 471 214 l 597 122 q 489 19 558 51 q 346 -14 419 -14 q 142 53 228 -14 q 56 242 56 121 l 56 479 q 142 667 56 601 q 349 733 229 733 q 546 672 465 733 q 626 488 626 610 l 626 276 l 250 276 l 250 244 q 282 182 250 204 q 358 160 314 160 q 471 214 438 160 m 444 419 l 444 485 q 417 540 444 521 q 350 560 389 560 q 280 540 310 560 q 250 483 250 519 l 250 419 l 444 419 z "},"Ė":{"ha":810,"x_min":86,"x_max":753,"o":"m 331 1085 q 314 1101 331 1085 q 296 1169 296 1118 q 331 1255 296 1221 q 419 1289 367 1289 q 507 1255 472 1289 q 542 1169 542 1221 q 507 1085 542 1118 q 419 1051 472 1051 q 331 1085 367 1051 m 292 785 l 292 592 l 715 592 l 715 393 l 292 393 l 292 199 l 753 199 l 753 0 l 86 0 l 86 985 l 753 985 l 753 785 l 292 785 z "},"ė":{"ha":672,"x_min":56,"x_max":626,"o":"m 258 835 q 240 851 258 835 q 222 919 222 868 q 258 1005 222 971 q 346 1039 293 1039 q 433 1005 399 1039 q 468 919 468 971 q 433 835 468 868 q 346 801 399 801 q 258 835 293 801 m 471 214 l 597 122 q 489 19 558 51 q 346 -14 419 -14 q 142 53 228 -14 q 56 242 56 121 l 56 479 q 142 667 56 601 q 349 733 229 733 q 546 672 465 733 q 626 488 626 610 l 626 276 l 250 276 l 250 244 q 282 182 250 204 q 358 160 314 160 q 471 214 438 160 m 444 419 l 444 485 q 417 540 444 521 q 350 560 389 560 q 280 540 310 560 q 250 483 250 519 l 250 419 l 444 419 z "},"Ę":{"ha":808,"x_min":85,"x_max":842,"o":"m 783 -156 l 842 -244 q 674 -328 763 -328 q 541 -273 581 -328 q 523 -141 501 -218 q 614 0 544 -64 l 85 0 l 85 985 l 751 985 l 751 785 l 290 785 l 290 592 l 714 592 l 714 393 l 290 393 l 290 199 l 751 199 l 751 0 q 688 -151 660 -103 q 733 -174 699 -174 q 783 -156 761 -174 z "},"ę":{"ha":674,"x_min":56,"x_max":629,"o":"m 250 276 l 250 242 q 295 172 250 194 q 394 160 340 149 q 471 211 447 172 l 597 122 q 535 45 574 79 q 467 -7 497 11 q 416 -54 438 -25 q 397 -122 394 -83 q 449 -174 400 -174 q 499 -156 476 -174 l 557 -244 q 389 -328 478 -328 q 259 -276 299 -328 q 237 -150 219 -224 q 317 -12 254 -76 q 131 63 207 -3 q 56 242 56 129 l 56 479 q 142 667 56 601 q 346 733 228 733 q 545 667 461 733 q 629 479 629 601 l 629 276 l 250 276 m 447 419 l 447 488 q 397 554 447 535 q 298 553 347 574 q 250 486 249 533 l 250 419 l 447 419 z "},"Ě":{"ha":810,"x_min":86,"x_max":753,"o":"m 343 1050 l 154 1247 l 372 1247 l 422 1190 l 472 1247 l 696 1247 l 504 1050 l 343 1050 m 292 785 l 292 592 l 715 592 l 715 393 l 292 393 l 292 199 l 753 199 l 753 0 l 86 0 l 86 985 l 753 985 l 753 785 l 292 785 z "},"ě":{"ha":672,"x_min":56,"x_max":626,"o":"m 269 800 l 81 997 l 299 997 l 349 940 l 399 997 l 622 997 l 431 800 l 269 800 m 471 214 l 597 122 q 489 19 558 51 q 346 -14 419 -14 q 142 53 228 -14 q 56 242 56 121 l 56 479 q 142 667 56 601 q 349 733 229 733 q 546 672 465 733 q 626 488 626 610 l 626 276 l 250 276 l 250 244 q 282 182 250 204 q 358 160 314 160 q 471 214 438 160 m 444 419 l 444 485 q 417 540 444 521 q 350 560 389 560 q 280 540 310 560 q 250 483 250 519 l 250 419 l 444 419 z "},"Ğ":{"ha":872,"x_min":61,"x_max":831,"o":"m 504 1247 l 665 1247 q 641 1146 665 1190 q 578 1078 617 1101 q 492 1045 539 1056 q 397 1045 444 1035 q 310 1078 349 1056 q 247 1146 271 1101 q 222 1247 222 1190 l 390 1247 q 419 1199 390 1213 q 476 1199 447 1185 q 504 1247 504 1213 m 790 789 l 625 701 q 551 783 603 756 q 439 810 500 810 q 316 773 368 810 q 264 674 264 736 l 264 315 q 317 219 264 253 q 446 185 371 185 q 576 219 521 185 q 631 315 631 253 l 631 363 l 407 363 l 407 561 l 831 561 l 831 315 q 717 74 831 161 q 447 -14 603 -12 q 261 20 347 -15 q 118 133 175 56 q 61 315 61 210 l 61 674 q 175 912 61 826 q 444 997 289 997 q 646 947 554 997 q 790 789 738 897 z "},"ğ":{"ha":703,"x_min":58,"x_max":631,"o":"m 419 997 l 581 997 q 556 896 581 940 q 493 828 532 851 q 406 795 454 806 q 311 795 358 785 q 225 828 264 806 q 162 896 186 851 q 138 997 138 940 l 306 997 q 334 949 306 963 q 391 949 363 935 q 419 997 419 963 m 85 -186 l 174 -71 q 319 -122 228 -122 q 439 17 439 -122 q 322 -14 388 -14 q 135 48 213 -14 q 58 219 58 110 l 58 492 q 142 674 58 615 q 353 733 225 733 q 631 672 506 733 l 631 1 q 547 -210 631 -136 q 333 -283 463 -283 q 85 -186 185 -283 m 436 160 l 436 567 q 354 585 400 585 q 276 561 308 585 q 244 496 244 538 l 244 222 q 283 163 250 183 q 360 142 315 142 q 436 160 403 142 z "},"Ġ":{"ha":872,"x_min":61,"x_max":831,"o":"m 356 1085 q 339 1101 356 1085 q 321 1169 321 1118 q 356 1255 321 1221 q 444 1289 392 1289 q 532 1255 497 1289 q 567 1169 567 1221 q 532 1085 567 1118 q 444 1051 497 1051 q 356 1085 392 1051 m 790 789 l 625 701 q 551 783 603 756 q 439 810 500 810 q 316 773 368 810 q 264 674 264 736 l 264 315 q 317 219 264 253 q 446 185 371 185 q 576 219 521 185 q 631 315 631 253 l 631 363 l 407 363 l 407 561 l 831 561 l 831 315 q 717 74 831 161 q 447 -14 603 -12 q 261 20 347 -15 q 118 133 175 56 q 61 315 61 210 l 61 674 q 175 912 61 826 q 444 997 289 997 q 646 947 554 997 q 790 789 738 897 z "},"ġ":{"ha":703,"x_min":58,"x_max":631,"o":"m 272 835 q 254 851 272 835 q 236 919 236 868 q 272 1005 236 971 q 360 1039 307 1039 q 447 1005 413 1039 q 482 919 482 971 q 447 835 482 868 q 360 801 413 801 q 272 835 307 801 m 85 -186 l 174 -71 q 319 -122 228 -122 q 439 17 439 -122 q 322 -14 388 -14 q 135 48 213 -14 q 58 219 58 110 l 58 492 q 142 674 58 615 q 353 733 225 733 q 631 672 506 733 l 631 1 q 547 -210 631 -136 q 333 -283 463 -283 q 85 -186 185 -283 m 436 160 l 436 567 q 354 585 400 585 q 276 561 308 585 q 244 496 244 538 l 244 222 q 283 163 250 183 q 360 142 315 142 q 436 160 403 142 z "},"Ģ":{"ha":872,"x_min":61,"x_max":831,"o":"m 790 789 l 625 701 q 551 783 603 756 q 439 810 500 810 q 316 773 368 810 q 264 674 264 736 l 264 315 q 317 219 264 253 q 446 185 371 185 q 576 219 521 185 q 631 315 631 253 l 631 363 l 407 363 l 407 561 l 831 561 l 831 315 q 717 74 831 161 q 447 -14 603 -12 q 261 20 347 -15 q 118 133 175 56 q 61 315 61 210 l 61 674 q 175 912 61 826 q 444 997 289 997 q 646 947 554 997 q 790 789 738 897 m 554 -110 l 460 -353 l 281 -353 l 353 -110 l 554 -110 z "},"ģ":{"ha":703,"x_min":58,"x_max":631,"o":"m 519 983 l 451 794 l 261 794 l 308 983 l 519 983 m 85 -186 l 174 -71 q 319 -122 228 -122 q 439 17 439 -122 q 322 -14 388 -14 q 135 48 213 -14 q 58 219 58 110 l 58 492 q 142 674 58 615 q 353 733 225 733 q 631 672 506 733 l 631 1 q 547 -210 631 -136 q 333 -283 463 -283 q 85 -186 185 -283 m 436 160 l 436 567 q 354 585 400 585 q 276 561 308 585 q 244 496 244 538 l 244 222 q 283 163 250 183 q 360 142 315 142 q 436 160 403 142 z "},"Ħ":{"ha":951,"x_min":19,"x_max":932,"o":"m 932 721 l 861 721 l 861 0 l 657 0 l 657 389 l 294 389 l 294 0 l 90 0 l 90 721 l 19 721 l 19 851 l 90 851 l 90 983 l 294 983 l 294 851 l 657 851 l 657 983 l 861 983 l 861 851 l 932 851 l 932 721 m 657 721 l 294 721 l 294 593 l 657 593 l 657 721 z "},"ħ":{"ha":719,"x_min":-1,"x_max":650,"o":"m 385 733 q 572 665 494 733 q 650 475 650 597 l 650 0 l 458 0 l 458 476 q 423 540 458 518 q 343 559 388 561 q 268 539 299 557 l 268 0 l 75 0 l 75 797 l -1 797 l -1 911 l 75 911 l 75 983 l 268 983 l 268 911 l 446 911 l 446 797 l 268 797 l 268 711 q 385 733 322 733 z "},"Ī":{"ha":376,"x_min":1,"x_max":375,"o":"m 1 1078 l 1 1221 l 375 1221 l 375 1078 l 1 1078 m 290 983 l 290 0 l 86 0 l 86 983 l 290 983 z "},"ī":{"ha":347,"x_min":14,"x_max":332,"o":"m 14 800 l 14 943 l 332 943 l 332 800 l 14 800 m 272 718 l 272 0 l 75 0 l 75 718 l 272 718 z "},"Į":{"ha":376,"x_min":18,"x_max":360,"o":"m 301 -156 l 360 -244 q 192 -328 281 -328 q 58 -273 99 -328 q 39 -141 18 -218 q 129 0 60 -64 l 86 0 l 86 983 l 290 983 l 290 0 q 204 -131 201 -69 q 251 -174 210 -171 q 301 -156 279 -174 z "},"į":{"ha":346,"x_min":7,"x_max":347,"o":"m 171 778 q 90 812 124 778 q 57 894 57 846 q 90 976 57 943 q 171 1010 122 1010 q 255 977 222 1010 q 288 894 288 944 q 255 811 288 844 q 171 778 222 778 m 289 -156 l 347 -244 q 179 -328 268 -328 q 47 -273 86 -328 q 28 -141 7 -218 q 119 0 50 -64 l 75 0 l 75 718 l 272 718 l 272 0 l 257 0 q 193 -151 165 -103 q 239 -174 204 -174 q 289 -156 267 -174 z "},"İ":{"ha":376,"x_min":65,"x_max":311,"o":"m 101 1085 q 83 1101 101 1085 q 65 1169 65 1118 q 101 1255 65 1221 q 189 1289 136 1289 q 276 1255 242 1289 q 311 1169 311 1221 q 276 1085 311 1118 q 189 1051 242 1051 q 101 1085 136 1051 m 290 983 l 290 0 l 86 0 l 86 983 l 290 983 z "},"ı":{"ha":346,"x_min":75,"x_max":272,"o":"m 272 718 l 272 0 l 75 0 l 75 718 l 272 718 z "},"Ĳ":{"ha":1207,"x_min":86,"x_max":1128,"o":"m 290 983 l 290 0 l 86 0 l 86 983 l 290 983 m 690 983 l 1128 983 l 1128 308 q 1016 72 1128 157 q 754 -14 904 -14 q 513 71 619 -14 q 386 313 406 156 l 583 351 q 647 230 597 274 q 758 186 697 186 q 873 219 824 186 q 922 308 922 251 l 922 790 l 690 790 l 690 983 z "},"ĳ":{"ha":686,"x_min":54,"x_max":629,"o":"m 88 812 q 71 829 88 812 q 54 894 54 846 q 87 976 54 943 q 168 1010 119 1010 q 252 977 219 1010 q 285 894 285 944 q 252 811 285 844 q 168 778 219 778 q 88 812 121 778 m 75 721 l 268 721 l 268 0 l 75 0 l 75 721 m 397 893 q 431 976 397 943 q 513 1010 464 1010 q 595 976 561 1010 q 629 893 629 943 q 595 811 629 844 q 513 778 561 778 q 431 811 464 778 q 397 893 397 844 m 321 -106 l 321 -254 q 538 -212 464 -283 q 611 -12 611 -140 l 611 721 l 418 721 l 418 -12 q 321 -106 418 -115 z "},"Ķ":{"ha":879,"x_min":86,"x_max":889,"o":"m 290 574 l 640 983 l 889 983 l 467 501 l 889 0 l 636 0 l 329 365 l 290 328 l 290 0 l 86 0 l 86 983 l 290 983 l 290 574 m 544 -96 l 450 -339 l 271 -339 l 343 -96 l 544 -96 z "},"ķ":{"ha":708,"x_min":75,"x_max":703,"o":"m 268 447 l 476 719 l 701 719 l 415 372 q 558 188 458 315 q 703 0 657 61 l 479 0 l 281 263 l 268 251 l 268 0 l 75 0 l 75 982 l 268 982 l 268 447 m 481 -96 l 386 -339 l 207 -339 l 279 -96 l 481 -96 z "},"Ĺ":{"ha":736,"x_min":68,"x_max":715,"o":"m 436 1247 l 257 1050 l 68 1050 l 200 1247 l 436 1247 m 86 0 l 86 983 l 290 983 l 290 206 l 715 206 l 715 0 l 86 0 z "},"ĺ":{"ha":386,"x_min":44,"x_max":413,"o":"m 413 1247 l 233 1050 l 44 1050 l 176 1247 l 413 1247 m 376 154 l 376 -11 q 336 -14 349 -14 q 135 60 203 -14 q 68 253 68 135 l 68 983 l 261 983 l 261 253 q 290 182 261 210 q 376 154 319 154 z "},"Ļ":{"ha":736,"x_min":86,"x_max":715,"o":"m 86 0 l 86 983 l 290 983 l 290 206 l 715 206 l 715 0 l 86 0 m 508 -96 l 414 -339 l 235 -339 l 307 -96 l 508 -96 z "},"ļ":{"ha":386,"x_min":68,"x_max":376,"o":"m 376 154 l 376 -11 q 336 -14 349 -14 q 135 60 203 -14 q 68 253 68 135 l 68 983 l 261 983 l 261 253 q 290 182 261 210 q 376 154 319 154 m 354 -110 l 260 -353 l 81 -353 l 153 -110 l 354 -110 z "},"Ľ":{"ha":739,"x_min":86,"x_max":715,"o":"m 86 0 l 86 983 l 290 983 l 290 206 l 715 206 l 715 0 l 86 0 m 685 983 l 592 740 l 415 740 l 488 983 l 685 983 z "},"ľ":{"ha":401,"x_min":68,"x_max":513,"o":"m 376 154 l 376 -11 q 336 -14 349 -14 q 135 60 203 -14 q 68 253 68 135 l 68 983 l 261 983 l 261 253 q 290 182 261 210 q 376 154 319 154 m 513 983 l 450 753 l 303 753 l 342 983 l 513 983 z "},"Ŀ":{"ha":746,"x_min":86,"x_max":715,"o":"m 86 0 l 86 983 l 290 983 l 290 206 l 715 206 l 715 0 l 86 0 m 393 542 q 427 628 393 593 q 514 663 461 663 q 597 628 564 663 q 631 542 631 593 q 597 458 631 492 q 514 424 564 424 q 427 458 461 424 q 393 542 393 492 z "},"ŀ":{"ha":497,"x_min":68,"x_max":522,"o":"m 376 154 l 376 -11 q 336 -14 349 -14 q 135 60 203 -14 q 68 253 68 135 l 68 983 l 261 983 l 261 253 q 290 182 261 210 q 376 154 319 154 m 338 446 q 323 461 338 446 q 307 522 307 476 q 338 600 307 568 q 417 632 369 632 q 492 600 463 632 q 522 522 522 568 q 492 446 522 476 q 417 415 463 415 q 338 446 369 415 z "},"Ł":{"ha":772,"x_min":-6,"x_max":733,"o":"m 733 207 l 733 0 l 124 0 l 124 342 l 57 307 l -6 422 l 124 493 l 124 983 l 329 983 l 329 606 l 450 671 l 513 544 l 329 449 l 329 207 l 733 207 z "},"ł":{"ha":458,"x_min":6,"x_max":457,"o":"m 322 501 l 322 253 q 351 182 322 210 q 438 154 381 154 l 438 -11 q 397 -14 410 -14 q 197 60 264 -14 q 129 253 129 135 l 129 399 l 58 361 l 6 467 l 129 533 l 129 983 l 322 983 l 322 636 l 401 679 l 457 574 l 322 501 z "},"Ń":{"ha":943,"x_min":86,"x_max":857,"o":"m 719 1247 l 540 1050 l 351 1050 l 483 1247 l 719 1247 m 668 269 l 682 272 q 653 481 657 415 l 653 983 l 857 983 l 857 0 l 639 0 l 339 517 l 279 650 l 265 647 l 292 479 l 292 0 l 86 0 l 86 983 l 288 983 l 599 447 l 668 269 z "},"ń":{"ha":715,"x_min":74,"x_max":647,"o":"m 608 997 l 429 800 l 240 800 l 372 997 l 608 997 m 74 0 l 74 671 q 333 733 201 733 q 488 708 419 733 q 601 622 556 683 q 647 471 647 561 l 647 0 l 456 0 l 456 464 q 424 535 456 511 q 346 560 392 560 q 267 540 301 560 l 267 0 l 74 0 z "},"Ņ":{"ha":943,"x_min":86,"x_max":857,"o":"m 668 269 l 682 272 q 653 481 657 415 l 653 983 l 857 983 l 857 0 l 639 0 l 339 517 l 279 650 l 265 647 l 292 479 l 292 0 l 86 0 l 86 983 l 288 983 l 599 447 l 668 269 m 579 -96 l 485 -339 l 306 -339 l 378 -96 l 579 -96 z "},"ņ":{"ha":715,"x_min":74,"x_max":647,"o":"m 74 0 l 74 671 q 333 733 201 733 q 488 708 419 733 q 601 622 556 683 q 647 471 647 561 l 647 0 l 456 0 l 456 464 q 424 535 456 511 q 346 560 392 560 q 267 540 301 560 l 267 0 l 74 0 m 468 -96 l 374 -339 l 194 -339 l 267 -96 l 468 -96 z "},"Ň":{"ha":943,"x_min":86,"x_max":857,"o":"m 396 1050 l 207 1247 l 425 1247 l 475 1190 l 525 1247 l 749 1247 l 557 1050 l 396 1050 m 668 269 l 682 272 q 653 481 657 415 l 653 983 l 857 983 l 857 0 l 639 0 l 339 517 l 279 650 l 265 647 l 292 479 l 292 0 l 86 0 l 86 983 l 288 983 l 599 447 l 668 269 z "},"ň":{"ha":715,"x_min":74,"x_max":647,"o":"m 285 800 l 96 997 l 314 997 l 364 940 l 414 997 l 638 997 l 446 800 l 285 800 m 74 0 l 74 671 q 333 733 201 733 q 488 708 419 733 q 601 622 556 683 q 647 471 647 561 l 647 0 l 456 0 l 456 464 q 424 535 456 511 q 346 560 392 560 q 267 540 301 560 l 267 0 l 74 0 z "},"Ŋ":{"ha":943,"x_min":86,"x_max":857,"o":"m 857 983 l 857 -12 q 783 -212 857 -140 q 567 -254 710 -283 l 567 -106 q 664 -12 664 -115 l 664 0 l 639 0 l 339 517 l 279 650 l 265 647 l 292 479 l 292 0 l 86 0 l 86 983 l 288 983 l 599 447 l 668 269 l 682 272 q 653 481 657 415 l 653 983 l 857 983 z "},"ŋ":{"ha":714,"x_min":72,"x_max":646,"o":"m 332 733 q 486 708 418 733 q 600 622 554 683 q 646 471 646 561 l 646 -31 q 572 -230 646 -158 q 356 -272 499 -301 l 356 -124 q 454 -31 454 -133 l 454 464 q 422 535 454 511 q 344 560 390 560 q 265 540 300 560 l 265 0 l 72 0 l 72 671 q 332 733 200 733 z "},"Ō":{"ha":925,"x_min":60,"x_max":865,"o":"m 275 1092 l 275 1235 l 649 1235 l 649 1092 l 275 1092 m 60 313 l 60 669 q 119 851 60 775 q 269 963 179 928 q 463 997 358 999 q 746 910 626 997 q 865 669 865 824 l 865 313 q 746 72 865 158 q 463 -15 626 -15 q 269 19 358 -15 q 119 131 179 54 q 60 313 60 208 m 263 669 l 263 313 q 322 222 263 254 q 463 189 381 189 q 603 222 544 190 q 661 313 661 254 l 661 669 q 601 763 661 729 q 461 794 542 796 q 322 761 382 794 q 263 669 263 728 z "},"ō":{"ha":686,"x_min":56,"x_max":632,"o":"m 157 814 l 157 957 l 531 957 l 531 814 l 157 814 m 56 242 l 56 476 q 141 665 56 597 q 344 733 226 732 q 547 665 461 732 q 632 476 632 597 l 632 242 q 547 53 632 119 q 344 -14 463 -12 q 141 53 226 -12 q 56 242 56 119 m 344 560 q 278 540 307 560 q 249 489 249 521 l 249 238 q 278 182 249 204 q 344 160 308 160 q 409 182 379 160 q 439 238 439 204 l 439 489 q 410 540 439 521 q 344 560 381 560 z "},"Ő":{"ha":925,"x_min":60,"x_max":865,"o":"m 543 1272 l 368 1065 l 185 1065 l 318 1272 l 543 1272 m 839 1272 l 665 1065 l 481 1065 l 614 1272 l 839 1272 m 60 313 l 60 669 q 119 851 60 775 q 269 963 179 928 q 463 997 358 999 q 746 910 626 997 q 865 669 865 824 l 865 313 q 746 72 865 158 q 463 -15 626 -15 q 269 19 358 -15 q 119 131 179 54 q 60 313 60 208 m 263 669 l 263 313 q 322 222 263 254 q 463 189 381 189 q 603 222 544 190 q 661 313 661 254 l 661 669 q 601 763 661 729 q 461 794 542 796 q 322 761 382 794 q 263 669 263 728 z "},"ő":{"ha":688,"x_min":56,"x_max":683,"o":"m 424 979 l 283 788 l 114 788 l 224 979 l 424 979 m 683 979 l 543 788 l 374 788 l 483 979 l 683 979 m 56 242 l 56 476 q 141 665 56 597 q 344 733 226 732 q 547 665 461 732 q 632 476 632 597 l 632 242 q 547 53 632 119 q 344 -14 463 -12 q 141 53 226 -12 q 56 242 56 119 m 344 560 q 278 540 307 560 q 249 489 249 521 l 249 238 q 278 182 249 204 q 344 160 308 160 q 409 182 379 160 q 439 238 439 204 l 439 489 q 410 540 439 521 q 344 560 381 560 z "},"Œ":{"ha":1188,"x_min":60,"x_max":1131,"o":"m 754 776 l 754 592 l 1093 592 l 1093 388 l 754 388 l 754 204 l 1131 204 l 1131 0 l 565 0 l 565 47 q 399 -8 490 -3 q 234 21 308 -12 q 110 125 160 54 q 64 286 60 196 l 64 688 q 119 855 64 782 q 251 960 174 928 q 415 987 328 993 q 565 931 503 981 l 565 982 l 1131 982 l 1131 776 l 754 776 m 465 168 q 565 206 531 168 l 565 760 q 429 810 508 810 q 316 774 365 810 q 268 686 267 739 l 268 289 q 326 199 268 229 q 465 168 383 168 z "},"œ":{"ha":1043,"x_min":56,"x_max":999,"o":"m 856 200 l 963 104 q 860 17 924 47 q 726 -14 796 -14 q 528 82 604 -14 q 333 -14 457 -14 q 135 57 215 -14 q 56 246 56 128 l 56 475 q 140 663 56 592 q 333 733 224 733 q 532 635 467 733 q 732 733 599 733 q 926 665 853 733 q 999 476 999 596 l 999 283 l 625 283 l 625 251 q 659 180 625 206 q 740 154 693 154 q 808 167 775 154 q 856 200 840 181 m 824 426 l 824 485 q 792 539 824 519 q 724 558 761 558 q 656 539 688 558 q 625 485 625 519 l 625 426 l 824 426 m 339 556 q 273 533 303 554 q 243 482 243 513 l 243 246 q 272 186 244 208 q 339 164 299 164 q 408 187 379 164 q 438 246 436 210 l 438 483 q 408 535 438 514 q 339 556 378 557 z "},"Ŕ":{"ha":878,"x_min":86,"x_max":894,"o":"m 653 1247 l 474 1050 l 285 1050 l 417 1247 l 653 1247 m 643 0 l 364 360 l 292 360 l 292 0 l 86 0 l 86 983 l 474 983 q 726 906 631 983 q 825 669 821 829 q 601 374 825 418 l 894 0 l 643 0 m 292 546 l 474 546 q 621 668 621 546 q 474 778 621 782 l 292 778 l 292 546 z "},"ŕ":{"ha":472,"x_min":68,"x_max":508,"o":"m 508 997 l 329 800 l 140 800 l 272 997 l 508 997 m 350 733 q 451 719 390 733 l 451 564 q 323 558 385 582 q 261 475 261 533 l 261 0 l 68 0 l 68 478 q 154 666 68 599 q 350 733 240 733 z "},"Ŗ":{"ha":878,"x_min":86,"x_max":894,"o":"m 643 0 l 364 360 l 292 360 l 292 0 l 86 0 l 86 983 l 474 983 q 726 906 631 983 q 825 669 821 829 q 601 374 825 418 l 894 0 l 643 0 m 292 546 l 474 546 q 621 668 621 546 q 474 778 621 782 l 292 778 l 292 546 m 569 -96 l 475 -339 l 296 -339 l 368 -96 l 569 -96 z "},"ŗ":{"ha":472,"x_min":-1,"x_max":451,"o":"m 350 733 q 451 719 390 733 l 451 564 q 323 558 385 582 q 261 475 261 533 l 261 0 l 68 0 l 68 478 q 154 666 68 599 q 350 733 240 733 m 272 -96 l 178 -339 l -1 -339 l 71 -96 l 272 -96 z "},"Ř":{"ha":878,"x_min":86,"x_max":894,"o":"m 329 1050 l 140 1247 l 358 1247 l 408 1190 l 458 1247 l 682 1247 l 490 1050 l 329 1050 m 643 0 l 364 360 l 292 360 l 292 0 l 86 0 l 86 983 l 474 983 q 726 906 631 983 q 825 669 821 829 q 601 374 825 418 l 894 0 l 643 0 m 292 546 l 474 546 q 621 668 621 546 q 474 778 621 782 l 292 778 l 292 546 z "},"ř":{"ha":472,"x_min":43,"x_max":546,"o":"m 214 793 l 43 988 l 243 988 l 292 931 l 340 988 l 546 988 l 372 793 l 214 793 m 350 733 q 451 719 390 733 l 451 564 q 323 558 385 582 q 261 475 261 533 l 261 0 l 68 0 l 68 478 q 154 666 68 599 q 350 733 240 733 z "},"Ś":{"ha":789,"x_min":36,"x_max":756,"o":"m 651 1250 l 472 1053 l 283 1053 l 415 1250 l 651 1250 m 36 174 l 190 292 q 282 212 222 240 q 399 183 342 183 q 499 208 456 182 q 546 285 543 235 q 500 366 549 342 q 357 403 451 390 q 46 715 43 451 q 158 924 54 849 q 404 999 263 999 q 736 825 621 999 l 568 713 q 404 806 507 806 q 299 781 342 806 q 254 708 257 757 l 254 707 q 281 649 254 672 q 328 620 307 626 q 407 601 349 614 q 424 597 418 599 q 550 565 497 583 q 653 510 603 546 q 730 415 704 475 q 751 271 756 354 q 630 63 739 139 q 378 -14 521 -14 q 188 34 279 -14 q 36 174 97 82 z "},"ś":{"ha":589,"x_min":35,"x_max":553,"o":"m 546 983 l 367 786 l 178 786 l 310 983 l 546 983 m 35 108 l 126 233 q 300 153 211 153 q 358 185 343 153 q 354 243 372 217 q 289 276 336 269 q 115 362 175 296 q 53 511 54 428 q 118 667 51 601 q 299 733 185 733 q 528 658 435 733 l 432 526 q 380 558 414 544 q 315 571 346 571 q 272 556 290 571 q 250 513 253 542 q 281 461 247 483 q 346 433 315 439 q 553 222 553 381 q 477 48 553 110 q 293 -14 401 -14 q 35 108 126 -14 z "},"Ş":{"ha":789,"x_min":36,"x_max":756,"o":"m 424 597 q 550 565 497 583 q 653 510 603 546 q 730 415 704 475 q 751 271 756 354 q 667 93 742 164 q 482 -3 592 22 l 451 -69 q 542 -127 517 -75 q 544 -242 568 -179 q 419 -337 515 -319 q 218 -282 324 -356 l 257 -193 q 341 -220 304 -224 q 388 -186 378 -217 q 372 -139 396 -160 q 285 -118 347 -118 l 339 -12 q 170 44 250 -3 q 36 174 90 92 l 190 292 q 282 212 222 240 q 399 183 342 183 q 499 208 456 182 q 546 285 543 235 q 500 366 549 342 q 357 403 451 390 q 46 715 43 451 q 158 924 54 849 q 404 999 263 999 q 736 825 621 999 l 568 713 q 404 806 507 806 q 299 781 342 806 q 254 708 257 757 l 254 707 q 281 649 254 672 q 328 620 307 626 q 407 601 349 614 q 424 597 418 599 z "},"ş":{"ha":589,"x_min":35,"x_max":553,"o":"m 553 222 q 502 73 553 132 q 369 -6 451 14 l 342 -65 q 430 -121 406 -71 q 432 -231 454 -171 q 312 -323 404 -306 q 118 -269 219 -340 l 156 -185 q 237 -210 201 -214 q 281 -178 272 -207 q 265 -133 289 -153 q 182 -112 242 -112 l 233 -10 q 35 108 110 8 l 126 233 q 300 153 211 153 q 358 185 343 153 q 354 243 372 217 q 289 276 336 269 q 115 362 175 296 q 53 511 54 428 q 118 667 51 601 q 299 733 185 733 q 528 658 435 733 l 432 526 q 380 558 414 544 q 315 571 346 571 q 272 556 290 571 q 250 513 253 542 q 281 461 247 483 q 346 433 315 439 q 553 222 553 381 z "},"Š":{"ha":789,"x_min":36,"x_max":756,"o":"m 328 1053 l 139 1250 l 357 1250 l 407 1193 l 457 1250 l 681 1250 l 489 1053 l 328 1053 m 36 174 l 190 292 q 282 212 222 240 q 399 183 342 183 q 499 208 456 182 q 546 285 543 235 q 500 366 549 342 q 357 403 451 390 q 46 715 43 451 q 158 924 54 849 q 404 999 263 999 q 736 825 621 999 l 568 713 q 404 806 507 806 q 299 781 342 806 q 254 708 257 757 l 254 707 q 281 649 254 672 q 328 620 307 626 q 407 601 349 614 q 424 597 418 599 q 550 565 497 583 q 653 510 603 546 q 730 415 704 475 q 751 271 756 354 q 630 63 739 139 q 378 -14 521 -14 q 188 34 279 -14 q 36 174 97 82 z "},"š":{"ha":588,"x_min":28,"x_max":569,"o":"m 569 786 l 346 786 l 296 843 l 246 786 l 28 786 l 217 983 l 378 983 l 569 786 m 33 108 l 125 233 q 299 153 210 153 q 357 185 342 153 q 353 243 371 217 q 288 276 335 269 q 113 362 174 296 q 51 511 53 428 q 117 667 50 601 q 297 733 183 733 q 526 658 433 733 l 431 526 q 378 558 413 544 q 314 571 344 571 q 270 556 289 571 q 249 513 251 542 q 280 461 246 483 q 344 433 314 439 q 551 222 551 381 q 476 48 551 110 q 292 -14 400 -14 q 33 108 125 -14 z "},"Ţ":{"ha":811,"x_min":21,"x_max":790,"o":"m 790 779 l 508 779 l 508 0 l 303 0 l 303 779 l 21 779 l 21 985 l 790 985 l 790 779 m 513 -96 l 418 -339 l 239 -339 l 311 -96 l 513 -96 z "},"ţ":{"ha":443,"x_min":69,"x_max":411,"o":"m 361 -96 l 267 -339 l 88 -339 l 160 -96 l 361 -96 m 411 168 l 411 10 q 167 25 264 -39 q 71 253 69 89 l 71 879 l 249 879 l 263 719 l 390 719 l 390 543 l 263 543 l 263 254 q 298 173 263 193 q 411 168 333 153 z "},"Ť":{"ha":811,"x_min":21,"x_max":790,"o":"m 329 1050 l 140 1247 l 358 1247 l 408 1190 l 458 1247 l 682 1247 l 490 1050 l 329 1050 m 790 779 l 508 779 l 508 0 l 303 0 l 303 779 l 21 779 l 21 985 l 790 985 l 790 779 z "},"ť":{"ha":443,"x_min":69,"x_max":542,"o":"m 542 983 l 468 753 l 318 753 l 371 983 l 542 983 m 411 168 l 411 10 q 167 25 264 -39 q 71 253 69 89 l 71 879 l 249 879 l 263 719 l 390 719 l 390 543 l 263 543 l 263 254 q 298 173 263 193 q 411 168 333 153 z "},"Ŧ":{"ha":822,"x_min":26,"x_max":796,"o":"m 514 779 l 514 558 l 681 558 l 681 411 l 514 411 l 514 0 l 308 0 l 308 411 l 140 411 l 140 558 l 308 558 l 308 779 l 26 779 l 26 985 l 796 985 l 796 779 l 514 779 z "},"ŧ":{"ha":457,"x_min":21,"x_max":424,"o":"m 275 315 l 275 254 q 424 165 275 136 l 424 10 q 179 25 276 -39 q 83 253 82 89 l 83 315 l 21 315 l 21 431 l 83 431 l 83 879 l 261 879 l 275 719 l 403 719 l 403 543 l 275 543 l 275 431 l 365 431 l 365 315 l 275 315 z "},"Ū":{"ha":928,"x_min":78,"x_max":850,"o":"m 279 1078 l 279 1221 l 653 1221 l 653 1078 l 279 1078 m 283 983 l 283 324 q 336 222 283 258 q 463 186 389 186 q 592 222 539 186 q 644 324 644 258 l 644 983 l 850 983 l 850 324 q 736 75 850 164 q 463 -14 622 -14 q 192 75 306 -14 q 78 324 78 164 l 78 983 l 283 983 z "},"ū":{"ha":717,"x_min":69,"x_max":644,"o":"m 161 818 l 161 967 l 550 967 l 550 818 l 161 818 m 644 719 l 644 39 q 372 -14 497 -14 q 154 49 239 -14 q 69 253 69 111 l 69 719 l 263 719 l 263 264 q 297 175 263 204 q 383 146 331 146 q 453 158 419 146 l 453 719 l 644 719 z "},"Ů":{"ha":928,"x_min":78,"x_max":850,"o":"m 469 1350 q 590 1301 546 1350 q 633 1192 633 1251 q 590 1083 633 1132 q 469 1033 546 1033 q 345 1083 390 1033 q 300 1192 300 1132 q 345 1301 300 1251 q 469 1350 390 1350 m 469 1258 q 408 1225 425 1258 q 409 1158 390 1192 q 469 1125 428 1125 q 528 1158 511 1125 q 528 1225 544 1192 q 469 1258 511 1258 m 283 983 l 283 324 q 336 222 283 258 q 463 186 389 186 q 592 222 539 186 q 644 324 644 258 l 644 983 l 850 983 l 850 324 q 736 75 850 164 q 463 -14 622 -14 q 192 75 306 -14 q 78 324 78 164 l 78 983 l 283 983 z "},"ů":{"ha":717,"x_min":69,"x_max":644,"o":"m 360 1074 q 480 1024 436 1074 q 524 915 524 975 q 480 806 524 856 q 360 757 436 757 q 235 806 281 757 q 190 915 190 856 q 235 1024 190 975 q 360 1074 281 1074 m 360 982 q 298 949 315 982 q 299 882 281 915 q 360 849 318 849 q 418 882 401 849 q 418 949 435 915 q 360 982 401 982 m 644 719 l 644 39 q 372 -14 497 -14 q 154 49 239 -14 q 69 253 69 111 l 69 719 l 263 719 l 263 264 q 297 175 263 204 q 383 146 331 146 q 453 158 419 146 l 453 719 l 644 719 z "},"Ű":{"ha":928,"x_min":78,"x_max":850,"o":"m 547 1258 l 372 1051 l 189 1051 l 322 1258 l 547 1258 m 843 1258 l 669 1051 l 485 1051 l 618 1258 l 843 1258 m 283 983 l 283 324 q 336 222 283 258 q 463 186 389 186 q 592 222 539 186 q 644 324 644 258 l 644 983 l 850 983 l 850 324 q 736 75 850 164 q 463 -14 622 -14 q 192 75 306 -14 q 78 324 78 164 l 78 983 l 283 983 z "},"ű":{"ha":717,"x_min":69,"x_max":726,"o":"m 436 981 l 264 778 l 85 778 l 215 981 l 436 981 m 726 981 l 556 778 l 375 778 l 506 981 l 726 981 m 644 719 l 644 39 q 372 -14 497 -14 q 154 49 239 -14 q 69 253 69 111 l 69 719 l 263 719 l 263 264 q 297 175 263 204 q 383 146 331 146 q 453 158 419 146 l 453 719 l 644 719 z "},"Ų":{"ha":928,"x_min":78,"x_max":850,"o":"m 543 -114 q 558 -157 543 -140 q 599 -174 574 -174 q 649 -156 626 -174 l 707 -244 q 539 -328 628 -328 q 409 -276 449 -328 q 386 -152 369 -225 q 464 -15 403 -79 q 192 74 307 -15 q 78 322 78 163 l 78 983 l 283 983 l 283 322 q 321 233 283 269 q 411 190 358 197 q 517 190 464 182 q 607 234 569 199 q 644 322 644 269 l 644 983 l 850 983 l 850 322 q 818 199 850 257 q 742 99 786 140 q 652 22 697 57 q 575 -49 607 -14 q 543 -114 543 -83 z "},"ų":{"ha":718,"x_min":69,"x_max":704,"o":"m 456 -21 l 451 -14 q 340 -17 394 -18 q 236 3 285 -15 q 150 50 188 21 q 91 131 113 79 q 69 253 69 183 l 69 719 l 263 719 l 263 251 q 325 159 265 188 q 453 154 385 131 l 453 719 l 644 719 l 644 31 l 618 4 q 549 -151 522 -101 q 596 -174 561 -174 q 646 -156 624 -174 l 704 -244 q 536 -328 625 -328 q 408 -278 447 -328 q 383 -157 368 -228 q 456 -21 397 -86 z "},"Ŵ":{"ha":1278,"x_min":4,"x_max":1274,"o":"m 913 1050 l 689 1050 l 639 1107 l 589 1050 l 371 1050 l 560 1247 l 721 1247 l 913 1050 m 289 0 l 4 983 l 215 983 l 356 469 l 386 240 l 399 240 l 432 471 q 497 667 461 567 q 557 847 532 767 l 722 847 l 842 468 l 882 231 l 894 231 l 921 468 l 1064 983 l 1274 983 l 990 0 l 790 0 l 664 379 l 642 497 l 631 497 q 626 477 629 489 q 618 439 624 465 q 608 394 613 413 l 604 378 l 489 0 l 289 0 z "},"ŵ":{"ha":974,"x_min":8,"x_max":963,"o":"m 760 786 l 536 786 l 486 843 l 436 786 l 218 786 l 407 983 l 568 983 l 760 786 m 464 260 l 407 0 l 226 0 l 8 719 l 199 719 l 279 429 l 301 242 l 304 242 l 325 417 l 417 719 l 557 719 l 646 418 l 667 242 l 669 242 l 694 431 l 769 719 l 963 719 l 750 0 l 569 0 l 510 260 l 488 456 l 485 456 l 464 260 z "},"Ŷ":{"ha":872,"x_min":-8,"x_max":881,"o":"m 708 1050 l 485 1050 l 435 1107 l 385 1050 l 167 1050 l 356 1247 l 517 1247 l 708 1050 m 538 0 l 333 0 l 333 376 l -8 983 l 226 983 l 435 572 l 643 983 l 881 983 l 538 376 l 538 0 z "},"ŷ":{"ha":718,"x_min":71,"x_max":643,"o":"m 629 786 l 406 786 l 356 843 l 306 786 l 88 786 l 276 983 l 438 983 l 629 786 m 643 719 l 643 6 q 560 -208 643 -133 q 344 -283 478 -283 q 93 -187 189 -283 l 185 -67 q 322 -119 240 -119 q 423 -89 388 -119 q 457 10 458 -58 q 335 -14 386 -14 q 142 48 214 -14 q 71 224 71 110 l 71 719 l 257 719 l 257 226 q 368 142 257 142 q 449 164 410 142 l 449 719 l 643 719 z "},"Ÿ":{"ha":872,"x_min":-8,"x_max":881,"o":"m 178 1153 q 209 1229 178 1199 q 285 1260 240 1260 q 360 1228 328 1260 q 392 1153 392 1197 q 360 1079 392 1110 q 285 1049 328 1049 q 209 1079 240 1049 q 178 1153 178 1110 m 479 1153 q 510 1229 479 1199 q 586 1260 540 1260 q 663 1229 632 1260 q 694 1153 694 1199 q 663 1078 694 1108 q 586 1049 632 1049 q 510 1078 540 1049 q 479 1153 479 1108 m 538 0 l 333 0 l 333 376 l -8 983 l 226 983 l 435 572 l 643 983 l 881 983 l 538 376 l 538 0 z "},"Ź":{"ha":829,"x_min":25,"x_max":801,"o":"m 664 1247 l 485 1050 l 296 1050 l 428 1247 l 664 1247 m 51 983 l 744 983 l 801 890 l 311 183 l 782 183 l 782 0 l 74 0 l 25 93 l 515 794 l 51 794 l 51 983 z "},"ź":{"ha":629,"x_min":29,"x_max":593,"o":"m 567 983 l 388 786 l 199 786 l 331 983 l 567 983 m 56 719 l 551 719 l 593 651 l 293 165 l 583 165 l 583 0 l 71 0 l 29 69 l 328 554 l 56 554 l 56 719 z "},"Ż":{"ha":829,"x_min":25,"x_max":801,"o":"m 328 1085 q 311 1101 328 1085 q 293 1169 293 1118 q 328 1255 293 1221 q 417 1289 364 1289 q 504 1255 469 1289 q 539 1169 539 1221 q 504 1085 539 1118 q 417 1051 469 1051 q 328 1085 364 1051 m 51 983 l 744 983 l 801 890 l 311 183 l 782 183 l 782 0 l 74 0 l 25 93 l 515 794 l 51 794 l 51 983 z "},"ż":{"ha":629,"x_min":29,"x_max":593,"o":"m 231 821 q 214 838 231 821 q 196 906 196 854 q 231 991 196 957 q 319 1025 267 1025 q 407 991 372 1025 q 442 906 442 957 q 407 821 442 854 q 319 788 372 788 q 231 821 267 788 m 56 719 l 551 719 l 593 651 l 293 165 l 583 165 l 583 0 l 71 0 l 29 69 l 328 554 l 56 554 l 56 719 z "},"Ž":{"ha":829,"x_min":25,"x_max":801,"o":"m 340 1050 l 151 1247 l 369 1247 l 419 1190 l 469 1247 l 693 1247 l 501 1050 l 340 1050 m 51 983 l 744 983 l 801 890 l 311 183 l 782 183 l 782 0 l 74 0 l 25 93 l 515 794 l 51 794 l 51 983 z "},"ž":{"ha":629,"x_min":29,"x_max":596,"o":"m 243 786 l 54 983 l 272 983 l 322 926 l 372 983 l 596 983 l 404 786 l 243 786 m 56 719 l 551 719 l 593 651 l 293 165 l 583 165 l 583 0 l 71 0 l 29 69 l 328 554 l 56 554 l 56 719 z "},"ƒ":{"ha":667,"x_min":1,"x_max":653,"o":"m 1 -129 l 46 1 q 115 1 85 -17 q 154 68 146 18 l 229 458 l 115 458 l 115 617 l 258 617 l 285 764 l 285 763 q 356 922 301 857 q 514 986 410 986 q 653 943 572 986 l 586 807 q 518 810 546 826 q 482 747 490 793 l 458 617 l 569 617 l 569 458 l 431 458 l 351 28 q 222 -147 329 -99 q 1 -129 114 -196 z "},"Ș":{"ha":789,"x_min":36,"x_max":756,"o":"m 36 174 l 190 292 q 282 212 222 240 q 399 183 342 183 q 499 208 456 182 q 546 285 543 235 q 500 366 549 342 q 357 403 451 390 q 46 715 43 451 q 158 924 54 849 q 404 999 263 999 q 736 825 621 999 l 568 713 q 404 806 507 806 q 299 781 342 806 q 254 708 257 757 l 254 707 q 281 649 254 672 q 328 620 307 626 q 407 601 349 614 q 424 597 418 599 q 550 565 497 583 q 653 510 603 546 q 730 415 704 475 q 751 271 756 354 q 630 63 739 139 q 378 -14 521 -14 q 188 34 279 -14 q 36 174 97 82 m 485 -97 l 390 -340 l 211 -340 l 283 -97 l 485 -97 z "},"ș":{"ha":589,"x_min":35,"x_max":553,"o":"m 35 108 l 126 233 q 300 153 211 153 q 358 185 343 153 q 354 243 372 217 q 289 276 336 269 q 115 362 175 296 q 53 511 54 428 q 118 667 51 601 q 299 733 185 733 q 528 658 435 733 l 432 526 q 380 558 414 544 q 315 571 346 571 q 272 556 290 571 q 250 513 253 542 q 281 461 247 483 q 346 433 315 439 q 553 222 553 381 q 477 48 553 110 q 293 -14 401 -14 q 35 108 126 -14 m 400 -96 l 306 -339 l 126 -339 l 199 -96 l 400 -96 z "},"Ț":{"ha":811,"x_min":21,"x_max":790,"o":"m 790 779 l 508 779 l 508 0 l 303 0 l 303 779 l 21 779 l 21 985 l 790 985 l 790 779 m 513 -96 l 418 -339 l 239 -339 l 311 -96 l 513 -96 z "},"ț":{"ha":443,"x_min":69,"x_max":411,"o":"m 361 -96 l 267 -339 l 88 -339 l 160 -96 l 361 -96 m 411 168 l 411 10 q 167 25 264 -39 q 71 253 69 89 l 71 879 l 249 879 l 263 719 l 390 719 l 390 543 l 263 543 l 263 254 q 298 173 263 193 q 411 168 333 153 z "},"ˆ":{"ha":613,"x_min":14,"x_max":556,"o":"m 556 1050 l 332 1050 l 282 1107 l 232 1050 l 14 1050 l 203 1247 l 364 1247 l 556 1050 z "},"ˇ":{"ha":461,"x_min":-81,"x_max":461,"o":"m 108 1050 l -81 1247 l 138 1247 l 188 1190 l 238 1247 l 461 1247 l 269 1050 l 108 1050 z "},"ˉ":{"ha":449,"x_min":-7,"x_max":422,"o":"m -7 794 l -7 965 l 422 965 l 422 794 l -7 794 z "},"˘":{"ha":399,"x_min":22,"x_max":465,"o":"m 304 1247 l 465 1247 q 441 1146 465 1190 q 378 1078 417 1101 q 292 1045 339 1056 q 197 1045 244 1035 q 110 1078 149 1056 q 47 1146 71 1101 q 22 1247 22 1190 l 190 1247 q 219 1199 190 1213 q 276 1199 247 1185 q 304 1247 304 1213 z "},"˙":{"ha":333,"x_min":32,"x_max":278,"o":"m 67 1085 q 50 1101 67 1085 q 32 1169 32 1118 q 67 1255 32 1221 q 156 1289 103 1289 q 243 1255 208 1289 q 278 1169 278 1221 q 243 1085 278 1118 q 156 1051 208 1051 q 67 1085 103 1051 z "},"˚":{"ha":333,"x_min":-17,"x_max":317,"o":"m 153 1350 q 273 1301 229 1350 q 317 1192 317 1251 q 273 1083 317 1132 q 153 1033 229 1033 q 28 1083 74 1033 q -17 1192 -17 1132 q 28 1301 -17 1251 q 153 1350 74 1350 m 153 1258 q 91 1225 108 1258 q 92 1158 74 1192 q 153 1125 111 1125 q 211 1158 194 1125 q 211 1225 228 1192 q 153 1258 194 1258 z "},"˛":{"ha":350,"x_min":-24,"x_max":317,"o":"m 92 3 l 231 4 q 161 -151 135 -101 q 208 -174 174 -174 q 258 -156 236 -174 l 317 -244 q 149 -328 238 -328 q 15 -272 54 -328 q -1 -139 -24 -217 q 92 3 21 -61 z "},"˜":{"ha":424,"x_min":-37,"x_max":418,"o":"m 64 1060 l -37 1111 q 19 1220 -25 1179 q 111 1261 63 1261 q 163 1251 135 1261 q 213 1230 192 1240 q 253 1213 233 1219 q 290 1214 274 1206 q 318 1249 307 1222 l 418 1199 q 359 1088 393 1122 q 275 1054 325 1054 q 215 1069 249 1054 q 158 1097 181 1085 q 109 1103 135 1110 q 64 1060 83 1097 z "},"˝":{"ha":676,"x_min":4,"x_max":658,"o":"m 363 1258 l 188 1051 l 4 1051 l 138 1258 l 363 1258 m 658 1258 l 485 1051 l 300 1051 l 433 1258 l 658 1258 z "},"̦":{"ha":0,"x_min":54,"x_max":328,"o":"m 328 -96 l 233 -339 l 54 -339 l 126 -96 l 328 -96 z "},"Ω":{"ha":1076,"x_min":56,"x_max":1018,"o":"m 56 199 l 194 199 q 63 521 63 307 q 103 724 63 633 q 210 871 143 815 q 361 956 278 926 q 535 986 444 986 q 766 935 658 986 q 945 778 874 885 q 1017 526 1017 671 q 980 334 1017 422 q 876 199 943 246 l 1018 199 l 1018 0 l 582 0 l 582 150 q 713 231 657 174 q 795 360 768 289 q 821 508 822 431 q 790 648 819 585 q 694 752 761 711 q 535 793 628 793 q 385 752 449 793 q 292 647 322 711 q 259 506 263 583 q 280 358 256 429 q 360 228 304 286 q 492 149 415 171 l 492 0 l 56 0 l 56 199 z "},"μ":{"ha":729,"x_min":75,"x_max":657,"o":"m 485 -1 l 469 46 q 370 -13 438 -11 q 271 49 303 -15 l 271 -260 l 75 -260 l 75 717 l 272 717 l 272 281 q 319 190 272 215 q 411 192 365 165 q 457 278 457 218 l 457 717 l 654 717 l 657 -3 l 485 -1 z "},"π":{"ha":790,"x_min":13,"x_max":751,"o":"m 711 192 l 713 -6 q 511 60 568 3 q 454 224 454 117 l 454 529 l 346 529 l 346 0 l 154 0 l 154 524 q 83 504 119 518 l 51 503 l 13 654 q 70 689 54 681 q 125 708 86 697 q 208 719 164 719 l 751 719 l 733 529 l 649 529 l 649 229 q 663 199 649 207 q 711 192 676 190 z "},"Ё":{"ha":810,"x_min":86,"x_max":753,"o":"m 161 1153 q 192 1229 161 1199 q 268 1260 224 1260 q 343 1228 311 1260 q 375 1153 375 1197 q 343 1079 375 1110 q 268 1049 311 1049 q 192 1079 224 1049 q 161 1153 161 1110 m 463 1153 q 493 1229 463 1199 q 569 1260 524 1260 q 647 1229 615 1260 q 678 1153 678 1199 q 647 1078 678 1108 q 569 1049 615 1049 q 493 1078 524 1049 q 463 1153 463 1108 m 292 785 l 292 592 l 715 592 l 715 393 l 292 393 l 292 199 l 753 199 l 753 0 l 86 0 l 86 985 l 753 985 l 753 785 l 292 785 z "},"А":{"ha":881,"x_min":-4,"x_max":889,"o":"m 536 983 l 889 0 l 675 0 l 589 225 l 296 225 l 214 0 l -4 0 l 340 983 l 536 983 m 403 625 l 347 413 l 536 413 l 474 626 l 443 767 l 433 767 l 403 625 z "},"Б":{"ha":856,"x_min":86,"x_max":825,"o":"m 290 610 l 471 610 q 742 538 658 610 q 825 310 825 465 q 731 81 825 161 q 478 0 638 0 l 86 0 l 86 983 l 746 983 l 746 806 l 290 806 l 290 610 m 290 183 l 476 183 q 588 216 551 183 q 624 319 624 249 q 472 454 624 454 l 290 454 l 290 183 z "},"В":{"ha":868,"x_min":86,"x_max":835,"o":"m 783 696 q 760 599 783 649 q 690 524 736 550 q 805 408 775 482 q 822 250 835 335 q 724 70 807 140 q 482 0 640 0 l 86 0 l 86 985 l 475 985 q 696 909 608 985 q 783 696 783 833 m 290 599 l 475 599 q 572 645 542 599 q 575 738 601 692 q 475 785 549 785 l 290 785 l 290 599 m 290 199 l 475 199 q 582 234 543 199 q 621 311 621 269 q 583 388 621 353 q 475 424 544 424 l 290 424 l 290 199 z "},"Г":{"ha":714,"x_min":86,"x_max":696,"o":"m 290 0 l 86 0 l 86 983 l 696 983 l 696 789 l 290 789 l 290 0 z "},"Д":{"ha":986,"x_min":24,"x_max":947,"o":"m 947 -189 l 742 -189 l 742 0 l 231 0 l 231 -189 l 24 -189 l 24 186 l 38 186 q 94 199 69 188 q 135 224 118 210 q 165 268 153 239 q 185 323 178 297 q 197 395 192 349 q 205 477 203 442 q 211 575 207 513 q 213 599 213 590 q 213 620 213 607 q 215 644 214 633 l 239 983 l 854 983 l 854 186 l 947 186 l 947 -189 m 428 789 l 407 485 q 347 186 394 288 l 650 186 l 650 789 l 428 789 z "},"Е":{"ha":810,"x_min":86,"x_max":753,"o":"m 292 785 l 292 592 l 715 592 l 715 393 l 292 393 l 292 199 l 753 199 l 753 0 l 86 0 l 86 985 l 753 985 l 753 785 l 292 785 z "},"Ж":{"ha":1308,"x_min":-8,"x_max":1317,"o":"m 1060 0 l 793 396 l 757 356 l 757 0 l 551 0 l 551 356 l 515 396 l 249 0 l -7 0 l 361 506 l -8 983 l 242 983 l 551 571 l 551 983 l 757 983 l 757 571 l 1067 983 l 1317 983 l 947 506 l 1317 0 l 1060 0 z "},"З":{"ha":782,"x_min":7,"x_max":738,"o":"m 379 997 q 617 922 533 997 q 700 717 700 847 q 673 606 700 660 q 597 525 646 553 q 738 290 738 453 q 636 65 736 143 q 363 -14 536 -14 q 154 35 247 -14 q 7 176 61 83 l 147 282 q 354 172 235 172 q 533 301 533 172 q 375 432 533 432 l 232 432 l 232 590 l 371 590 q 472 619 435 590 q 508 706 508 649 q 471 789 508 760 q 364 818 433 818 q 169 736 257 818 l 53 844 q 379 997 169 997 z "},"И":{"ha":953,"x_min":86,"x_max":867,"o":"m 663 490 l 679 647 l 674 649 l 592 489 l 289 0 l 86 0 l 86 983 l 290 983 l 290 454 l 275 315 l 281 314 l 357 468 l 671 983 l 867 983 l 867 0 l 663 0 l 663 490 z "},"Й":{"ha":953,"x_min":86,"x_max":867,"o":"m 553 1297 l 719 1297 q 644 1127 715 1188 q 474 1067 572 1067 q 303 1128 375 1067 q 229 1297 232 1189 l 396 1297 q 474 1225 403 1225 q 553 1297 544 1225 m 663 496 l 679 647 l 674 649 l 593 492 l 289 0 l 86 0 l 86 983 l 290 983 l 290 453 l 276 315 l 281 314 l 358 469 l 671 983 l 867 983 l 867 0 l 663 0 l 663 496 z "},"К":{"ha":882,"x_min":86,"x_max":894,"o":"m 894 983 l 476 503 l 892 0 l 633 0 l 331 376 l 290 336 l 290 0 l 86 0 l 86 983 l 290 983 l 290 575 l 638 983 l 894 983 z "},"Л":{"ha":972,"x_min":24,"x_max":888,"o":"m 682 789 l 446 789 l 428 485 q 409 328 422 397 q 367 192 396 258 q 294 83 338 126 q 181 17 250 40 q 24 0 113 -6 l 24 192 q 190 304 149 188 q 229 583 217 374 q 233 644 232 624 l 256 983 l 888 983 l 888 0 l 682 0 l 682 789 z "},"М":{"ha":1081,"x_min":86,"x_max":994,"o":"m 753 444 l 618 129 l 465 129 l 329 446 l 282 581 l 268 581 l 290 390 l 290 0 l 86 0 l 86 983 l 300 983 l 539 418 l 781 983 l 994 983 l 994 0 l 790 0 l 790 392 l 815 582 l 800 582 l 753 444 z "},"Н":{"ha":943,"x_min":86,"x_max":857,"o":"m 290 389 l 290 0 l 86 0 l 86 983 l 290 983 l 290 593 l 653 593 l 653 983 l 857 983 l 857 0 l 653 0 l 653 389 l 290 389 z "},"О":{"ha":924,"x_min":60,"x_max":864,"o":"m 60 314 l 60 669 q 119 851 60 774 q 267 963 178 928 q 461 997 357 997 q 744 910 625 997 q 864 669 864 824 l 864 314 q 745 73 864 160 q 463 -14 626 -14 q 179 73 299 -14 q 60 314 60 160 m 263 669 l 263 314 q 322 213 263 249 q 463 178 381 178 q 602 214 543 178 q 661 314 661 250 l 661 669 q 601 773 661 738 q 460 808 542 808 q 321 772 379 808 q 263 669 263 735 z "},"П":{"ha":935,"x_min":86,"x_max":849,"o":"m 643 789 l 290 789 l 290 0 l 86 0 l 86 983 l 849 983 l 849 0 l 643 0 l 643 789 z "},"Р":{"ha":857,"x_min":86,"x_max":826,"o":"m 86 0 l 86 983 l 474 983 q 613 960 550 983 q 717 897 676 936 q 787 807 758 858 q 821 699 815 756 q 820 587 826 643 q 785 480 814 531 q 716 390 757 429 q 613 327 675 350 q 475 304 550 304 l 289 304 l 289 0 l 86 0 m 289 496 l 474 496 q 585 540 544 496 q 625 637 625 583 q 585 734 625 690 q 474 778 544 778 l 289 778 l 289 496 z "},"С":{"ha":810,"x_min":60,"x_max":796,"o":"m 619 290 l 796 192 q 641 39 735 92 q 446 -14 547 -14 q 175 73 290 -14 q 60 313 60 160 l 60 671 q 174 910 60 824 q 446 997 289 997 q 645 943 550 997 q 788 786 740 889 l 624 697 q 543 777 596 750 q 431 803 490 804 q 312 765 361 801 q 263 671 263 729 l 263 313 q 310 219 263 254 q 426 183 358 185 q 538 209 485 182 q 619 290 592 236 z "},"Т":{"ha":801,"x_min":18,"x_max":783,"o":"m 503 0 l 297 0 l 297 789 l 18 789 l 18 985 l 783 985 l 783 789 l 503 789 l 503 0 z "},"У":{"ha":797,"x_min":-32,"x_max":813,"o":"m 293 317 l -32 983 l 200 983 l 338 683 l 392 542 l 397 542 l 457 690 l 588 983 l 813 983 l 368 0 l 149 0 l 293 317 z "},"Ф":{"ha":1079,"x_min":42,"x_max":1038,"o":"m 638 983 l 638 900 q 831 872 744 900 q 978 771 918 843 q 1038 592 1038 699 l 1038 392 q 1015 274 1038 326 q 955 186 993 221 q 865 128 917 151 q 756 95 813 106 q 638 85 700 85 l 638 0 l 442 0 l 442 85 q 323 95 379 85 q 215 128 267 106 q 124 186 163 151 q 64 274 86 221 q 42 392 42 326 l 42 592 q 101 771 42 699 q 248 872 161 843 q 442 900 335 900 l 442 983 l 638 983 m 442 268 l 442 715 q 246 593 246 715 l 246 390 q 442 268 246 268 m 638 715 l 638 268 q 833 390 833 268 l 833 593 q 638 715 833 715 z "},"Х":{"ha":876,"x_min":-1,"x_max":879,"o":"m 879 0 l 629 0 l 432 347 l 250 0 l -1 0 l 289 490 l 1 983 l 250 983 l 432 633 l 631 983 l 879 983 l 568 489 l 879 0 z "},"Ц":{"ha":967,"x_min":85,"x_max":928,"o":"m 928 -189 l 732 -189 l 732 0 l 85 0 l 85 983 l 289 983 l 289 194 l 631 194 l 631 983 l 835 983 l 835 194 l 928 194 l 928 -189 z "},"Ч":{"ha":872,"x_min":49,"x_max":786,"o":"m 582 0 l 582 354 q 383 286 501 286 q 145 372 242 286 q 49 613 49 457 l 49 983 l 253 983 l 253 613 q 291 515 253 549 q 397 482 329 482 q 581 542 517 482 l 582 983 l 786 983 l 786 0 l 582 0 z "},"Ш":{"ha":1324,"x_min":86,"x_max":1238,"o":"m 86 983 l 290 983 l 290 194 l 558 194 l 558 983 l 764 983 l 764 194 l 1032 194 l 1032 983 l 1238 983 l 1238 0 l 86 0 l 86 983 z "},"Щ":{"ha":1372,"x_min":85,"x_max":1333,"o":"m 1333 -189 l 1138 -189 l 1138 0 l 85 0 l 85 983 l 289 983 l 289 194 l 557 194 l 557 983 l 763 983 l 763 194 l 1031 194 l 1031 983 l 1236 983 l 1236 194 l 1333 194 l 1333 -189 z "},"Ъ":{"ha":975,"x_min":24,"x_max":942,"o":"m 408 636 l 590 636 q 857 557 772 636 q 942 324 942 478 q 848 88 942 175 q 597 0 754 0 l 204 0 l 204 790 l 24 790 l 24 983 l 408 983 l 408 636 m 408 183 l 594 183 q 740 326 740 183 q 590 469 740 469 l 408 469 l 408 183 z "},"Ы":{"ha":1233,"x_min":86,"x_max":1147,"o":"m 290 636 l 471 636 q 738 558 654 636 q 822 324 822 479 q 728 88 822 175 q 478 0 635 0 l 86 0 l 86 983 l 290 983 l 290 636 m 943 983 l 1147 983 l 1147 0 l 943 0 l 943 983 m 290 183 l 475 183 q 622 326 622 183 q 472 469 622 469 l 290 469 l 290 183 z "},"Ь":{"ha":857,"x_min":86,"x_max":824,"o":"m 292 636 l 472 636 q 740 558 656 636 q 824 324 824 479 q 730 88 824 175 q 479 0 636 0 l 86 0 l 86 983 l 292 983 l 292 636 m 292 183 l 476 183 q 622 326 622 183 q 474 469 622 469 l 292 469 l 292 183 z "},"Э":{"ha":821,"x_min":25,"x_max":761,"o":"m 374 997 q 646 909 531 997 q 761 668 761 821 l 761 315 q 647 74 761 161 q 378 -12 532 -12 q 176 42 272 -12 q 25 203 79 96 l 204 285 q 275 209 226 235 q 383 183 324 183 q 506 219 454 183 q 557 315 557 254 l 557 407 l 264 407 l 264 582 l 557 582 l 557 668 q 503 767 557 731 q 378 804 450 804 q 272 779 321 804 q 197 707 222 754 l 28 779 q 173 944 79 892 q 374 997 267 997 z "},"Ю":{"ha":1326,"x_min":83,"x_max":1267,"o":"m 863 997 q 1147 910 1026 997 q 1267 669 1267 824 l 1267 314 q 1147 73 1267 160 q 863 -14 1026 -14 q 579 73 699 -14 q 460 314 460 160 l 460 403 l 288 403 l 288 0 l 83 0 l 83 983 l 288 983 l 288 590 l 460 590 l 460 669 q 519 851 460 775 q 668 963 579 928 q 863 997 757 997 m 861 803 q 722 765 781 801 q 664 663 664 728 l 664 318 q 723 217 664 254 q 863 181 782 181 q 1003 217 943 181 q 1063 318 1063 253 l 1063 663 q 1003 767 1063 731 q 861 803 943 803 z "},"Я":{"ha":886,"x_min":-26,"x_max":800,"o":"m 594 354 l 519 354 l 231 0 l -26 0 l 289 372 q 54 669 54 422 q 152 903 56 822 q 414 983 249 983 l 800 983 l 800 0 l 594 0 l 594 354 m 594 789 l 411 789 q 258 657 258 789 q 298 556 258 592 q 411 521 338 521 l 594 521 l 594 789 z "},"а":{"ha":672,"x_min":38,"x_max":607,"o":"m 38 214 q 112 390 38 331 q 293 449 186 449 q 421 426 357 449 l 421 478 q 310 578 421 578 q 228 558 271 578 q 158 511 185 539 l 64 613 q 324 733 167 731 q 524 667 442 733 q 607 478 607 601 l 607 39 q 336 -14 467 -14 q 113 47 188 -14 q 38 214 38 107 m 415 144 l 415 290 q 328 307 371 307 q 248 283 275 307 q 221 219 221 260 q 333 135 221 135 q 415 144 378 135 z "},"б":{"ha":710,"x_min":69,"x_max":654,"o":"m 561 1035 l 618 888 q 410 819 549 838 q 300 796 325 811 q 263 718 264 771 l 263 635 q 404 676 321 676 q 585 610 517 676 q 654 428 654 544 l 654 236 q 567 52 654 118 q 363 -14 481 -14 q 157 52 244 -14 q 69 236 69 118 l 69 738 q 93 849 69 803 q 160 919 117 894 q 242 954 203 943 q 332 972 281 965 q 561 1035 486 992 m 365 510 q 263 478 304 510 l 263 242 q 292 183 263 204 q 363 161 322 161 q 431 183 401 161 q 461 242 461 204 l 461 431 q 433 490 461 469 q 365 510 406 510 z "},"в":{"ha":713,"x_min":75,"x_max":667,"o":"m 75 719 l 381 719 q 642 535 642 719 q 560 383 642 432 q 667 199 667 332 q 592 49 667 99 q 381 0 517 0 l 75 0 l 75 719 m 268 429 l 375 429 q 440 450 415 429 q 464 506 464 471 q 372 579 463 579 l 268 579 l 268 429 m 268 140 l 375 140 q 482 224 481 140 q 456 290 483 271 q 375 310 428 310 l 268 310 l 268 140 z "},"г":{"ha":553,"x_min":75,"x_max":533,"o":"m 268 0 l 75 0 l 75 719 l 533 719 l 533 546 l 268 546 l 268 0 z "},"д":{"ha":818,"x_min":28,"x_max":783,"o":"m 783 -164 l 600 -164 l 600 0 l 213 0 l 213 -164 l 28 -164 l 28 163 l 39 163 q 102 179 78 164 q 140 233 126 194 q 160 311 154 271 q 172 428 167 351 l 197 719 l 699 719 l 699 163 l 783 163 l 783 -164 m 361 551 l 347 349 q 304 163 339 214 l 511 163 l 511 551 l 361 551 z "},"е":{"ha":672,"x_min":56,"x_max":626,"o":"m 471 214 l 597 122 q 489 19 558 51 q 346 -14 419 -14 q 142 53 228 -14 q 56 242 56 121 l 56 479 q 142 667 56 601 q 349 733 229 733 q 546 672 465 733 q 626 488 626 610 l 626 276 l 250 276 l 250 244 q 282 182 250 204 q 358 160 314 160 q 471 214 438 160 m 444 419 l 444 485 q 417 540 444 521 q 350 560 389 560 q 280 540 310 560 q 250 483 250 519 l 250 419 l 444 419 z "},"ж":{"ha":1039,"x_min":6,"x_max":1032,"o":"m 808 0 l 631 265 l 614 249 l 614 0 l 425 0 l 425 249 l 407 267 l 229 0 l 10 0 l 282 379 l 6 719 l 229 719 l 425 457 l 425 719 l 614 719 l 614 457 l 808 719 l 1032 719 l 756 379 l 1029 0 l 808 0 z "},"з":{"ha":626,"x_min":21,"x_max":582,"o":"m 303 733 q 483 683 408 735 q 557 542 557 632 q 532 447 557 489 q 468 385 507 406 q 582 204 582 336 q 499 42 581 97 q 303 -14 417 -14 q 147 13 211 -14 q 21 115 82 40 l 138 211 q 278 149 190 149 q 358 167 326 149 q 390 221 390 185 q 365 283 390 265 q 285 300 339 300 l 192 300 l 192 442 l 281 442 q 344 458 324 442 q 365 513 365 474 q 342 561 365 543 q 276 579 318 579 q 151 525 206 579 l 49 611 q 303 733 129 733 z "},"и":{"ha":764,"x_min":75,"x_max":689,"o":"m 494 325 l 507 461 l 503 463 l 461 347 l 276 0 l 75 0 l 75 719 l 268 719 l 268 378 l 258 240 l 263 240 l 307 354 l 486 719 l 689 719 l 689 0 l 494 0 l 494 325 z "},"й":{"ha":764,"x_min":75,"x_max":689,"o":"m 478 1021 l 639 1021 q 569 858 636 915 q 411 800 501 800 q 262 860 326 800 q 194 1021 197 919 l 356 1021 q 376 978 358 994 q 417 963 393 963 q 458 978 440 963 q 478 1021 476 993 m 494 325 l 507 461 l 503 463 l 461 347 l 276 0 l 75 0 l 75 719 l 268 719 l 268 378 l 258 240 l 263 240 l 307 354 l 486 719 l 689 719 l 689 0 l 494 0 l 494 325 z "},"к":{"ha":717,"x_min":75,"x_max":710,"o":"m 483 0 l 296 260 l 268 233 l 268 0 l 75 0 l 75 719 l 268 719 l 268 458 l 483 719 l 710 719 l 426 378 l 707 0 l 483 0 z "},"л":{"ha":763,"x_min":28,"x_max":688,"o":"m 494 546 l 367 546 l 350 336 q 271 72 336 144 q 28 0 206 0 l 28 163 q 136 210 111 163 q 172 410 161 257 l 197 719 l 688 719 l 688 0 l 494 0 l 494 546 z "},"м":{"ha":906,"x_min":75,"x_max":831,"o":"m 636 293 l 650 419 l 644 419 l 513 101 l 393 101 l 261 419 l 256 419 l 269 286 l 269 0 l 75 0 l 75 719 l 288 719 l 453 322 l 618 719 l 831 719 l 831 0 l 636 0 l 636 293 z "},"н":{"ha":732,"x_min":75,"x_max":657,"o":"m 463 289 l 268 289 l 268 0 l 75 0 l 75 719 l 268 719 l 268 463 l 463 463 l 463 719 l 657 719 l 657 0 l 463 0 l 463 289 z "},"о":{"ha":686,"x_min":56,"x_max":632,"o":"m 56 242 l 56 476 q 141 665 56 597 q 344 733 226 732 q 547 665 461 732 q 632 476 632 597 l 632 242 q 547 53 632 119 q 344 -14 463 -12 q 141 53 226 -12 q 56 242 56 119 m 344 560 q 278 540 307 560 q 249 489 249 521 l 249 238 q 278 182 249 204 q 344 160 308 160 q 409 182 379 160 q 439 238 439 204 l 439 489 q 410 540 439 521 q 344 560 381 560 z "},"п":{"ha":732,"x_min":75,"x_max":657,"o":"m 463 546 l 268 546 l 268 0 l 75 0 l 75 719 l 657 719 l 657 0 l 463 0 l 463 546 z "},"р":{"ha":718,"x_min":79,"x_max":658,"o":"m 79 -264 l 79 679 q 360 733 221 733 q 658 493 658 733 l 658 231 q 580 49 658 111 q 390 -14 501 -12 q 274 11 328 -14 l 274 -264 l 79 -264 m 274 569 l 274 151 q 349 135 303 135 q 432 159 399 135 q 465 231 465 183 l 465 503 q 433 565 465 544 q 351 586 401 586 q 274 569 307 586 z "},"с":{"ha":651,"x_min":56,"x_max":625,"o":"m 456 238 l 625 182 q 512 33 590 81 q 344 -14 433 -14 q 142 53 228 -14 q 56 240 56 119 l 56 478 q 142 666 56 599 q 344 733 228 733 q 513 687 435 733 q 617 539 590 640 l 451 488 q 410 542 440 524 q 344 560 381 560 q 277 538 306 560 q 249 479 249 515 l 249 242 q 277 182 249 204 q 344 160 306 160 q 412 179 381 160 q 456 238 443 199 z "},"т":{"ha":624,"x_min":21,"x_max":601,"o":"m 408 0 l 214 0 l 214 554 l 21 554 l 21 719 l 601 719 l 601 554 l 408 554 l 408 0 z "},"у":{"ha":718,"x_min":71,"x_max":643,"o":"m 643 719 l 643 6 q 560 -208 643 -133 q 344 -283 478 -283 q 93 -187 189 -283 l 185 -67 q 322 -119 240 -119 q 423 -89 388 -119 q 457 10 458 -58 q 335 -14 386 -14 q 142 48 214 -14 q 71 224 71 110 l 71 719 l 257 719 l 257 226 q 368 142 257 142 q 449 164 410 142 l 449 719 l 643 719 z "},"ф":{"ha":997,"x_min":61,"x_max":938,"o":"m 594 983 l 594 715 q 689 733 628 733 q 871 669 804 733 q 938 493 938 606 l 938 226 q 871 50 938 114 q 689 -14 804 -14 q 594 4 628 -14 l 594 -256 l 406 -256 l 406 4 q 311 -14 372 -14 q 128 50 196 -14 q 61 226 61 114 l 61 493 q 128 669 61 606 q 311 733 196 733 q 406 715 372 733 l 406 983 l 594 983 m 351 571 q 283 549 311 571 q 256 485 256 526 l 256 235 q 283 171 256 193 q 351 149 311 149 q 406 163 381 149 l 406 557 q 351 571 381 571 m 649 571 q 594 557 619 571 l 594 163 q 649 149 619 149 q 717 171 689 149 q 744 235 744 193 l 744 485 q 717 549 744 526 q 649 571 689 571 z "},"х":{"ha":724,"x_min":11,"x_max":714,"o":"m 711 719 l 472 361 q 593 180 507 311 q 714 0 679 49 l 485 0 l 392 150 l 364 224 l 354 224 l 322 147 q 229 0 239 15 l 11 0 l 244 360 q 206 422 233 376 q 131 540 179 467 q 11 719 83 614 l 229 719 l 329 556 l 356 488 l 364 488 l 389 556 q 430 625 399 569 q 485 719 461 681 l 711 719 z "},"ц":{"ha":768,"x_min":74,"x_max":728,"o":"m 728 -172 l 551 -172 l 542 0 l 74 0 l 74 719 l 267 719 l 267 163 l 457 163 l 457 719 l 651 719 l 651 163 l 728 163 l 728 -172 z "},"ч":{"ha":694,"x_min":44,"x_max":619,"o":"m 425 0 l 425 236 q 290 200 368 200 q 119 258 194 200 q 44 436 44 317 l 44 719 l 239 719 l 239 465 q 329 375 239 375 q 425 399 382 375 l 425 719 l 619 719 l 619 0 l 425 0 z "},"ш":{"ha":1047,"x_min":75,"x_max":972,"o":"m 268 169 l 426 169 l 426 719 l 621 719 l 621 169 l 779 169 l 779 719 l 972 719 l 972 0 l 75 0 l 75 719 l 268 719 l 268 169 z "},"щ":{"ha":1088,"x_min":74,"x_max":1047,"o":"m 1047 -172 l 869 -172 l 861 0 l 74 0 l 74 719 l 267 719 l 267 163 l 425 163 l 425 719 l 619 719 l 619 163 l 778 163 l 778 719 l 971 719 l 971 163 l 1047 163 l 1047 -172 z "},"ъ":{"ha":757,"x_min":24,"x_max":729,"o":"m 329 479 l 483 479 q 667 415 604 479 q 729 233 729 350 q 443 0 729 0 l 136 0 l 136 574 l 24 574 l 24 719 l 329 719 l 329 479 m 329 140 l 438 140 q 516 166 488 140 q 544 239 544 192 q 519 318 546 293 q 438 343 492 343 l 329 343 l 329 140 z "},"ы":{"ha":1028,"x_min":75,"x_max":953,"o":"m 269 479 l 424 479 q 607 415 544 479 q 669 233 669 350 q 383 0 669 0 l 75 0 l 75 719 l 269 719 l 269 479 m 760 719 l 953 719 l 953 0 l 760 0 l 760 719 m 269 140 l 378 140 q 456 166 428 140 q 485 239 483 192 q 458 318 486 293 q 378 343 431 343 l 269 343 l 269 140 z "},"ь":{"ha":696,"x_min":75,"x_max":668,"o":"m 268 479 l 422 479 q 606 415 543 479 q 668 233 668 350 q 383 0 668 0 l 75 0 l 75 719 l 268 719 l 268 479 m 268 140 l 378 140 q 456 166 428 140 q 485 239 483 192 q 376 343 485 343 l 268 343 l 268 140 z "},"э":{"ha":657,"x_min":29,"x_max":601,"o":"m 308 733 q 513 665 425 733 q 601 476 601 597 l 601 242 q 513 54 601 121 q 308 -12 425 -12 q 29 171 90 -12 l 194 236 q 307 151 224 151 q 378 171 350 151 q 407 233 407 190 l 407 285 l 235 285 l 235 431 l 407 431 l 407 474 q 378 535 407 513 q 310 558 349 558 q 204 489 231 561 l 44 554 q 150 690 76 647 q 308 733 224 733 z "},"ю":{"ha":1019,"x_min":72,"x_max":964,"o":"m 672 733 q 877 665 790 732 q 964 476 964 597 l 964 236 q 877 52 964 118 q 672 -14 790 -14 q 467 52 554 -14 q 379 236 379 118 l 379 294 l 265 294 l 265 0 l 72 0 l 72 719 l 265 719 l 265 454 l 379 454 l 379 489 q 468 667 379 603 q 672 733 557 732 m 672 558 q 603 538 633 558 q 572 479 572 517 l 572 242 q 603 183 574 204 q 672 161 632 161 q 740 183 711 161 q 771 242 769 204 l 771 479 q 740 538 771 517 q 672 558 710 558 z "},"я":{"ha":714,"x_min":4,"x_max":639,"o":"m 447 267 l 407 267 l 225 0 l 4 0 l 219 285 q 98 355 143 303 q 53 493 53 407 q 342 719 53 719 l 639 719 l 639 0 l 446 0 l 447 267 m 446 579 l 340 579 q 236 488 236 579 q 344 390 236 390 l 446 390 l 446 579 z "},"ё":{"ha":672,"x_min":56,"x_max":626,"o":"m 101 890 q 133 967 101 936 q 208 997 164 997 q 283 966 251 997 q 315 890 315 935 q 283 817 315 847 q 208 786 251 786 q 133 817 164 786 q 101 890 101 847 m 389 890 q 419 967 389 936 q 496 997 450 997 q 573 967 542 997 q 604 890 604 936 q 573 816 604 846 q 496 786 542 786 q 419 816 450 786 q 389 890 389 846 m 471 214 l 597 122 q 489 19 558 51 q 346 -14 419 -14 q 142 53 228 -14 q 56 242 56 121 l 56 479 q 142 667 56 601 q 349 733 229 733 q 546 672 465 733 q 626 488 626 610 l 626 276 l 250 276 l 250 244 q 282 182 250 204 q 358 160 314 160 q 471 214 438 160 m 444 419 l 444 485 q 417 540 444 521 q 350 560 389 560 q 280 540 310 560 q 250 483 250 519 l 250 419 l 444 419 z "},"Ẁ":{"ha":1278,"x_min":4,"x_max":1274,"o":"m 767 1050 l 586 1050 l 424 1247 l 651 1247 l 767 1050 m 289 0 l 4 983 l 215 983 l 356 469 l 386 240 l 399 240 l 432 471 q 497 667 461 567 q 557 847 532 767 l 722 847 l 842 468 l 882 231 l 894 231 l 921 468 l 1064 983 l 1274 983 l 990 0 l 790 0 l 664 379 l 642 497 l 631 497 q 626 477 629 489 q 618 439 624 465 q 608 394 613 413 l 604 378 l 489 0 l 289 0 z "},"ẁ":{"ha":974,"x_min":8,"x_max":963,"o":"m 614 786 l 433 786 l 271 983 l 499 983 l 614 786 m 464 260 l 407 0 l 226 0 l 8 719 l 199 719 l 279 429 l 301 242 l 304 242 l 325 417 l 417 719 l 557 719 l 646 418 l 667 242 l 669 242 l 694 431 l 769 719 l 963 719 l 750 0 l 569 0 l 510 260 l 488 456 l 485 456 l 464 260 z "},"Ẃ":{"ha":1278,"x_min":4,"x_max":1274,"o":"m 888 1247 l 708 1050 l 519 1050 l 651 1247 l 888 1247 m 289 0 l 4 983 l 215 983 l 356 469 l 386 240 l 399 240 l 432 471 q 497 667 461 567 q 557 847 532 767 l 722 847 l 842 468 l 882 231 l 894 231 l 921 468 l 1064 983 l 1274 983 l 990 0 l 790 0 l 664 379 l 642 497 l 631 497 q 626 477 629 489 q 618 439 624 465 q 608 394 613 413 l 604 378 l 489 0 l 289 0 z "},"ẃ":{"ha":974,"x_min":8,"x_max":963,"o":"m 735 983 l 556 786 l 367 786 l 499 983 l 735 983 m 464 260 l 407 0 l 226 0 l 8 719 l 199 719 l 279 429 l 301 242 l 304 242 l 325 417 l 417 719 l 557 719 l 646 418 l 667 242 l 669 242 l 694 431 l 769 719 l 963 719 l 750 0 l 569 0 l 510 260 l 488 456 l 485 456 l 464 260 z "},"Ẅ":{"ha":1278,"x_min":4,"x_max":1274,"o":"m 382 1153 q 413 1229 382 1199 q 489 1260 444 1260 q 564 1228 532 1260 q 596 1153 596 1197 q 564 1079 596 1110 q 489 1049 532 1049 q 413 1079 444 1049 q 382 1153 382 1110 m 683 1153 q 714 1229 683 1199 q 790 1260 744 1260 q 867 1229 836 1260 q 899 1153 899 1199 q 867 1078 899 1108 q 790 1049 836 1049 q 714 1078 744 1049 q 683 1153 683 1108 m 289 0 l 4 983 l 215 983 l 356 469 l 386 240 l 399 240 l 432 471 q 497 667 461 567 q 557 847 532 767 l 722 847 l 842 468 l 882 231 l 894 231 l 921 468 l 1064 983 l 1274 983 l 990 0 l 790 0 l 664 379 l 642 497 l 631 497 q 626 477 629 489 q 618 439 624 465 q 608 394 613 413 l 604 378 l 489 0 l 289 0 z "},"ẅ":{"ha":974,"x_min":8,"x_max":963,"o":"m 229 889 q 260 965 229 935 q 336 996 292 996 q 411 965 379 996 q 443 889 443 933 q 411 815 443 846 q 336 785 379 785 q 260 815 292 785 q 229 889 229 846 m 531 889 q 561 965 531 935 q 638 996 592 996 q 715 965 683 996 q 746 889 746 935 q 715 815 746 844 q 638 785 683 785 q 561 815 592 785 q 531 889 531 844 m 464 260 l 407 0 l 226 0 l 8 719 l 199 719 l 279 429 l 301 242 l 304 242 l 325 417 l 417 719 l 557 719 l 646 418 l 667 242 l 669 242 l 694 431 l 769 719 l 963 719 l 750 0 l 569 0 l 510 260 l 488 456 l 485 456 l 464 260 z "},"Ỳ":{"ha":872,"x_min":-8,"x_max":881,"o":"m 563 1050 l 382 1050 l 219 1247 l 447 1247 l 563 1050 m 538 0 l 333 0 l 333 376 l -8 983 l 226 983 l 435 572 l 643 983 l 881 983 l 538 376 l 538 0 z "},"ỳ":{"ha":718,"x_min":71,"x_max":643,"o":"m 483 786 l 303 786 l 140 983 l 368 983 l 483 786 m 643 719 l 643 6 q 560 -208 643 -133 q 344 -283 478 -283 q 93 -187 189 -283 l 185 -67 q 322 -119 240 -119 q 423 -89 388 -119 q 457 10 458 -58 q 335 -14 386 -14 q 142 48 214 -14 q 71 224 71 110 l 71 719 l 257 719 l 257 226 q 368 142 257 142 q 449 164 410 142 l 449 719 l 643 719 z "},"–":{"ha":800,"x_min":69,"x_max":729,"o":"m 729 503 l 729 308 l 69 308 l 69 503 l 729 503 z "},"—":{"ha":1249,"x_min":69,"x_max":1178,"o":"m 1178 503 l 1178 308 l 69 308 l 69 503 l 1178 503 z "},"‘":{"ha":393,"x_min":40,"x_max":360,"o":"m 40 661 l 183 982 l 360 982 l 274 661 l 40 661 z "},"’":{"ha":385,"x_min":46,"x_max":365,"o":"m 365 981 l 222 660 l 46 660 l 132 981 l 365 981 z "},"‚":{"ha":375,"x_min":1,"x_max":319,"o":"m 319 171 l 171 -157 l 1 -157 l 94 171 l 319 171 z "},"“":{"ha":658,"x_min":40,"x_max":619,"o":"m 40 661 l 183 982 l 360 982 l 274 661 l 40 661 m 319 661 l 443 982 l 619 982 l 553 661 l 319 661 z "},"”":{"ha":647,"x_min":49,"x_max":628,"o":"m 349 981 l 225 660 l 49 660 l 115 981 l 349 981 m 628 981 l 485 660 l 308 660 l 394 981 l 628 981 z "},"„":{"ha":649,"x_min":1,"x_max":594,"o":"m 319 171 l 171 -157 l 1 -157 l 94 171 l 319 171 m 594 171 l 446 -157 l 276 -157 l 369 171 l 594 171 z "},"†":{"ha":704,"x_min":35,"x_max":669,"o":"m 35 525 l 35 714 l 254 714 l 254 982 l 450 982 l 450 714 l 669 714 l 669 525 l 450 525 l 450 -144 l 254 -144 l 254 525 l 35 525 z "},"‡":{"ha":763,"x_min":64,"x_max":699,"o":"m 64 104 l 64 293 l 283 293 l 283 546 l 64 546 l 64 733 l 283 733 l 283 985 l 479 985 l 479 733 l 699 733 l 699 546 l 479 546 l 479 293 l 699 293 l 699 104 l 479 104 l 479 -144 l 283 -144 l 283 104 l 64 104 z "},"•":{"ha":574,"x_min":74,"x_max":500,"o":"m 136 316 q 105 348 136 316 q 74 468 74 379 q 136 619 74 557 q 288 682 199 682 q 438 619 376 682 q 500 468 500 557 q 438 316 500 379 q 288 253 376 253 q 136 316 199 253 z "},"…":{"ha":994,"x_min":49,"x_max":946,"o":"m 49 107 q 83 192 49 157 q 169 226 118 226 q 254 192 219 226 q 289 107 289 157 q 254 21 289 56 q 169 -14 219 -14 q 83 21 118 -14 q 49 107 49 56 m 378 107 q 412 192 378 157 q 496 226 446 226 q 582 192 547 226 q 617 107 617 157 q 582 21 617 56 q 496 -14 547 -14 q 412 21 446 -14 q 378 107 378 56 m 707 107 q 741 192 707 157 q 825 226 775 226 q 911 192 876 226 q 946 107 946 157 q 911 21 946 56 q 825 -14 876 -14 q 741 21 775 -14 q 707 107 707 56 z "},"‰":{"ha":1478,"x_min":36,"x_max":1444,"o":"m 114 22 l 756 1014 l 886 935 l 243 -51 l 114 22 m 449 746 q 390 564 449 632 q 242 496 332 496 q 90 560 143 496 q 36 749 36 625 q 94 928 36 861 q 242 996 151 996 q 394 931 340 996 q 449 746 449 865 m 304 746 q 239 851 304 851 q 172 747 172 851 q 239 642 172 642 q 304 746 304 642 m 981 244 q 922 63 981 131 q 774 -6 864 -6 q 622 59 675 -6 q 568 247 568 124 q 626 427 568 360 q 774 494 683 494 q 926 429 872 494 q 981 244 981 364 m 1444 244 q 1386 63 1444 131 q 1238 -6 1328 -6 q 1085 59 1139 -6 q 1032 247 1032 124 q 1090 427 1032 360 q 1238 494 1147 494 q 1390 429 1336 494 q 1444 244 1444 364 m 836 244 q 771 350 836 350 q 704 246 704 350 q 771 140 704 140 q 836 244 836 140 m 1300 244 q 1235 350 1300 350 q 1168 246 1168 350 q 1235 140 1168 140 q 1300 244 1300 140 z "},"‹":{"ha":456,"x_min":33,"x_max":413,"o":"m 247 719 l 413 619 l 264 403 q 413 181 349 274 l 246 82 l 33 401 l 247 719 z "},"›":{"ha":457,"x_min":43,"x_max":424,"o":"m 213 83 l 43 181 l 192 401 q 114 517 167 439 q 44 619 61 594 l 211 719 l 424 401 l 213 83 z "},"⁄":{"ha":746,"x_min":0,"x_max":749,"o":"m 749 901 l 161 -62 l 0 36 l 588 999 l 749 901 z "},"€":{"ha":903,"x_min":35,"x_max":865,"o":"m 129 647 l 129 671 q 244 910 129 824 q 515 997 358 997 q 715 943 619 997 q 857 786 810 889 l 693 697 q 601 781 663 754 q 480 803 539 808 q 376 762 421 797 q 332 671 332 726 l 332 647 l 596 647 l 568 508 l 332 508 l 332 451 l 596 451 l 569 315 l 332 315 l 332 313 q 403 204 332 240 q 563 191 475 168 q 689 290 650 214 l 865 192 q 708 39 804 92 q 511 -14 613 -14 q 328 22 413 -14 q 186 133 243 57 q 129 313 129 208 l 129 315 l 35 315 l 63 451 l 129 451 l 129 508 l 35 508 l 63 647 l 129 647 z "},"ℓ":{"ha":596,"x_min":25,"x_max":564,"o":"m 457 200 l 564 75 q 376 -14 472 -14 q 151 163 199 -14 l 149 160 l 92 125 l 25 285 q 139 385 122 368 l 139 676 q 203 933 139 856 q 361 1011 267 1011 q 506 943 456 1011 q 556 767 556 875 q 329 310 556 550 l 329 286 q 369 176 331 199 q 457 200 407 153 m 306 663 l 306 551 q 369 667 347 592 q 389 799 392 742 q 363 857 386 857 q 337 840 349 857 q 315 778 325 824 q 306 663 306 732 z "},"™":{"ha":1165,"x_min":42,"x_max":1088,"o":"m 175 414 l 175 803 l 42 803 l 42 986 l 497 986 l 497 803 l 363 803 l 363 414 l 175 414 m 531 417 l 531 986 l 689 986 l 810 756 l 935 986 l 1088 986 l 1088 417 l 921 417 l 925 644 l 846 486 l 778 486 l 697 653 l 704 417 l 531 417 z "},"Ω":{"ha":1082,"x_min":58,"x_max":1021,"o":"m 58 199 l 197 199 q 65 521 65 307 q 106 724 65 633 q 213 871 146 815 q 364 956 281 926 q 538 986 447 986 q 769 935 661 986 q 948 778 876 885 q 1019 526 1019 671 q 983 334 1019 422 q 879 199 946 246 l 1021 199 l 1021 0 l 585 0 l 585 150 q 715 231 660 174 q 798 360 771 289 q 824 508 825 431 q 793 648 822 585 q 697 752 764 711 q 538 793 631 793 q 388 752 451 793 q 295 647 325 711 q 262 506 265 583 q 283 358 258 429 q 363 228 307 286 q 494 149 418 171 l 494 0 l 58 0 l 58 199 z "},"℮":{"ha":1139,"x_min":46,"x_max":1103,"o":"m 1103 392 l 347 392 q 348 314 347 365 q 349 233 349 263 q 575 139 447 139 q 749 172 663 139 q 886 279 836 206 l 1071 278 q 925 110 1013 178 q 751 16 838 43 q 574 -11 664 -11 q 201 128 356 -11 q 46 468 46 268 q 201 808 46 667 q 574 950 356 950 q 948 808 793 950 q 1103 468 1103 667 l 1103 392 m 803 543 l 803 703 q 575 796 700 796 q 453 769 514 796 q 347 700 393 743 l 347 543 l 803 543 z "},"∂":{"ha":711,"x_min":42,"x_max":663,"o":"m 193 776 l 104 911 q 322 983 218 983 q 562 864 461 983 q 663 511 663 744 q 570 131 663 275 q 313 -14 478 -14 q 118 76 186 -14 q 47 297 50 165 q 133 549 42 449 q 340 650 225 650 q 471 611 414 650 q 390 792 476 739 q 193 776 303 844 m 314 178 l 321 178 q 415 242 371 168 q 464 417 458 315 q 417 448 453 435 q 343 461 382 461 q 272 413 303 461 q 242 301 242 365 q 261 211 242 244 q 314 178 281 178 z "},"∆":{"ha":815,"x_min":33,"x_max":782,"o":"m 325 956 l 490 956 l 782 126 l 782 0 l 33 0 l 33 125 l 325 956 m 404 649 l 257 193 l 551 193 l 404 649 z "},"∏":{"ha":882,"x_min":36,"x_max":847,"o":"m 729 -79 l 535 -79 l 535 774 l 346 774 l 346 -79 l 151 -79 l 151 774 l 36 774 l 36 965 l 847 965 l 847 774 l 729 774 l 729 -79 z "},"∑":{"ha":758,"x_min":39,"x_max":715,"o":"m 39 38 l 331 439 l 53 843 l 53 983 l 697 983 l 697 822 l 306 822 l 564 442 l 292 74 l 715 74 l 715 -99 l 39 -99 l 39 38 z "},"−":{"ha":850,"x_min":71,"x_max":779,"o":"m 779 510 l 779 318 l 71 318 l 71 510 l 779 510 z "},"∕":{"ha":732,"x_min":-7,"x_max":740,"o":"m 740 901 l 154 -62 l -7 36 l 579 999 l 740 901 z "},"∙":{"ha":346,"x_min":54,"x_max":292,"o":"m 54 426 q 88 513 54 478 q 175 547 122 547 q 258 513 225 547 q 292 426 292 478 q 258 342 292 376 q 175 308 225 308 q 88 342 122 308 q 54 426 54 376 z "},"√":{"ha":742,"x_min":0,"x_max":736,"o":"m 308 -175 l 143 335 q 120 327 138 333 q 94 318 103 321 l 63 315 l 0 485 l 267 586 l 376 146 q 456 623 403 296 q 533 1083 510 950 l 736 1083 l 472 -175 l 308 -175 z "},"∞":{"ha":956,"x_min":46,"x_max":910,"o":"m 910 399 l 910 397 q 840 226 910 293 q 675 160 769 160 q 479 272 546 160 q 275 160 406 160 q 113 227 179 160 q 46 393 46 294 q 113 565 46 497 q 282 633 179 633 q 481 513 404 633 q 569 601 517 567 q 683 633 621 635 q 847 566 785 631 q 910 399 910 501 m 281 468 q 215 433 232 468 q 217 361 197 397 q 279 325 236 325 q 383 399 322 325 q 281 468 319 468 m 679 468 q 576 399 640 468 q 681 325 632 325 q 743 361 724 325 q 745 433 763 397 q 679 468 728 468 z "},"∫":{"ha":513,"x_min":6,"x_max":507,"o":"m 507 1069 l 464 942 q 419 957 442 956 q 378 938 396 958 q 363 872 360 917 l 371 49 q 336 -87 371 -32 q 248 -165 301 -143 q 130 -180 194 -187 q 6 -135 65 -172 l 50 3 q 106 -17 81 -14 q 149 -6 131 -21 q 167 50 167 10 q 153 878 167 164 q 187 1018 153 960 q 273 1100 221 1076 q 388 1117 325 1124 q 507 1069 451 1110 z "},"≈":{"ha":683,"x_min":56,"x_max":629,"o":"m 521 646 l 629 556 q 563 469 600 500 q 482 433 525 439 q 397 435 439 426 q 304 468 354 444 q 228 492 261 493 q 153 450 196 490 l 56 533 q 233 668 135 661 q 353 633 272 669 q 380 621 361 629 q 405 610 399 613 q 426 603 411 607 q 449 601 440 599 q 469 606 457 603 q 494 620 482 610 q 521 646 507 631 m 521 403 l 629 313 q 535 207 590 239 q 422 181 479 175 q 304 225 365 188 q 227 254 258 256 q 153 207 196 253 l 56 290 q 126 382 92 350 q 200 419 161 414 q 271 417 239 425 q 353 390 303 410 q 411 369 394 374 q 458 371 428 365 q 521 403 488 376 z "},"≠":{"ha":742,"x_min":60,"x_max":682,"o":"m 682 593 l 682 418 l 471 418 l 446 361 l 682 361 l 682 186 l 375 186 l 313 44 l 153 124 l 178 186 l 60 186 l 60 361 l 253 361 l 279 418 l 60 418 l 60 593 l 351 593 l 408 728 l 575 661 l 546 593 l 682 593 z "},"≤":{"ha":675,"x_min":56,"x_max":615,"o":"m 592 706 l 338 572 q 435 524 401 539 l 592 444 l 592 236 l 61 514 l 61 633 l 592 914 l 592 706 m 56 222 l 615 222 l 615 32 l 56 32 l 56 222 z "},"≥":{"ha":674,"x_min":60,"x_max":619,"o":"m 614 628 l 614 508 l 83 231 l 83 440 l 240 518 l 338 569 l 83 700 l 83 910 l 614 628 m 60 215 l 619 215 l 619 26 l 60 26 l 60 215 z "},"◊":{"ha":764,"x_min":28,"x_max":736,"o":"m 306 -36 l 28 468 l 314 975 l 454 975 l 736 471 l 450 -36 l 306 -36 m 524 469 l 381 746 q 301 594 353 690 q 238 472 250 497 q 319 322 269 415 q 382 204 368 229 l 524 469 z "},"ﬁ":{"ha":778,"x_min":75,"x_max":721,"o":"m 524 813 q 507 830 524 813 q 490 896 490 847 q 523 978 490 944 q 604 1011 556 1011 q 688 978 656 1011 q 721 896 721 946 q 688 813 721 846 q 604 779 656 779 q 524 813 557 779 m 511 0 l 704 0 l 704 721 l 511 721 l 511 0 m 404 986 l 404 806 q 305 792 342 818 q 268 721 268 767 l 268 686 l 396 686 l 396 510 l 268 510 l 268 0 l 75 0 l 75 732 q 165 931 75 861 q 404 986 256 1000 z "},"ﬂ":{"ha":831,"x_min":74,"x_max":821,"o":"m 821 168 l 821 3 q 592 60 672 -19 q 513 267 513 139 l 513 983 l 706 983 l 706 267 q 735 196 706 224 q 821 168 764 168 m 403 986 l 403 806 q 303 792 340 818 q 267 721 267 767 l 267 686 l 394 686 l 394 510 l 267 510 l 267 0 l 74 0 l 74 732 q 164 931 74 861 q 403 986 254 1000 z "}}}
